<svg width="264" height="260" viewBox="0 0 264 260" fill="none" xmlns="http://www.w3.org/2000/svg">
<g filter="url(#filter0_d_551_8570)">
<path d="M258 171.075H159.791V114.243H258V171.075ZM160.39 170.475H257.401V114.842H160.39V170.475Z" fill="#E0E0E0"/>
<path d="M237.74 144.547H172.944V146.446H237.74V144.547Z" fill="#F0F0F0"/>
<path d="M242.204 151.629H172.944V153.703H242.204V151.629Z" fill="#F0F0F0"/>
<path d="M242.204 158.796H172.944V160.87H242.204V158.796Z" fill="#F0F0F0"/>
<path d="M195.589 134.258H172.944V139.189H195.589V134.258Z" fill="#F0F0F0"/>
<path d="M257.701 114.543H160.109V123.591H257.701V114.543Z" fill="#E0E0E0"/>
<path d="M250.192 122.237C250.066 122.117 251.324 120.601 252.996 118.851C254.668 117.101 256.136 115.777 256.256 115.891C256.376 116.005 255.123 117.527 253.452 119.283C251.78 121.038 250.312 122.357 250.192 122.237Z" fill="white"/>
<path d="M256.268 122.237C256.148 122.357 254.686 121.038 253.008 119.283C251.331 117.527 250.078 116.011 250.204 115.891C250.33 115.771 251.786 117.089 253.464 118.851C255.142 120.613 256.382 122.117 256.268 122.237Z" fill="white"/>
<path d="M137.152 2H39.5601V58.2384H137.152V2Z" fill="#E6E6E6"/>
<path d="M117.197 32.0098H52.4019V33.9094H117.197V32.0098Z" fill="#F0F0F0"/>
<path d="M121.662 39.0928H52.4019V41.1661H121.662V39.0928Z" fill="#F0F0F0"/>
<path d="M121.662 46.2596H52.4019V48.333H121.662V46.2596Z" fill="#F0F0F0"/>
<path d="M75.047 21.7209H52.4019V26.6527H75.047V21.7209Z" fill="#F0F0F0"/>
<path d="M137.152 2H39.5601V11.0485H137.152V2Z" fill="#E0E0E0"/>
<path d="M129.314 9.65227C129.188 9.53841 130.446 8.01635 132.118 6.26658C133.79 4.51681 135.258 3.1925 135.378 3.31234C135.498 3.43219 134.246 4.94826 132.574 6.69803C130.902 8.4478 129.434 9.76013 129.314 9.65227Z" fill="white"/>
<path d="M135.378 9.6523C135.258 9.77215 133.796 8.45383 132.118 6.69806C130.44 4.9423 129.188 3.43222 129.314 3.31237C129.44 3.19253 130.896 4.51085 132.574 6.26661C134.252 8.02237 135.504 9.53844 135.378 9.6523Z" fill="white"/>
<path d="M100.191 106.471H2V49.6333H100.191V106.471ZM2.59924 105.872H99.5917V50.2325H2.59924V105.872Z" fill="#E0E0E0"/>
<path d="M79.9366 79.9427H15.1411V81.8423H79.9366V79.9427Z" fill="#F0F0F0"/>
<path d="M84.4009 87.0258H15.1411V89.0991H84.4009V87.0258Z" fill="#F0F0F0"/>
<path d="M84.4009 94.1926H15.1411V96.266H84.4009V94.1926Z" fill="#F0F0F0"/>
<path d="M37.7863 69.6538H15.1411V74.5855H37.7863V69.6538Z" fill="#F0F0F0"/>
<path d="M99.8915 49.933H2.2998V58.9815H99.8915V49.933Z" fill="#E0E0E0"/>
<path d="M213.513 119.492H98.2793V222.657H213.513V119.492Z" fill="#E6E6E6"/>
<path d="M104.074 86.9957H13.8052V180.782H104.074V86.9957Z" fill="#F0F0F0"/>
<path d="M104.074 86.9957H13.8052V97.2127H104.074V86.9957Z" fill="#E0E0E0"/>
<path d="M21.2594 91.9995C21.243 92.37 21.1181 92.7275 20.9003 93.0276C20.6825 93.3278 20.3814 93.5574 20.0343 93.688C19.6871 93.8185 19.3093 93.8442 18.9477 93.762C18.586 93.6797 18.2565 93.4931 18 93.2252C17.7435 92.9573 17.5714 92.6201 17.5048 92.2552C17.4383 91.8904 17.4804 91.514 17.6259 91.1729C17.7713 90.8317 18.0137 90.5408 18.3231 90.3362C18.6324 90.1316 18.995 90.0223 19.3659 90.022C19.8787 90.0345 20.3657 90.2496 20.7205 90.6201C21.0754 90.9906 21.2691 91.4865 21.2594 91.9995Z" fill="white"/>
<path d="M28.9475 91.9993C28.9322 92.3716 28.8078 92.7311 28.5897 93.0332C28.3717 93.3353 28.0696 93.5666 27.7211 93.6983C27.3726 93.8301 26.993 93.8564 26.6296 93.774C26.2663 93.6917 25.9352 93.5043 25.6775 93.2352C25.4198 92.9661 25.247 92.6272 25.1804 92.2606C25.1139 91.894 25.1566 91.516 25.3033 91.1735C25.45 90.831 25.6942 90.5392 26.0055 90.3345C26.3167 90.1297 26.6813 90.021 27.0539 90.0219C27.5667 90.0344 28.0538 90.2495 28.4086 90.62C28.7634 90.9905 28.9571 91.4864 28.9475 91.9993Z" fill="white"/>
<path d="M36.6359 91.9993C36.6207 92.3716 36.4963 92.7311 36.2782 93.0332C36.0601 93.3353 35.758 93.5666 35.4095 93.6983C35.061 93.8301 34.6815 93.8564 34.3181 93.774C33.9548 93.6917 33.6236 93.5043 33.366 93.2352C33.1083 92.9661 32.9354 92.6272 32.8689 92.2606C32.8024 91.894 32.8451 91.516 32.9918 91.1735C33.1385 90.831 33.3827 90.5392 33.6939 90.3345C34.0052 90.1297 34.3698 90.021 34.7424 90.0219C35.2552 90.0344 35.7422 90.2495 36.0971 90.62C36.4519 90.9905 36.6456 91.4864 36.6359 91.9993Z" fill="white"/>
<path d="M245.11 22.5118H129.877V137.362H245.11V22.5118Z" fill="#F0F0F0"/>
<path d="M245.11 22.5118H129.877V35.9647H245.11V22.5118Z" fill="#E0E0E0"/>
<path d="M139.693 29.1035C139.671 29.5926 139.507 30.0647 139.22 30.4612C138.933 30.8577 138.536 31.1611 138.078 31.3338C137.62 31.5065 137.121 31.5408 136.643 31.4326C136.166 31.3243 135.731 31.0782 135.392 30.7249C135.053 30.3715 134.826 29.9264 134.738 29.4448C134.65 28.9633 134.705 28.4665 134.897 28.0161C135.089 27.5658 135.409 27.1817 135.817 26.9116C136.226 26.6415 136.704 26.4973 137.194 26.4968C137.87 26.5126 138.513 26.7957 138.981 27.2842C139.45 27.7727 139.705 28.4269 139.693 29.1035Z" fill="white"/>
<path d="M149.083 27.3418C149.415 27.7025 149.634 28.1531 149.711 28.6373C149.789 29.1214 149.723 29.6179 149.521 30.0647C149.319 30.5115 148.99 30.8889 148.574 31.1499C148.159 31.4109 147.676 31.544 147.186 31.5326C146.696 31.5211 146.22 31.3657 145.817 31.0856C145.415 30.8055 145.103 30.4131 144.922 29.9574C144.741 29.5016 144.698 29.0026 144.799 28.5226C144.899 28.0426 145.139 27.6028 145.487 27.2579C145.976 26.7931 146.628 26.541 147.302 26.5567C147.976 26.5725 148.616 26.8548 149.083 27.3418Z" fill="white"/>
<path d="M159.935 29.1035C159.914 29.5926 159.749 30.0647 159.462 30.4612C159.175 30.8577 158.778 31.1611 158.32 31.3338C157.862 31.5065 157.363 31.5408 156.886 31.4326C156.408 31.3243 155.973 31.0782 155.634 30.7249C155.296 30.3715 155.068 29.9264 154.98 29.4448C154.892 28.9633 154.948 28.4665 155.139 28.0161C155.331 27.5658 155.651 27.1817 156.06 26.9116C156.468 26.6415 156.946 26.4973 157.436 26.4968C158.113 26.5126 158.755 26.7957 159.224 27.2842C159.692 27.7727 159.948 28.4269 159.935 29.1035Z" fill="white"/>
<path d="M220.218 253.128C220.218 253.212 178.607 253.284 127.295 253.284C75.982 253.284 34.353 253.212 34.353 253.128C34.353 253.044 75.958 252.972 127.295 252.972C178.631 252.972 220.218 253.05 220.218 253.128Z" fill="#263238"/>
<path d="M179.673 179.77C170.415 173.304 168.318 161.301 168.683 150.509C168.743 148.711 168.546 146.806 169.403 145.23C170.259 143.654 172.261 142.569 173.873 143.324C175.209 143.953 175.79 145.511 176.539 146.8C177.539 148.516 179.004 149.914 180.764 150.832C181.909 151.432 183.329 151.791 184.461 151.168C186.019 150.311 186.199 148.172 186.187 146.374C186.187 143.03 186.167 139.691 186.127 136.355C186.02 134.564 186.202 132.767 186.667 131.034C187.224 129.332 188.464 127.756 190.16 127.276C191.856 126.797 193.971 127.786 194.355 129.536C194.421 130.277 194.439 131.021 194.409 131.765C194.457 132.514 194.804 133.335 195.505 133.562C196.206 133.79 196.938 133.269 197.477 132.742C199.322 130.944 200.581 128.601 201.749 126.288C202.918 123.975 204.062 121.596 205.74 119.624C207.418 117.653 209.737 116.089 212.332 115.939C214.927 115.789 217.629 117.383 218.276 119.9C218.924 122.417 217.455 124.987 215.879 127.031C213.501 130.064 210.698 132.738 207.556 134.971C206.943 135.306 206.453 135.829 206.16 136.463C205.77 137.661 206.903 138.86 208.083 139.237C209.42 139.681 210.87 139.543 212.278 139.711C213.686 139.878 215.184 140.49 215.718 141.808C216.449 143.642 214.915 145.559 213.411 146.818C210.39 149.334 206.961 151.315 203.271 152.672C201.953 153.152 200.569 153.577 199.502 154.5C198.436 155.423 197.8 157.035 198.442 158.299C199.083 159.563 200.731 159.965 202.115 159.707C203.499 159.45 204.728 158.706 206.046 158.209C208.509 157.28 211.685 157.448 213.237 159.575C213.718 160.308 214.022 161.142 214.126 162.013C214.23 162.883 214.131 163.766 213.836 164.591C213.236 166.234 212.313 167.739 211.121 169.019C207.197 173.709 202.097 177.272 196.344 179.344C190.634 181.322 185.342 181.861 179.668 179.782" fill="#FF7622"/>
<path d="M215.64 117.419C215.64 117.419 215.586 117.479 215.466 117.587L214.932 118.06C214.465 118.48 213.776 119.091 212.907 119.9C210.444 122.187 208.156 124.657 206.064 127.288C204.727 128.948 203.343 130.83 201.869 132.873C200.395 134.917 198.873 137.122 197.363 139.465C195.753 141.936 194.279 144.492 192.946 147.123C192.251 148.495 191.64 149.928 191.011 151.39L189.153 155.854C186.705 161.477 184.572 167.233 182.765 173.094C181.31 177.89 180.307 182.811 179.769 187.793C179.421 191.156 179.365 194.542 179.601 197.915C179.697 199.113 179.787 200.03 179.871 200.653C179.907 200.953 179.931 201.192 179.955 201.366V201.612C179.929 201.534 179.911 201.454 179.901 201.372C179.871 201.198 179.835 200.965 179.787 200.665C179.679 200.066 179.566 199.119 179.458 197.921C179.169 194.542 179.189 191.144 179.518 187.769C180.022 182.766 181.003 177.822 182.448 173.004C184.239 167.127 186.366 161.357 188.818 155.722L190.723 151.276C191.353 149.82 191.97 148.376 192.671 146.997C194.012 144.358 195.499 141.796 197.123 139.321C198.657 136.924 200.203 134.755 201.659 132.73C203.116 130.704 204.524 128.811 205.854 127.157C207.967 124.532 210.286 122.08 212.787 119.822C213.674 119.025 214.381 118.426 214.861 118.024L215.418 117.575C215.486 117.515 215.56 117.463 215.64 117.419Z" fill="#263238"/>
<path d="M192.749 146.985C192.664 146.739 192.606 146.483 192.575 146.224C192.479 145.727 192.371 145.026 192.246 144.115C191.988 142.317 191.724 139.854 191.443 137.128C191.161 134.401 190.843 131.933 190.58 130.153C190.442 129.266 190.322 128.553 190.238 128.055C190.173 127.801 190.138 127.539 190.136 127.276C190.239 127.517 190.314 127.768 190.358 128.026C190.49 128.517 190.64 129.224 190.807 130.117C191.149 131.915 191.484 134.359 191.766 137.092C192.048 139.825 192.287 142.221 192.473 144.085C192.563 144.924 192.641 145.637 192.701 146.206C192.748 146.463 192.764 146.725 192.749 146.985Z" fill="#263238"/>
<path d="M215.807 142.683C215.516 142.746 215.219 142.782 214.92 142.791C214.321 142.845 213.47 142.916 212.416 143.036C210.306 143.264 207.406 143.684 204.224 144.283C201.042 144.882 198.184 145.559 196.128 146.08C195.104 146.344 194.277 146.584 193.731 146.746C193.44 146.849 193.139 146.921 192.833 146.961C193.109 146.822 193.398 146.708 193.695 146.62C194.259 146.422 195.074 146.146 196.092 145.853C198.136 145.254 200.994 144.54 204.188 143.929C206.894 143.412 209.624 143.032 212.368 142.791C213.428 142.701 214.285 142.665 214.884 142.653C215.192 142.632 215.501 142.642 215.807 142.683Z" fill="#263238"/>
<path d="M182.742 172.585C182.678 172.498 182.625 172.403 182.586 172.303L182.19 171.47C181.849 170.745 181.387 169.672 180.836 168.36C179.722 165.724 178.301 162.032 176.791 157.933C175.281 153.835 173.891 150.143 172.836 147.477C172.321 146.182 171.896 145.122 171.578 144.331L171.242 143.474C171.196 143.375 171.164 143.27 171.146 143.162C171.21 143.249 171.263 143.344 171.302 143.444L171.698 144.277C172.033 145.002 172.501 146.075 173.052 147.387C174.167 150.024 175.587 153.715 177.097 157.814C178.607 161.912 179.997 165.604 181.052 168.27C181.567 169.565 181.993 170.625 182.304 171.416C182.442 171.758 182.556 172.015 182.646 172.273C182.692 172.372 182.725 172.477 182.742 172.585Z" fill="#263238"/>
<path d="M213.351 162.715C213.255 162.77 213.152 162.813 213.045 162.841L212.158 163.141L208.881 164.201C206.112 165.1 202.289 166.383 198.094 167.797C193.9 169.211 190.059 170.469 187.272 171.308C185.882 171.734 184.749 172.057 183.964 172.273L183.059 172.507C182.954 172.54 182.846 172.562 182.736 172.573C182.832 172.518 182.935 172.475 183.041 172.447L183.928 172.147L187.206 171.087C189.975 170.188 193.798 168.905 197.992 167.491C202.187 166.077 206.022 164.819 208.809 163.98C210.205 163.554 211.331 163.231 212.122 163.015L213.027 162.781C213.132 162.748 213.241 162.726 213.351 162.715Z" fill="#263238"/>
<g filter="url(#filter1_d_551_8570)">
<path d="M200.863 17.3584L197.777 18.461L196.452 14.4281C194.019 6.99162 186.265 3.04265 179.14 5.55345C172.015 8.06425 168.222 16.2199 170.655 23.6564L171.979 27.6893L168.881 28.7978C167.7 29.2561 166.741 30.1519 166.203 31.2991C165.665 32.4464 165.59 33.7568 165.993 34.958L174.58 61.1986C174.758 61.7932 175.054 62.346 175.45 62.824C175.846 63.302 176.335 63.6955 176.886 63.9811C177.437 64.2668 178.04 64.4387 178.659 64.4867C179.278 64.5348 179.9 64.4579 180.489 64.2607L212.47 52.8213C213.667 52.3638 214.64 51.4601 215.184 50.3C215.728 49.14 215.801 47.8141 215.388 46.6012L206.795 20.3606C206.612 19.7676 206.312 19.2176 205.912 18.7432C205.511 18.2689 205.02 17.8801 204.466 17.5999C203.913 17.3197 203.308 17.1539 202.689 17.1124C202.07 17.0709 201.449 17.1546 200.863 17.3584ZM176.486 21.5531C175.83 19.6195 175.947 17.507 176.814 15.6583C177.681 13.8096 179.23 12.368 181.136 11.6357C182.077 11.3137 183.073 11.1846 184.065 11.256C185.058 11.3275 186.025 11.5981 186.91 12.0516C187.796 12.5052 188.581 13.1324 189.218 13.8959C189.856 14.6594 190.333 15.5435 190.622 16.4955L191.94 20.5284L177.804 25.5859L176.486 21.5531ZM194.463 44.8394L196.656 51.5389C196.696 51.6732 196.683 51.8179 196.62 51.9429C196.556 52.0679 196.447 52.1635 196.314 52.21L193.24 53.3066C193.118 53.3406 192.987 53.3258 192.876 53.2655C192.764 53.2052 192.68 53.104 192.641 52.983L190.43 46.3135C189.211 46.2471 188.041 45.8098 187.077 45.0601C186.113 44.3105 185.401 43.2843 185.037 42.1189C184.516 40.5782 184.611 38.8956 185.302 37.4235C185.993 35.9513 187.228 34.8037 188.746 34.2209C189.496 33.9648 190.289 33.8622 191.08 33.9193C191.87 33.9763 192.64 34.1919 193.346 34.5532C194.051 34.9144 194.676 35.4139 195.184 36.0219C195.692 36.6299 196.072 37.3339 196.302 38.092C196.688 39.2758 196.72 40.5464 196.394 41.7481C196.068 42.9497 195.399 44.0303 194.469 44.8574L194.463 44.8394Z" fill="#FF7622"/>
<path d="M197.639 18.3891C197.639 18.473 191.916 20.6242 184.797 23.183C177.678 25.7417 171.871 27.7971 171.841 27.7372C171.811 27.6773 177.564 25.508 184.689 22.9433C191.814 20.3786 197.609 18.3112 197.639 18.3891Z" fill="#263238"/>
<path d="M204.434 19.4917C204.461 19.5437 204.483 19.5978 204.5 19.6535C204.548 19.7733 204.602 19.9291 204.674 20.1209C204.83 20.5583 205.045 21.1636 205.315 21.9186L207.616 28.6181C208.575 31.4585 209.719 34.8262 210.99 38.5654C211.589 40.441 212.296 42.3945 212.955 44.4499C213.308 45.5091 213.461 46.6247 213.405 47.7397C213.354 48.3196 213.189 48.8837 212.919 49.3996C212.631 49.9138 212.247 50.3675 211.787 50.7359C210.861 51.4117 209.833 51.9356 208.743 52.2879L205.657 53.3965L199.814 55.4879L189.921 59.0114L183.239 61.3604L181.441 61.9596L180.962 62.1154C180.911 62.1382 180.856 62.1524 180.8 62.1574C180.8 62.1574 180.848 62.1574 180.95 62.0855L181.418 61.8997L183.215 61.2226L189.861 58.7777L199.736 55.1823L205.567 53.0729L208.653 51.9584C209.713 51.6204 210.71 51.1124 211.607 50.4543C212.035 50.1124 212.393 49.6913 212.662 49.2138C212.915 48.7367 213.068 48.2125 213.111 47.6738C213.166 46.5995 213.02 45.5243 212.68 44.5038C212.033 42.4664 211.349 40.495 210.732 38.6193C209.486 34.8741 208.335 31.4944 207.424 28.654C206.514 25.8136 205.747 23.5306 205.219 21.9246C204.968 21.1396 204.776 20.5284 204.62 20.0849L204.476 19.6056C204.458 19.5692 204.444 19.5311 204.434 19.4917Z" fill="#263238"/>
<path d="M187.56 11.2282C187.56 11.2282 187.242 11.0724 186.655 10.8327C185.818 10.5111 184.932 10.3328 184.036 10.3054C182.707 10.2599 181.385 10.5096 180.165 11.0365C178.681 11.6926 177.412 12.7539 176.504 14.0986C175.589 15.4394 175.099 17.0239 175.095 18.6468C175.108 19.9769 175.31 21.2985 175.695 22.5718C176.006 23.6624 176.33 24.5313 176.546 25.1365C176.673 25.444 176.777 25.7604 176.857 26.0833C176.687 25.7959 176.544 25.4929 176.432 25.1785C176.186 24.5792 175.832 23.7283 175.485 22.6317C175.058 21.3451 174.826 20.002 174.796 18.6468C174.78 16.9626 175.282 15.3142 176.234 13.9248C177.174 12.5311 178.495 11.4369 180.039 10.7728C181.298 10.243 182.661 10.0093 184.024 10.0897C184.94 10.1364 185.839 10.3496 186.679 10.7189C186.903 10.8224 187.119 10.9426 187.326 11.0784C187.411 11.1159 187.49 11.1664 187.56 11.2282Z" fill="#263238"/>
<path d="M187.835 34.6764C187.931 34.6185 188.031 34.5684 188.135 34.5266C188.435 34.3913 188.745 34.281 189.064 34.197C189.569 34.048 190.09 33.9594 190.616 33.9334C191.331 33.8949 192.047 34.003 192.719 34.251C194.253 34.7903 195.661 36.3543 196.356 38.4456C196.69 39.5679 196.69 40.7629 196.356 41.8852C195.987 43.1033 195.324 44.2123 194.427 45.1151L194.463 44.9533C195.26 47.1405 196.129 49.5135 197.027 51.9884L197.081 52.1382L196.932 52.1921L195.559 52.6475L192.563 53.6483L192.413 53.6962L192.365 53.5464C191.544 51.0655 190.646 48.7525 189.968 46.4814L190.1 46.5833C188.929 46.4859 187.812 46.0462 186.888 45.3189C186.053 44.6754 185.368 43.8574 184.881 42.9219C184.442 42.0923 184.223 41.1638 184.246 40.2253C184.273 39.2662 184.513 38.3251 184.947 37.4694C185.381 36.6137 185.999 35.8646 186.757 35.2757C187.068 35.0225 187.418 34.8203 187.793 34.6764C187.455 34.8773 187.127 35.0953 186.81 35.3296C185.978 36.0336 185.341 36.9394 184.959 37.9602C184.631 38.73 184.478 39.5629 184.51 40.399C184.542 41.2351 184.759 42.0537 185.145 42.7961C185.623 43.696 186.292 44.4811 187.104 45.0971C187.985 45.7885 189.05 46.2053 190.166 46.2956H190.268L190.298 46.3855C190.957 48.6147 191.862 50.9457 192.695 53.4385L192.497 53.3426L195.493 52.3419L196.86 51.8805L196.764 52.0842C195.871 49.6094 195.008 47.2304 194.217 45.0432V44.9533L194.289 44.8814C195.16 44.0161 195.81 42.9533 196.183 41.7834C196.5 40.7098 196.5 39.5671 196.183 38.4936C195.529 36.4801 194.181 34.9521 192.719 34.4128C192.072 34.1632 191.381 34.047 190.688 34.0712C190.17 34.083 189.655 34.1534 189.154 34.2809C188.261 34.5026 187.841 34.7064 187.835 34.6764Z" fill="#263238"/>
</g>
<path d="M169.313 207.7L109.455 207.424C105.998 207.405 102.69 206.015 100.258 203.559C97.8254 201.103 96.4672 197.782 96.4816 194.325L97.1167 44.2702C97.1238 42.5576 97.4683 40.8632 98.1306 39.2838C98.7929 37.7044 99.7599 36.2711 100.976 35.0657C102.193 33.8603 103.635 32.9064 105.221 32.2587C106.806 31.6109 108.503 31.282 110.216 31.2907L170.068 31.5663C173.525 31.5838 176.833 32.9725 179.267 35.4275C181.7 37.8824 183.06 41.2029 183.047 44.6597L182.412 194.709C182.405 196.422 182.061 198.117 181.398 199.697C180.736 201.277 179.769 202.711 178.553 203.917C177.337 205.124 175.895 206.079 174.309 206.728C172.724 207.377 171.026 207.707 169.313 207.7Z" fill="#7D7C7C"/>
<path d="M169.978 36.7258H158.377C157.998 36.7328 157.625 36.8143 157.278 36.9657C156.931 37.117 156.617 37.3353 156.354 37.608C156.092 37.8806 155.885 38.2024 155.747 38.5548C155.609 38.9073 155.541 39.2835 155.548 39.662V41.7653C155.555 42.1436 155.488 42.5195 155.35 42.8716C155.211 43.2237 155.005 43.5451 154.742 43.8172C154.479 44.0894 154.165 44.3071 153.818 44.4578C153.471 44.6086 153.098 44.6894 152.72 44.6956L130.105 44.5937C129.34 44.5733 128.614 44.2501 128.087 43.6951C127.56 43.1401 127.275 42.3986 127.294 41.6335V39.5302C127.314 38.7661 127.029 38.0255 126.504 37.4707C125.978 36.9158 125.254 36.5919 124.49 36.5699H120.409L110.252 36.522C107.836 36.5076 105.513 37.4511 103.791 39.1459C102.069 40.8407 101.089 43.1487 101.066 45.5645L100.466 192.03C100.461 193.228 100.691 194.416 101.145 195.526C101.599 196.635 102.266 197.644 103.11 198.496C103.953 199.347 104.956 200.024 106.062 200.488C107.167 200.951 108.352 201.193 109.551 201.198L169.283 201.474C170.482 201.479 171.671 201.249 172.781 200.795C173.891 200.341 174.901 199.673 175.753 198.829C176.605 197.985 177.282 196.981 177.746 195.875C178.21 194.769 178.452 193.583 178.457 192.384L179.056 45.918C179.071 43.4954 178.122 41.1662 176.42 39.4425C174.718 37.7188 172.401 36.7416 169.978 36.7258Z" fill="white"/>
<path d="M161.942 181.933L117.527 181.741C117.065 181.741 116.694 181.238 116.7 180.626L116.748 169.007C116.748 168.408 117.125 167.893 117.587 167.893L162.002 168.096C162.258 168.141 162.487 168.282 162.641 168.491C162.795 168.699 162.862 168.96 162.829 169.217L162.787 180.824C162.787 181.441 162.404 181.939 161.942 181.933Z" fill="#FF7622"/>
<path d="M132.08 179.394C131.657 179.394 131.25 179.326 130.86 179.19C130.475 179.055 130.177 178.876 129.966 178.654L130.201 178.19C130.407 178.396 130.681 178.564 131.023 178.694C131.364 178.819 131.717 178.881 132.08 178.881C132.589 178.881 132.972 178.789 133.226 178.605C133.481 178.415 133.608 178.171 133.608 177.873C133.608 177.646 133.538 177.464 133.397 177.328C133.262 177.193 133.094 177.09 132.893 177.019C132.692 176.944 132.413 176.862 132.055 176.775C131.627 176.667 131.286 176.564 131.031 176.466C130.776 176.363 130.557 176.209 130.372 176.003C130.193 175.797 130.104 175.518 130.104 175.165C130.104 174.878 130.18 174.618 130.332 174.385C130.483 174.146 130.716 173.957 131.031 173.816C131.345 173.675 131.736 173.604 132.202 173.604C132.527 173.604 132.844 173.65 133.153 173.743C133.468 173.829 133.739 173.951 133.966 174.108L133.763 174.588C133.524 174.431 133.27 174.314 132.999 174.239C132.728 174.157 132.462 174.117 132.202 174.117C131.703 174.117 131.326 174.214 131.072 174.409C130.822 174.599 130.697 174.846 130.697 175.149C130.697 175.377 130.765 175.561 130.901 175.702C131.042 175.838 131.215 175.943 131.421 176.019C131.633 176.09 131.914 176.168 132.267 176.255C132.684 176.358 133.02 176.461 133.275 176.564C133.535 176.662 133.755 176.813 133.934 177.019C134.113 177.22 134.202 177.494 134.202 177.841C134.202 178.128 134.123 178.391 133.966 178.629C133.814 178.863 133.579 179.05 133.259 179.19C132.939 179.326 132.546 179.394 132.08 179.394ZM135.513 173.653H136.115V179.345H135.513V173.653ZM142.724 173.653V179.345H142.228L138.569 174.726V179.345H137.967V173.653H138.463L142.13 178.272V173.653H142.724ZM148.59 176.499H149.167V178.67C148.902 178.903 148.587 179.082 148.224 179.207C147.861 179.331 147.479 179.394 147.078 179.394C146.509 179.394 145.996 179.269 145.541 179.02C145.086 178.77 144.728 178.426 144.468 177.987C144.207 177.543 144.077 177.047 144.077 176.499C144.077 175.952 144.207 175.458 144.468 175.019C144.728 174.575 145.086 174.228 145.541 173.978C145.996 173.729 146.511 173.604 147.086 173.604C147.52 173.604 147.918 173.675 148.281 173.816C148.644 173.951 148.951 174.154 149.2 174.426L148.826 174.808C148.376 174.363 147.804 174.141 147.11 174.141C146.649 174.141 146.232 174.244 145.858 174.45C145.489 174.651 145.199 174.932 144.988 175.296C144.777 175.653 144.671 176.055 144.671 176.499C144.671 176.944 144.777 177.345 144.988 177.702C145.199 178.06 145.489 178.342 145.858 178.548C146.227 178.754 146.641 178.857 147.102 178.857C147.688 178.857 148.184 178.711 148.59 178.418V176.499ZM155.292 179.394C154.554 179.394 153.98 179.182 153.568 178.76C153.156 178.337 152.95 177.721 152.95 176.914V173.653H153.551V176.889C153.551 177.551 153.701 178.044 153.999 178.369C154.297 178.694 154.728 178.857 155.292 178.857C155.861 178.857 156.294 178.694 156.593 178.369C156.891 178.044 157.04 177.551 157.04 176.889V173.653H157.625V176.914C157.625 177.721 157.419 178.337 157.007 178.76C156.601 179.182 156.029 179.394 155.292 179.394ZM161.569 173.653C162.295 173.653 162.864 173.827 163.276 174.173C163.688 174.52 163.894 174.997 163.894 175.605C163.894 176.212 163.688 176.689 163.276 177.036C162.864 177.377 162.295 177.548 161.569 177.548H160.04V179.345H159.438V173.653H161.569ZM161.553 177.019C162.116 177.019 162.547 176.897 162.845 176.654C163.144 176.404 163.293 176.055 163.293 175.605C163.293 175.144 163.144 174.791 162.845 174.548C162.547 174.298 162.116 174.173 161.553 174.173H160.04V177.019H161.553Z" fill="#E8E8E3"/>
<path d="M126.386 79.7811L110.974 79.7112L110.961 82.5396L126.373 82.6095L126.386 79.7811Z" fill="#FF7622"/>
<path opacity="0.1" d="M126.386 79.7811L110.974 79.7112L110.961 82.5396L126.373 82.6095L126.386 79.7811Z" fill="black"/>
<path d="M171.566 97.1468C171.687 97.1345 171.806 97.1063 171.919 97.0629C172.085 96.998 172.229 96.8877 172.335 96.7446C172.441 96.6015 172.505 96.4315 172.519 96.2539C172.519 95.3011 172.519 93.9109 172.519 92.1252C172.519 91.2323 172.519 90.2316 172.519 89.129C172.519 88.8593 172.519 88.5777 172.519 88.296C172.558 88.0228 172.498 87.7445 172.351 87.511C172.268 87.3991 172.161 87.3078 172.037 87.2444C171.914 87.181 171.777 87.1471 171.638 87.1455H170.703H162.044L111.924 86.9597C111.795 86.9576 111.669 86.9864 111.554 87.0438C111.439 87.1011 111.34 87.1854 111.265 87.2893C111.12 87.5237 111.065 87.8024 111.109 88.0743C111.109 88.6736 111.109 89.2728 111.109 89.872C111.109 91.0705 111.109 92.269 111.109 93.4675C111.109 94.0667 111.109 94.6659 111.109 95.2652C111.084 95.5443 111.084 95.825 111.109 96.1041C111.14 96.2237 111.199 96.3346 111.28 96.4281C111.361 96.5216 111.462 96.5952 111.576 96.6434C111.694 96.6904 111.821 96.7128 111.948 96.7093H114.998L128.307 96.7812L150.838 96.9191L166.029 97.0389L170.158 97.0868H171.23C171.476 97.0868 171.596 97.0868 171.596 97.0868H171.23H170.158H166.029H150.838L128.307 97.0149L114.998 96.961H111.948C111.78 96.9678 111.612 96.9392 111.456 96.8771C111.299 96.8098 111.158 96.7073 111.046 96.5775C110.934 96.4477 110.853 96.294 110.809 96.1281C110.774 95.9708 110.762 95.8094 110.773 95.6487V95.2052C110.773 94.606 110.773 94.0068 110.773 93.4075C110.773 92.2091 110.773 91.0106 110.773 89.8121C110.773 89.2129 110.773 88.6136 110.773 88.0144C110.762 87.8548 110.762 87.6946 110.773 87.535C110.796 87.3587 110.864 87.1914 110.971 87.0496C111.074 86.905 111.211 86.7875 111.37 86.7071C111.528 86.6268 111.704 86.586 111.882 86.5882L162.002 86.8639L170.661 86.9238H171.596C171.76 86.9239 171.923 86.9637 172.069 87.0399C172.215 87.116 172.34 87.2263 172.435 87.3612C172.604 87.6218 172.672 87.9349 172.626 88.2421C172.626 88.5238 172.626 88.8054 172.626 89.0751C172.626 90.1657 172.626 91.1664 172.626 92.0712C172.626 93.8689 172.584 95.2472 172.573 96.206C172.558 96.3903 172.491 96.5666 172.379 96.7142C172.268 96.8618 172.117 96.9744 171.943 97.0389C171.83 97.1092 171.699 97.1465 171.566 97.1468Z" fill="#E0E0E0"/>
<path d="M143.791 89.9679H115.603V92.6105H143.791V89.9679Z" fill="#FF7622"/>
<path opacity="0.2" d="M143.791 89.9679H115.603V92.6105H143.791V89.9679Z" fill="white"/>
<path d="M126.281 105.583L110.869 105.514L110.856 108.342L126.268 108.412L126.281 105.583Z" fill="#FF7622"/>
<path opacity="0.1" d="M126.281 105.583L110.869 105.514L110.856 108.342L126.268 108.412L126.281 105.583Z" fill="black"/>
<path d="M171.176 122.95C171.297 122.935 171.417 122.913 171.536 122.884C171.703 122.831 171.857 122.742 171.987 122.624C172.118 122.506 172.221 122.362 172.291 122.201C172.385 121.959 172.422 121.698 172.399 121.44C172.399 121.152 172.399 120.841 172.399 120.493C172.399 119.798 172.399 119.007 172.399 118.096V114.291C172.427 114.015 172.366 113.738 172.225 113.5C172.077 113.256 171.845 113.074 171.572 112.991C171.273 112.937 170.969 112.921 170.667 112.943H162.044L112.098 112.757C111.829 112.758 111.57 112.856 111.368 113.033C111.166 113.211 111.036 113.455 111.001 113.722C111.001 114.291 111.001 114.92 111.001 115.519C111.001 116.718 111.001 117.916 111.001 119.115C111.001 119.714 111.001 120.313 111.001 120.913C110.979 121.193 110.991 121.474 111.037 121.751C111.112 121.994 111.266 122.205 111.474 122.351C111.696 122.491 111.956 122.558 112.217 122.542H113.05H114.782L128.043 122.608L150.497 122.746L165.633 122.866L169.75 122.914H170.823H171.182H170.823H169.75H165.633H150.497L128.031 122.89L114.77 122.842H112.163C111.839 122.861 111.518 122.775 111.247 122.596C110.974 122.407 110.775 122.13 110.683 121.811C110.63 121.507 110.614 121.197 110.635 120.889C110.635 120.289 110.635 119.69 110.635 119.091C110.635 117.892 110.635 116.694 110.635 115.495C110.635 114.896 110.635 114.297 110.635 113.698C110.679 113.355 110.846 113.04 111.105 112.812C111.365 112.583 111.698 112.457 112.044 112.457L161.99 112.733L170.613 112.799C170.934 112.779 171.256 112.801 171.572 112.865C171.883 112.966 172.146 113.18 172.309 113.464C172.464 113.728 172.531 114.034 172.501 114.339C172.501 114.621 172.501 114.896 172.501 115.172C172.501 116.256 172.501 117.251 172.501 118.168C172.501 119.085 172.501 119.858 172.501 120.565C172.501 120.907 172.501 121.224 172.501 121.518C172.522 121.786 172.479 122.055 172.375 122.303C172.297 122.468 172.184 122.615 172.045 122.733C171.905 122.85 171.742 122.937 171.566 122.986C171.435 122.997 171.303 122.985 171.176 122.95Z" fill="#E0E0E0"/>
<path d="M126.165 132.506L110.752 132.436L110.74 135.265L126.152 135.335L126.165 132.506Z" fill="#FF7622"/>
<path opacity="0.1" d="M126.165 132.506L110.752 132.436L110.74 135.265L126.152 135.335L126.165 132.506Z" fill="black"/>
<path d="M171.056 149.862C171.178 149.847 171.298 149.825 171.416 149.796C171.583 149.743 171.736 149.655 171.866 149.538C171.996 149.422 172.1 149.279 172.171 149.119C172.265 148.877 172.302 148.616 172.279 148.358C172.279 148.064 172.279 147.758 172.279 147.405C172.279 146.716 172.279 145.919 172.279 145.008V141.203C172.308 140.927 172.247 140.65 172.105 140.412C171.954 140.172 171.722 139.994 171.452 139.908C171.154 139.853 170.85 139.835 170.547 139.854H161.924L111.978 139.669C111.709 139.669 111.45 139.767 111.248 139.945C111.046 140.122 110.916 140.367 110.881 140.633C110.881 141.233 110.881 141.832 110.881 142.431C110.881 143.63 110.881 144.828 110.881 146.027C110.881 146.626 110.881 147.225 110.881 147.824C110.859 148.102 110.871 148.382 110.917 148.657C110.989 148.902 111.144 149.114 111.355 149.256C111.574 149.4 111.836 149.467 112.098 149.448H114.704L127.965 149.52L150.419 149.658L165.555 149.778L169.672 149.826H170.745C170.985 149.826 171.104 149.826 171.104 149.826C171.104 149.826 170.985 149.826 170.745 149.826H169.672H165.555H150.419L127.965 149.76L114.704 149.706H112.098C111.773 149.728 111.451 149.641 111.181 149.46C110.908 149.271 110.709 148.994 110.617 148.675C110.564 148.371 110.548 148.061 110.57 147.752C110.57 147.153 110.57 146.554 110.57 145.955C110.57 144.756 110.57 143.558 110.57 142.359C110.57 141.76 110.57 141.161 110.57 140.532C110.612 140.189 110.778 139.875 111.036 139.646C111.294 139.418 111.627 139.291 111.972 139.291L161.918 139.567L170.541 139.633C170.862 139.613 171.185 139.635 171.5 139.699C171.811 139.8 172.074 140.014 172.237 140.298C172.392 140.562 172.459 140.868 172.429 141.173C172.429 141.454 172.429 141.736 172.429 142.006C172.429 143.09 172.429 144.085 172.429 145.002C172.429 145.919 172.429 146.692 172.429 147.399C172.429 147.74 172.429 148.058 172.429 148.352C172.452 148.62 172.409 148.889 172.303 149.137C172.225 149.302 172.113 149.449 171.973 149.566C171.833 149.684 171.67 149.771 171.494 149.82C171.353 149.868 171.204 149.882 171.056 149.862Z" fill="#E0E0E0"/>
<path d="M143.19 116.518L115.002 116.39L114.99 119.033L143.178 119.161L143.19 116.518Z" fill="#FF7622"/>
<path opacity="0.2" d="M143.19 116.518L115.002 116.39L114.99 119.033L143.178 119.161L143.19 116.518Z" fill="white"/>
<path d="M117.551 144.972C117.533 145.213 117.445 145.444 117.297 145.635C117.15 145.826 116.949 145.97 116.721 146.049C116.492 146.128 116.246 146.137 116.012 146.077C115.777 146.017 115.566 145.889 115.404 145.71C115.242 145.531 115.136 145.308 115.099 145.069C115.063 144.83 115.097 144.586 115.198 144.366C115.299 144.146 115.462 143.961 115.667 143.834C115.872 143.706 116.11 143.641 116.352 143.648C116.686 143.666 116.999 143.816 117.223 144.064C117.448 144.312 117.565 144.638 117.551 144.972Z" fill="#FF7622"/>
<path d="M121.368 144.99C121.38 145.159 121.356 145.328 121.3 145.488C121.243 145.648 121.155 145.794 121.039 145.918C120.924 146.042 120.784 146.14 120.628 146.208C120.473 146.275 120.306 146.31 120.136 146.31C119.967 146.31 119.799 146.275 119.644 146.208C119.489 146.14 119.349 146.042 119.234 145.918C119.118 145.794 119.029 145.648 118.973 145.488C118.916 145.328 118.893 145.159 118.905 144.99C118.893 144.821 118.916 144.651 118.973 144.492C119.029 144.332 119.118 144.186 119.234 144.062C119.349 143.938 119.489 143.839 119.644 143.772C119.799 143.704 119.967 143.67 120.136 143.67C120.306 143.67 120.473 143.704 120.628 143.772C120.784 143.839 120.924 143.938 121.039 144.062C121.155 144.186 121.243 144.332 121.3 144.492C121.356 144.651 121.38 144.821 121.368 144.99Z" fill="#FF7622"/>
<path d="M125.191 145.008C125.173 145.249 125.085 145.479 124.938 145.671C124.79 145.862 124.59 146.006 124.361 146.085C124.133 146.163 123.886 146.173 123.652 146.113C123.418 146.053 123.207 145.925 123.045 145.746C122.883 145.567 122.777 145.344 122.74 145.105C122.703 144.866 122.737 144.622 122.838 144.402C122.939 144.182 123.103 143.997 123.308 143.87C123.513 143.742 123.751 143.677 123.993 143.684C124.326 143.704 124.638 143.854 124.862 144.101C125.086 144.349 125.204 144.674 125.191 145.008Z" fill="#FF7622"/>
<path d="M129.008 145.026C128.99 145.267 128.902 145.497 128.755 145.689C128.607 145.88 128.407 146.024 128.178 146.103C127.95 146.181 127.703 146.191 127.469 146.131C127.235 146.071 127.024 145.943 126.862 145.764C126.699 145.585 126.593 145.362 126.557 145.123C126.52 144.884 126.554 144.64 126.655 144.42C126.756 144.2 126.919 144.015 127.125 143.887C127.33 143.76 127.568 143.695 127.81 143.701C128.143 143.722 128.455 143.872 128.679 144.119C128.903 144.367 129.021 144.692 129.008 145.026Z" fill="#FF7622"/>
<path d="M132.825 145.038C132.809 145.279 132.722 145.51 132.575 145.703C132.428 145.895 132.228 146.04 131.999 146.119C131.771 146.199 131.524 146.21 131.289 146.15C131.055 146.09 130.843 145.963 130.68 145.784C130.518 145.605 130.411 145.382 130.374 145.143C130.337 144.904 130.371 144.659 130.472 144.439C130.573 144.219 130.736 144.034 130.941 143.906C131.147 143.778 131.385 143.713 131.627 143.72C131.959 143.74 132.27 143.889 132.494 144.135C132.718 144.381 132.837 144.705 132.825 145.038Z" fill="#FF7622"/>
<path d="M136.649 145.056C136.632 145.296 136.546 145.526 136.401 145.718C136.255 145.91 136.057 146.055 135.83 146.135C135.603 146.216 135.358 146.228 135.124 146.171C134.89 146.114 134.678 145.99 134.514 145.814C134.35 145.637 134.241 145.417 134.2 145.18C134.16 144.943 134.189 144.699 134.286 144.478C134.382 144.258 134.541 144.07 134.742 143.938C134.944 143.807 135.179 143.737 135.42 143.738C135.758 143.75 136.077 143.896 136.307 144.143C136.537 144.39 136.66 144.718 136.649 145.056Z" fill="#FF7622"/>
<path d="M140.465 145.074C140.477 145.243 140.454 145.412 140.398 145.572C140.341 145.732 140.252 145.878 140.137 146.002C140.021 146.126 139.881 146.224 139.726 146.292C139.571 146.359 139.403 146.394 139.234 146.394C139.065 146.394 138.897 146.359 138.742 146.292C138.586 146.224 138.447 146.126 138.331 146.002C138.216 145.878 138.127 145.732 138.07 145.572C138.014 145.412 137.991 145.243 138.003 145.074C137.991 144.905 138.014 144.735 138.07 144.576C138.127 144.416 138.216 144.27 138.331 144.146C138.447 144.022 138.586 143.923 138.742 143.856C138.897 143.788 139.065 143.753 139.234 143.753C139.403 143.753 139.571 143.788 139.726 143.856C139.881 143.923 140.021 144.022 140.137 144.146C140.252 144.27 140.341 144.416 140.398 144.576C140.454 144.735 140.477 144.905 140.465 145.074Z" fill="#FF7622"/>
<path d="M144.283 145.092C144.267 145.332 144.18 145.562 144.035 145.754C143.889 145.946 143.691 146.091 143.464 146.171C143.237 146.252 142.992 146.264 142.758 146.207C142.524 146.15 142.312 146.025 142.148 145.849C141.984 145.673 141.875 145.453 141.835 145.216C141.794 144.979 141.824 144.735 141.92 144.514C142.016 144.293 142.175 144.106 142.377 143.974C142.578 143.843 142.814 143.773 143.054 143.773C143.392 143.786 143.711 143.932 143.941 144.179C144.171 144.426 144.294 144.754 144.283 145.092Z" fill="#FF7622"/>
<path d="M148.1 145.11C148.083 145.351 147.996 145.582 147.849 145.775C147.702 145.967 147.502 146.112 147.274 146.191C147.045 146.271 146.798 146.281 146.564 146.222C146.329 146.162 146.118 146.035 145.955 145.856C145.792 145.677 145.685 145.454 145.648 145.215C145.611 144.976 145.645 144.731 145.746 144.511C145.847 144.291 146.01 144.106 146.216 143.978C146.421 143.85 146.659 143.785 146.901 143.791C147.233 143.812 147.545 143.961 147.769 144.207C147.992 144.453 148.111 144.777 148.1 145.11Z" fill="#FF7622"/>
<g opacity="0.2">
<path opacity="0.2" d="M117.551 144.972C117.533 145.213 117.445 145.444 117.297 145.635C117.15 145.826 116.949 145.97 116.721 146.049C116.492 146.128 116.246 146.137 116.012 146.077C115.777 146.017 115.566 145.889 115.404 145.71C115.242 145.531 115.136 145.308 115.099 145.069C115.063 144.83 115.097 144.586 115.198 144.366C115.299 144.146 115.462 143.961 115.667 143.834C115.872 143.706 116.11 143.641 116.352 143.648C116.686 143.666 116.999 143.816 117.223 144.064C117.448 144.312 117.565 144.638 117.551 144.972Z" fill="white"/>
<path opacity="0.2" d="M121.368 144.99C121.38 145.159 121.356 145.328 121.3 145.488C121.243 145.648 121.155 145.794 121.039 145.918C120.924 146.042 120.784 146.14 120.628 146.208C120.473 146.275 120.306 146.31 120.136 146.31C119.967 146.31 119.799 146.275 119.644 146.208C119.489 146.14 119.349 146.042 119.234 145.918C119.118 145.794 119.029 145.648 118.973 145.488C118.916 145.328 118.893 145.159 118.905 144.99C118.893 144.821 118.916 144.651 118.973 144.492C119.029 144.332 119.118 144.186 119.234 144.062C119.349 143.938 119.489 143.839 119.644 143.772C119.799 143.704 119.967 143.67 120.136 143.67C120.306 143.67 120.473 143.704 120.628 143.772C120.784 143.839 120.924 143.938 121.039 144.062C121.155 144.186 121.243 144.332 121.3 144.492C121.356 144.651 121.38 144.821 121.368 144.99Z" fill="white"/>
<path opacity="0.2" d="M125.191 145.008C125.173 145.249 125.085 145.479 124.937 145.671C124.79 145.862 124.589 146.006 124.361 146.085C124.132 146.163 123.886 146.173 123.652 146.113C123.418 146.053 123.206 145.925 123.044 145.746C122.882 145.567 122.776 145.344 122.739 145.105C122.703 144.866 122.737 144.622 122.838 144.402C122.939 144.182 123.102 143.997 123.307 143.87C123.512 143.742 123.751 143.677 123.992 143.684C124.325 143.704 124.638 143.854 124.862 144.101C125.086 144.349 125.204 144.674 125.191 145.008Z" fill="white"/>
<path opacity="0.2" d="M129.008 145.026C128.99 145.267 128.902 145.498 128.755 145.689C128.607 145.88 128.407 146.024 128.178 146.103C127.95 146.182 127.703 146.191 127.469 146.131C127.235 146.071 127.024 145.943 126.862 145.764C126.699 145.585 126.593 145.362 126.557 145.123C126.52 144.884 126.554 144.64 126.655 144.42C126.756 144.2 126.919 144.015 127.125 143.888C127.33 143.76 127.568 143.695 127.81 143.702C128.143 143.722 128.455 143.872 128.679 144.119C128.903 144.367 129.021 144.692 129.008 145.026Z" fill="white"/>
<path opacity="0.2" d="M132.825 145.038C132.808 145.279 132.721 145.51 132.574 145.703C132.428 145.895 132.227 146.04 131.999 146.119C131.77 146.199 131.523 146.21 131.289 146.15C131.054 146.09 130.843 145.963 130.68 145.784C130.517 145.605 130.411 145.382 130.373 145.143C130.336 144.904 130.37 144.659 130.471 144.439C130.572 144.219 130.735 144.034 130.941 143.906C131.146 143.778 131.385 143.713 131.626 143.72C131.959 143.74 132.27 143.889 132.494 144.135C132.718 144.381 132.836 144.705 132.825 145.038Z" fill="white"/>
<path opacity="0.2" d="M136.648 145.056C136.632 145.296 136.546 145.526 136.4 145.718C136.255 145.91 136.056 146.055 135.829 146.135C135.603 146.216 135.357 146.228 135.123 146.171C134.89 146.114 134.678 145.99 134.513 145.814C134.349 145.637 134.24 145.417 134.2 145.18C134.159 144.943 134.189 144.699 134.285 144.478C134.382 144.258 134.54 144.07 134.742 143.938C134.943 143.807 135.179 143.737 135.42 143.738C135.757 143.75 136.076 143.896 136.306 144.143C136.537 144.39 136.659 144.718 136.648 145.056Z" fill="white"/>
<path opacity="0.2" d="M140.465 145.074C140.477 145.243 140.454 145.412 140.398 145.572C140.341 145.732 140.252 145.878 140.137 146.002C140.021 146.126 139.881 146.224 139.726 146.292C139.571 146.359 139.403 146.394 139.234 146.394C139.065 146.394 138.897 146.359 138.742 146.292C138.586 146.224 138.447 146.126 138.331 146.002C138.216 145.878 138.127 145.732 138.07 145.572C138.014 145.412 137.991 145.243 138.003 145.074C137.991 144.905 138.014 144.735 138.07 144.576C138.127 144.416 138.216 144.27 138.331 144.146C138.447 144.022 138.586 143.923 138.742 143.856C138.897 143.788 139.065 143.753 139.234 143.753C139.403 143.753 139.571 143.788 139.726 143.856C139.881 143.923 140.021 144.022 140.137 144.146C140.252 144.27 140.341 144.416 140.398 144.576C140.454 144.735 140.477 144.905 140.465 145.074Z" fill="white"/>
<path opacity="0.2" d="M144.282 145.092C144.266 145.332 144.18 145.562 144.034 145.754C143.889 145.946 143.691 146.091 143.464 146.171C143.237 146.252 142.991 146.264 142.758 146.207C142.524 146.15 142.312 146.026 142.148 145.85C141.984 145.673 141.875 145.453 141.834 145.216C141.794 144.979 141.823 144.735 141.92 144.514C142.016 144.294 142.175 144.106 142.376 143.974C142.578 143.843 142.813 143.773 143.054 143.774C143.391 143.786 143.71 143.932 143.941 144.179C144.171 144.426 144.294 144.754 144.282 145.092Z" fill="white"/>
<path opacity="0.2" d="M148.1 145.11C148.083 145.351 147.996 145.582 147.849 145.775C147.702 145.967 147.502 146.112 147.274 146.191C147.045 146.271 146.798 146.281 146.564 146.222C146.329 146.162 146.118 146.035 145.955 145.856C145.792 145.677 145.685 145.454 145.648 145.215C145.611 144.976 145.645 144.731 145.746 144.511C145.847 144.291 146.01 144.106 146.216 143.978C146.421 143.85 146.659 143.785 146.901 143.791C147.233 143.812 147.545 143.961 147.769 144.207C147.992 144.453 148.111 144.777 148.1 145.11Z" fill="white"/>
</g>
<path d="M142.677 58.6039C143.093 58.4206 143.446 58.1189 143.692 57.7364C143.938 57.3539 144.067 56.9074 144.061 56.4526C144.076 56.157 144.031 55.8612 143.929 55.5835C143.827 55.3057 143.669 55.0517 143.465 54.8369C143.261 54.6222 143.016 54.4511 142.744 54.3343C142.472 54.2174 142.179 54.1571 141.883 54.1571C141.587 54.1571 141.294 54.2174 141.022 54.3343C140.75 54.4511 140.504 54.6222 140.3 54.8369C140.097 55.0517 139.939 55.3057 139.836 55.5835C139.734 55.8612 139.689 56.157 139.704 56.4526C139.695 56.912 139.822 57.3638 140.07 57.7509C140.317 58.138 140.674 58.4432 141.095 58.6278C137.739 59.1312 137.889 62.7746 137.889 62.7746L145.823 62.8105C145.823 62.8105 146.008 59.1012 142.677 58.6039Z" fill="#FF7622"/>
<path opacity="0.1" d="M142.677 58.6039C143.093 58.4206 143.446 58.1189 143.692 57.7364C143.938 57.3539 144.067 56.9074 144.061 56.4526C144.076 56.157 144.031 55.8612 143.929 55.5835C143.827 55.3057 143.669 55.0517 143.465 54.8369C143.261 54.6222 143.016 54.4511 142.744 54.3343C142.472 54.2174 142.179 54.1571 141.883 54.1571C141.587 54.1571 141.294 54.2174 141.022 54.3343C140.75 54.4511 140.504 54.6222 140.3 54.8369C140.097 55.0517 139.939 55.3057 139.836 55.5835C139.734 55.8612 139.689 56.157 139.704 56.4526C139.695 56.912 139.822 57.3638 140.07 57.7509C140.317 58.138 140.674 58.4432 141.095 58.6278C137.739 59.1312 137.889 62.7746 137.889 62.7746L145.823 62.8105C145.823 62.8105 146.008 59.1012 142.677 58.6039Z" fill="black"/>
<path d="M155.569 65.1604L127.292 65.0321L127.276 68.4118L155.554 68.5401L155.569 65.1604Z" fill="#FF7622"/>
<path opacity="0.2" d="M155.569 65.1604L127.292 65.0321L127.276 68.4118L155.554 68.5401L155.569 65.1604Z" fill="white"/>
<path d="M51.6107 82.6753H51.3291L50.5141 82.7353C50.0731 82.7618 49.6345 82.8198 49.2018 82.909C48.9215 82.9484 48.6435 83.0024 48.3689 83.0708L47.4401 83.3285C45.8592 83.8135 44.3676 84.5522 43.0237 85.5157C41.2481 86.8045 39.7654 88.4547 38.6732 90.3576C38.0313 91.4545 37.5204 92.623 37.1512 93.8391C36.7631 95.1609 36.5397 96.5255 36.486 97.9019C36.4503 98.625 36.4623 99.3497 36.522 100.071C36.522 100.437 36.6238 100.802 36.6718 101.174C36.7121 101.548 36.7822 101.919 36.8815 102.282C37.4204 104.687 38.5137 106.932 40.0743 108.839C41.6349 110.746 43.6196 112.262 45.8701 113.266C47.4988 113.969 49.2446 114.361 51.0175 114.423C52.8486 114.524 54.6815 114.261 56.4106 113.65L56.938 113.452H57.0099L57.0698 113.488L64.6262 117.323L64.4045 117.515C63.5955 115.01 62.8165 112.583 62.0614 110.252V110.162L62.1274 110.096C63.9604 108.25 65.3212 105.989 66.0943 103.505C66.7945 101.234 66.9989 98.8387 66.6935 96.4818C66.4219 94.3871 65.7485 92.3646 64.7101 90.5253C63.815 88.9453 62.6603 87.5273 61.2944 86.3307C60.1675 85.3835 58.9203 84.5897 57.5851 83.9697C56.5749 83.534 55.5228 83.2027 54.4451 82.981L53.2467 82.7832L52.3778 82.7173L51.8504 82.6813H51.6707C51.7304 82.6747 51.7907 82.6747 51.8504 82.6813H52.3838L53.2527 82.7173L54.4511 82.8911C55.5422 83.0966 56.6087 83.4159 57.6331 83.8439C58.9912 84.4564 60.2609 85.2485 61.4083 86.1989C62.7993 87.3902 63.9784 88.8084 64.8958 90.3935C65.9637 92.2526 66.6579 94.3024 66.9392 96.4278C67.2699 98.8211 67.0798 101.258 66.3819 103.571C65.6038 106.107 64.222 108.416 62.3551 110.3L62.391 110.144C63.1461 112.475 63.9311 114.902 64.746 117.401L64.8599 117.767L64.5183 117.593L56.9619 113.764H57.0938L56.5545 113.961C54.7921 114.582 52.9252 114.85 51.0595 114.752C49.2484 114.684 47.4661 114.277 45.8041 113.554C42.634 112.196 39.9965 109.837 38.2957 106.837C37.513 105.451 36.9415 103.956 36.5999 102.402C36.5063 102.029 36.4363 101.651 36.3901 101.27C36.3422 100.892 36.2643 100.521 36.2463 100.149C36.0841 98.0169 36.3095 95.873 36.9115 93.8211C37.2899 92.5883 37.815 91.4053 38.4755 90.2976C39.5937 88.3774 41.1073 86.7168 42.9158 85.4258C44.2819 84.4599 45.7985 83.7269 47.4041 83.2566L48.3449 83.0169C48.6218 82.9527 48.9018 82.9027 49.1838 82.8671C49.6211 82.7861 50.0637 82.7381 50.5082 82.7233L51.3291 82.6933C51.4225 82.6807 51.5166 82.6747 51.6107 82.6753Z" fill="#FF7622"/>
<path d="M55.0266 96.6495H53.918L51.521 93.2818V91.0706C51.521 91.0706 49.8072 90.9627 50.0109 93.857C50.2147 96.7513 50.0109 96.0143 50.0109 96.0143C50.0109 96.0143 46.3736 96.0143 46.074 96.3439C45.7743 96.6735 45.7564 100.185 45.7144 102.144C45.6915 102.617 45.827 103.083 46.0995 103.47C46.372 103.856 46.7659 104.141 47.2185 104.278C47.3454 104.313 47.4764 104.331 47.608 104.332C48.5188 104.332 53.1509 103.595 53.1509 103.595H55.0625L55.0266 96.6495Z" fill="#FF7622"/>
<path d="M58.1963 96.0563L57.5132 103.631H55.6196V96.2121L58.1963 96.0563Z" fill="#FF7622"/>
<path d="M80.7818 250.258V245.134L71.5955 245.068L71.5176 252.817L72.0869 252.859C74.6216 253.02 84.9824 253.26 86.6843 252.733C88.5779 252.145 80.7818 250.258 80.7818 250.258Z" fill="#FF7622"/>
<path d="M86.8998 252.253C86.8998 252.337 83.4602 252.409 79.2236 252.409C74.987 252.409 71.5474 252.337 71.5474 252.253C71.5474 252.169 74.987 252.098 79.2236 252.098C83.4602 252.098 86.8998 252.169 86.8998 252.253Z" fill="#263238"/>
<path d="M80.9436 251.307C80.8657 251.265 80.9436 250.995 81.1293 250.707C81.3151 250.42 81.5668 250.3 81.6267 250.36C81.6866 250.42 81.5608 250.647 81.381 250.893C81.2013 251.139 81.0215 251.348 80.9436 251.307Z" fill="#263238"/>
<path d="M81.5308 251.642C81.4469 251.642 81.4888 251.306 81.6686 250.989C81.8484 250.671 82.0881 250.48 82.154 250.527C82.2199 250.575 82.112 250.845 81.9442 251.127C81.7765 251.408 81.6087 251.672 81.5308 251.642Z" fill="#263238"/>
<path d="M74.3159 252.229C74.28 252.229 74.1421 252.121 73.9444 251.894C73.703 251.601 73.4341 251.332 73.1414 251.091C72.8536 250.861 72.5107 250.71 72.1467 250.653C71.865 250.617 71.6853 250.653 71.6673 250.617C71.6493 250.581 71.8231 250.456 72.1527 250.432C72.5876 250.422 73.0119 250.567 73.3511 250.839C73.669 251.098 73.937 251.413 74.1421 251.768C74.28 252.032 74.3519 252.205 74.3159 252.229Z" fill="#263238"/>
<path d="M80.9734 250.342C81.0153 250.414 80.8595 250.593 80.5958 250.689C80.3322 250.785 80.0985 250.749 80.0865 250.689C80.0745 250.629 80.2603 250.504 80.488 250.42C80.7157 250.336 80.9254 250.27 80.9734 250.342Z" fill="#263238"/>
<path d="M80.8298 249.844C80.8298 249.934 80.5901 250.006 80.2785 250.012C79.9669 250.018 79.7212 249.946 79.7272 249.862C79.7332 249.778 79.9788 249.701 80.2785 249.695C80.5781 249.689 80.8178 249.76 80.8298 249.844Z" fill="#263238"/>
<path d="M103.403 250.258V245.134L94.2166 245.068L94.1387 252.739L94.7079 252.781C97.2427 252.942 107.61 253.26 109.305 252.733C111.199 252.145 103.403 250.258 103.403 250.258Z" fill="#FF7622"/>
<path d="M109.521 252.265C109.521 252.349 106.088 252.421 101.845 252.421C97.6024 252.421 94.1748 252.349 94.1748 252.265C94.1748 252.181 97.6084 252.109 101.845 252.109C106.082 252.109 109.521 252.181 109.521 252.265Z" fill="#263238"/>
<path d="M103.565 251.307C103.493 251.265 103.565 250.995 103.751 250.707C103.937 250.42 104.188 250.3 104.248 250.36C104.308 250.42 104.182 250.647 104.002 250.893C103.823 251.139 103.643 251.348 103.565 251.307Z" fill="#263238"/>
<path d="M104.152 251.642C104.074 251.642 104.11 251.306 104.296 250.989C104.482 250.671 104.715 250.48 104.781 250.527C104.847 250.575 104.733 250.845 104.565 251.127C104.398 251.408 104.236 251.672 104.152 251.642Z" fill="#263238"/>
<path d="M96.937 252.229C96.901 252.229 96.7692 252.121 96.5655 251.894C96.3241 251.601 96.0552 251.332 95.7625 251.091C95.4747 250.861 95.1318 250.71 94.7678 250.653C94.4921 250.617 94.3064 250.653 94.2884 250.617C94.2704 250.581 94.4442 250.456 94.7738 250.432C95.2087 250.422 95.633 250.567 95.9722 250.839C96.2917 251.096 96.56 251.411 96.7632 251.768C96.9011 252.032 96.973 252.205 96.937 252.229Z" fill="#263238"/>
<path d="M103.595 250.342C103.637 250.414 103.481 250.593 103.217 250.689C102.954 250.785 102.72 250.749 102.708 250.689C102.696 250.629 102.882 250.504 103.11 250.42C103.337 250.336 103.547 250.27 103.595 250.342Z" fill="#263238"/>
<path d="M103.463 249.844C103.463 249.934 103.223 250.006 102.912 250.012C102.6 250.018 102.36 249.946 102.366 249.862C102.372 249.778 102.612 249.701 102.912 249.695C103.211 249.689 103.463 249.76 103.463 249.844Z" fill="#263238"/>
<path d="M137.248 98.1116C137.008 97.866 136.415 97.9858 136.415 97.9858C136.474 97.6408 136.474 97.2881 136.415 96.9431C136.307 96.6076 135.552 96.6735 135.552 96.6735C135.517 96.3909 135.517 96.1051 135.552 95.8226C135.558 95.7599 135.545 95.697 135.514 95.6423C135.482 95.5876 135.435 95.5438 135.378 95.5169C135.021 95.3713 134.637 95.3019 134.252 95.3132C133.79 94.9836 135.66 92.365 136.355 91.526C137.05 90.6871 136.924 90.0339 136.307 90.0339C135.882 90.0339 133.7 92.5507 133.029 93.3957C132.358 94.2406 130.578 96.5896 130.518 94.714C130.459 92.8384 129.704 91.4242 129.23 91.1845C128.757 90.9448 128.253 91.5081 128.511 92.0294C128.737 92.6217 128.879 93.2431 128.931 93.875C128.996 94.3784 128.973 94.8893 128.865 95.3851C128.666 96.3077 128.395 97.2133 128.056 98.0937H128.008C128.008 98.0937 114.932 110.636 113.986 111.529C113.141 112.332 96.1463 110.576 92.7366 110.216C91.578 110.047 90.408 109.967 89.237 109.977C87.7569 110.042 87.4933 110.252 86.0191 110.27C82.2964 110.311 78.5822 110.638 74.9093 111.247C73.2462 111.53 71.6927 112.264 70.4183 113.369C69.1439 114.474 68.1975 115.909 67.6825 117.515C64.2489 128.241 56.4708 153.631 55.0985 167.893C54.0616 169.773 53.1254 171.707 52.2941 173.687C51.3293 176.312 51.563 176.402 51.8866 176.462C52.7615 176.624 53.7562 171.914 54.1278 173.052C54.4993 174.191 52.2402 178.667 53.157 178.799C54.3555 178.967 55.3083 174.005 55.4221 173.609C55.536 173.214 56.1292 173.34 56.0214 173.711C55.8476 174.239 54.1637 179.83 55.3382 180.009C55.9854 180.105 56.0573 178.925 56.0573 178.925C56.0573 178.925 57.2558 173.574 57.8011 173.681C58.3464 173.789 57.7651 176.947 57.4895 178.002C57.2138 179.057 57.5973 179.59 58.1606 179.332C58.5441 179.152 59.461 175.947 59.7127 174.904C59.9643 173.861 60.5935 170.973 61.4384 172.645C62.2834 174.317 63.5657 175.287 64.0931 175.311C64.2119 175.298 64.3239 175.249 64.4147 175.171C64.5054 175.093 64.5708 174.99 64.6024 174.874C64.634 174.759 64.6303 174.637 64.5919 174.523C64.5534 174.41 64.482 174.311 64.3867 174.239C63.9331 173.796 63.5438 173.292 63.2302 172.741C62.9506 172.311 62.7479 171.837 62.6309 171.338C62.3895 170.344 62.2489 169.328 62.2115 168.306L62.1156 167.707C63.4579 161.061 67.323 141.556 72.9019 129.098L75.1909 133.808L76.1857 137.296L70.0854 152.355L96.1043 152.013L92.2213 137.068L96.9372 121.488C102.037 121.602 115.13 121.793 117.311 120.805C120.056 119.606 134.252 101.677 134.252 101.677C135.177 100.958 136.063 100.19 136.906 99.376C136.906 99.376 137.769 98.651 137.248 98.1116Z" fill="#FFBE9D"/>
<path d="M68.941 141.227C69.6961 138.65 73.5731 125.91 73.5731 125.91C73.5731 125.91 75.4787 136.295 74.9754 137.547C74.5123 138.62 73.9653 139.653 73.3394 140.639C68.941 147.333 69.5163 150.683 69.5163 150.683L96.0925 149.874C96.1524 146.158 93.9532 137.517 93.4978 136.139C93.0423 134.761 94.5584 130.249 94.5584 130.249C94.5584 130.249 97.5546 127.199 97.4467 125.629C97.3898 124.218 97.2154 122.815 96.9254 121.434L113.105 122.033L112.595 111.067L89.357 108.742C88.5481 111.025 81.2314 109.905 81.2314 109.905C73.3334 110.168 72.8421 111.618 69.5583 114.171C66.2744 116.724 60.8394 138.632 60.8394 138.632L68.941 141.227Z" fill="#FF7622"/>
<path d="M84.6531 138.632C84.1926 138.714 83.7235 138.738 83.2569 138.704C82.388 138.704 81.1955 138.644 79.8832 138.512C78.5709 138.38 77.3844 138.195 76.5395 138.027C76.0736 137.967 75.6168 137.85 75.1792 137.679C75.6477 137.679 76.1152 137.724 76.5754 137.811C77.4263 137.919 78.6068 138.069 79.9132 138.201C81.2195 138.332 82.406 138.422 83.2629 138.482C83.73 138.488 84.1955 138.538 84.6531 138.632Z" fill="#263238"/>
<path d="M86.4747 136.373C86.014 136.599 85.5268 136.766 85.0246 136.87C82.6338 137.498 80.1673 137.791 77.6959 137.739C77.1845 137.756 76.6731 137.708 76.1738 137.595C76.6785 137.532 77.1873 137.506 77.6959 137.517C78.6367 137.488 79.931 137.422 81.3572 137.254C82.7834 137.086 84.0538 136.846 84.9526 136.655C85.4519 136.521 85.9608 136.427 86.4747 136.373Z" fill="#263238"/>
<path d="M95.4154 126.294C95.4033 126.751 95.341 127.205 95.2297 127.648C95.0739 128.481 94.8342 129.619 94.5285 130.866C94.2229 132.112 93.9293 133.263 93.6656 134.042C93.5596 134.488 93.4028 134.92 93.1982 135.33C93.2316 134.875 93.3161 134.424 93.4499 133.988C93.6776 133.053 93.9353 131.974 94.2229 130.794C94.5106 129.613 94.7862 128.535 95.0139 127.6C95.095 127.15 95.2298 126.712 95.4154 126.294Z" fill="#263238"/>
<path d="M69.2224 139.699C67.8361 139.485 66.468 139.166 65.1296 138.746C63.7621 138.426 62.4201 138.005 61.1147 137.487C62.5004 137.705 63.8683 138.023 65.2075 138.44C66.5754 138.759 67.9174 139.179 69.2224 139.699Z" fill="#263238"/>
<path d="M97.2127 121.302C96.9867 121.341 96.7557 121.341 96.5296 121.302C95.9037 121.238 95.2891 121.091 94.7019 120.865C93.7217 120.496 92.8293 119.927 92.0821 119.193C91.3349 118.459 90.7495 117.577 90.3635 116.604C89.9368 115.533 89.7545 114.381 89.8301 113.23C89.8569 112.282 90.1406 111.358 90.6511 110.558C91.0102 110.019 91.5465 109.622 92.1672 109.437C92.333 109.391 92.5045 109.369 92.6765 109.371C92.7964 109.371 92.8563 109.371 92.8563 109.371C92.8563 109.371 92.6046 109.371 92.2031 109.533C91.6337 109.743 91.1508 110.138 90.8309 110.654C90.0159 111.936 89.7882 114.279 90.6571 116.466C91.0615 117.497 91.6946 118.424 92.5087 119.175C93.1758 119.789 93.9442 120.284 94.7798 120.637C95.5641 120.947 96.3799 121.17 97.2127 121.302Z" fill="#263238"/>
<path d="M111.181 121.817C111.031 119.98 110.983 118.135 111.037 116.292C110.99 114.451 111.046 112.609 111.205 110.773C111.355 112.609 111.403 114.452 111.349 116.292C111.399 118.136 111.343 119.98 111.181 121.817Z" fill="#263238"/>
<path d="M89.2012 109.413C89.2671 108.077 89.405 106.567 89.405 106.567C89.405 106.567 92.7128 106.201 92.9105 102.786C93.1083 99.3701 92.9105 91.4901 92.9105 91.4901L86.9181 88.422L80.2666 93.6533L81.2913 110.732L87.3915 111.121C87.8578 111.134 88.3102 110.961 88.6494 110.641C88.9887 110.321 89.1871 109.88 89.2012 109.413Z" fill="#FFBE9D"/>
<path d="M89.7945 100.083C89.7945 100.083 89.7945 100.149 89.7406 100.227C89.696 100.283 89.6383 100.328 89.5726 100.357C89.5068 100.387 89.4349 100.399 89.3631 100.395C88.9796 100.395 88.608 99.9512 88.4762 99.4359C88.4135 99.1861 88.4135 98.9246 88.4762 98.6748C88.4885 98.5658 88.5278 98.4616 88.5906 98.3716C88.6534 98.2816 88.7376 98.2087 88.8357 98.1595C88.9163 98.1262 89.0068 98.1262 89.0874 98.1595C89.1472 98.1892 89.1956 98.2376 89.2252 98.2973C89.2672 98.3992 89.2252 98.4651 89.2252 98.4591C89.2252 98.4531 89.2252 98.3992 89.1653 98.3393C89.134 98.2963 89.0879 98.2665 89.036 98.2554C88.984 98.2444 88.9298 98.2529 88.8837 98.2793C88.8102 98.3238 88.7491 98.3861 88.7061 98.4605C88.6632 98.5349 88.6397 98.6189 88.638 98.7048C88.5875 98.9277 88.5875 99.159 88.638 99.3819C88.7578 99.8493 89.0814 100.227 89.3691 100.263C89.4253 100.27 89.4826 100.266 89.5372 100.251C89.5919 100.235 89.6427 100.209 89.6866 100.173C89.7586 100.125 89.7825 100.077 89.7945 100.083Z" fill="#EB996E"/>
<path d="M94.9657 89.6444C94.5043 88.0744 92.8325 87.2954 91.3104 86.8639C88.9913 86.2048 86.4865 85.9171 84.2214 86.7501C81.9563 87.583 79.2358 89.0451 79.2358 91.544C77.8995 91.4361 77.1324 92.6046 76.6051 94.0548C76.268 94.9383 76.066 95.8675 76.0059 96.8113C75.8381 100.083 74.9213 104.601 72.8 106.998C71.6015 108.335 69.9416 109.257 69.2585 110.923C68.6592 112.367 68.9708 114.081 68.4135 115.543C67.9162 116.832 66.8196 117.749 66.0166 118.869C65.1985 120.14 64.7171 121.599 64.6175 123.107C64.5179 124.616 64.8035 126.124 65.4473 127.492C66.0958 128.825 67.0088 130.012 68.1307 130.98C69.2526 131.948 70.5599 132.678 71.973 133.125C74.7721 133.977 77.7569 134.006 80.5721 133.209C82.6848 132.704 84.6557 131.726 86.3367 130.351C88.0567 128.946 89.2381 126.99 89.6805 124.814C90.1059 122.369 89.4228 119.882 88.9134 117.449C87.3195 109.761 87.7749 109.359 89.7883 102.222C89.8363 102.097 89.8602 101.965 89.8962 101.839C89.9321 101.713 89.9501 101.653 89.9741 101.557C90.0313 101.275 90.0614 100.988 90.064 100.7C89.7699 100.81 89.4507 100.833 89.1439 100.767C88.8371 100.701 88.5555 100.549 88.3322 100.329C88.1083 100.094 87.9522 99.8026 87.8805 99.4861C87.8088 99.1696 87.824 98.8396 87.9247 98.5311C88.0661 98.1936 88.2768 97.8897 88.5431 97.6388C88.8094 97.388 89.1254 97.1959 89.4707 97.0749C90.1359 96.7993 90.849 96.6555 91.5021 96.3498C92.8864 95.6907 93.8452 94.3244 94.4983 92.8922C95.0353 91.8996 95.2011 90.7481 94.9657 89.6444Z" fill="#263238"/>
<path d="M90.0343 100.245C90.1609 100.432 90.2654 100.633 90.3459 100.844C90.5256 101.222 90.7653 101.755 91.029 102.372L91.0769 102.486H90.9511L90.3519 102.54C89.9384 102.54 89.5908 102.618 89.1833 102.612C89.1479 102.604 89.115 102.587 89.0877 102.563C89.0605 102.539 89.0398 102.508 89.0275 102.474C89.0097 102.42 89.0097 102.361 89.0275 102.306C89.0414 102.225 89.0594 102.145 89.0815 102.067L89.1893 101.641C89.2435 101.357 89.3279 101.08 89.441 100.814C89.4299 101.103 89.3877 101.391 89.3152 101.671L89.2313 102.097C89.2013 102.24 89.1474 102.462 89.2313 102.444C89.5309 102.444 89.9564 102.378 90.3519 102.354L90.9511 102.3L90.8732 102.432C90.6155 101.833 90.3998 101.27 90.274 100.88C90.1636 100.681 90.0828 100.467 90.0343 100.245Z" fill="#FF7622"/>
<path d="M69.5161 150.683L96.0922 149.874L107.658 195.02L105.53 246.806H91.4781L93.1979 196.123L82.921 164.693L84.503 248.814L70.3011 249.023L68.809 169.954C68.7431 167.755 68.024 162.799 68.2936 160.618L69.5161 150.683Z" fill="#263238"/>
<path d="M86.4565 165.334C86.0215 165.361 85.5847 165.335 85.1561 165.256C84.3531 165.16 83.2565 164.992 82.0521 164.753C80.8476 164.513 79.769 164.237 78.99 164.016C78.5736 163.924 78.1707 163.779 77.7915 163.584C77.7915 163.494 79.745 163.962 82.142 164.447C84.5389 164.932 86.4684 165.244 86.4565 165.334Z" fill="#7D7C7C"/>
<path d="M105.386 243.966C105.386 244.05 102.204 244.122 98.2795 244.122C94.3544 244.122 91.1665 244.05 91.1665 243.966C91.1665 243.882 94.3485 243.81 98.2795 243.81C102.21 243.81 105.386 243.876 105.386 243.966Z" fill="#7D7C7C"/>
<path d="M84.3771 246.627C84.3771 246.716 81.285 246.782 77.4739 246.782C73.6627 246.782 70.5767 246.716 70.5767 246.627C70.5767 246.537 73.6687 246.471 77.4739 246.471C81.279 246.471 84.3771 246.543 84.3771 246.627Z" fill="#7D7C7C"/>
<path d="M82.5436 246.411C82.4597 246.411 82.0882 228.032 81.7107 205.363C81.3332 182.694 81.1114 164.303 81.1894 164.303C81.2673 164.303 81.6508 182.676 82.0223 205.357C82.3938 228.038 82.6335 246.411 82.5436 246.411Z" fill="#7D7C7C"/>
<path d="M103.499 243.966C103.492 243.884 103.492 243.802 103.499 243.72V243.001C103.499 242.354 103.547 241.425 103.583 240.245C103.667 237.848 103.786 234.366 103.936 230.099C104.26 221.518 104.715 209.689 105.213 196.632C105.213 196.506 105.213 196.386 105.213 196.279V196.32C102.067 183.737 99.2202 172.315 97.1529 164.052L94.7559 154.278C94.4803 153.133 94.2705 152.241 94.1207 151.617C94.0488 151.324 94.0009 151.096 93.9589 150.922C93.9356 150.844 93.9215 150.764 93.917 150.683C93.9481 150.758 93.9722 150.836 93.9889 150.916C94.0368 151.084 94.0968 151.312 94.1806 151.599C94.3424 152.199 94.5761 153.11 94.8758 154.248C95.475 156.561 96.3199 159.893 97.3746 163.998C99.4599 172.255 102.336 183.647 105.524 196.249V196.291C105.524 196.398 105.524 196.524 105.524 196.644C104.991 209.701 104.505 221.524 104.152 230.105C103.966 234.378 103.81 237.836 103.703 240.245C103.643 241.443 103.595 242.354 103.565 243.001C103.565 243.307 103.529 243.546 103.523 243.72C103.524 243.803 103.516 243.885 103.499 243.966Z" fill="#7D7C7C"/>
<path d="M98.9146 195.224C97.9053 195.556 96.8655 195.787 95.8105 195.913C94.5162 196.135 93.4136 196.291 92.9162 196.314V196.195C93.078 196.243 93.1619 196.273 93.1619 196.297C93.1619 196.32 93.06 196.297 92.8923 196.297H92.5327L92.8923 196.189C93.3597 196.051 94.4623 195.823 95.7566 195.589C96.7947 195.364 97.8525 195.242 98.9146 195.224Z" fill="#7D7C7C"/>
<path d="M98.6689 196.944C97.7342 196.987 96.7975 196.944 95.8704 196.818C94.9344 196.799 94.0019 196.696 93.084 196.512C94.9567 196.359 96.8418 196.505 98.6689 196.944Z" fill="#7D7C7C"/>
<path opacity="0.2" d="M69.4023 151.635C69.7171 152.04 70.1135 152.373 70.5658 152.613C71.018 152.854 71.5159 152.996 72.027 153.032C73.0973 153.158 74.18 153.138 75.2449 152.972C82.1062 152.211 89.3749 151.51 96.0923 149.874C87.3974 150.359 78.2111 150.197 69.5162 150.683L69.4263 151.426" fill="black"/>
<g opacity="0.2">
<path opacity="0.2" d="M78.3608 163.89L83.2626 182.91L82.921 164.693L78.3608 163.89Z" fill="black"/>
</g>
</g>
<defs>
<filter id="filter0_d_551_8570" x="0" y="0" width="264" height="259.284" filterUnits="userSpaceOnUse" color-interpolation-filters="sRGB">
<feFlood flood-opacity="0" result="BackgroundImageFix"/>
<feColorMatrix in="SourceAlpha" type="matrix" values="0 0 0 0 0 0 0 0 0 0 0 0 0 0 0 0 0 0 127 0" result="hardAlpha"/>
<feOffset dx="2" dy="2"/>
<feGaussianBlur stdDeviation="2"/>
<feComposite in2="hardAlpha" operator="out"/>
<feColorMatrix type="matrix" values="0 0 0 0 0 0 0 0 0 0 0 0 0 0 0 0 0 0 0.25 0"/>
<feBlend mode="normal" in2="BackgroundImageFix" result="effect1_dropShadow_551_8570"/>
<feBlend mode="normal" in="SourceGraphic" in2="effect1_dropShadow_551_8570" result="shape"/>
</filter>
<filter id="filter1_d_551_8570" x="161.737" y="4.7981" width="57.916" height="67.7025" filterUnits="userSpaceOnUse" color-interpolation-filters="sRGB">
<feFlood flood-opacity="0" result="BackgroundImageFix"/>
<feColorMatrix in="SourceAlpha" type="matrix" values="0 0 0 0 0 0 0 0 0 0 0 0 0 0 0 0 0 0 127 0" result="hardAlpha"/>
<feOffset dy="4"/>
<feGaussianBlur stdDeviation="2"/>
<feComposite in2="hardAlpha" operator="out"/>
<feColorMatrix type="matrix" values="0 0 0 0 0 0 0 0 0 0 0 0 0 0 0 0 0 0 0.25 0"/>
<feBlend mode="normal" in2="BackgroundImageFix" result="effect1_dropShadow_551_8570"/>
<feBlend mode="normal" in="SourceGraphic" in2="effect1_dropShadow_551_8570" result="shape"/>
</filter>
</defs>
</svg>
