<svg width="239" height="195" viewBox="0 0 239 195" fill="none" xmlns="http://www.w3.org/2000/svg">
<g filter="url(#filter0_d_551_2602)">
<path d="M35.8276 171.508C80.9444 194.465 154.06 194.465 199.166 171.508C244.273 148.551 244.283 111.344 199.166 88.387C154.05 65.43 80.9338 65.4351 35.8276 88.387C-9.27854 111.339 -9.27323 148.556 35.8276 171.508Z" fill="#F5F5F5"/>
<path d="M22.4466 134.911H24.3468C25.2177 132.078 25.7886 129.166 26.0506 126.219C26.4646 120.765 23.7523 112.414 18.7841 109.617C13.816 106.82 11.1249 110.279 12.7916 113.236C14.4582 116.194 20.0793 124.606 20.1536 131.845L22.4466 134.911Z" fill="#FF7622"/>
<path d="M21.9904 134.911H22.5212C23.0398 131.339 23.0398 127.713 22.5212 124.141C21.6613 117.063 19.2728 113.774 17.0541 111.489C17.0055 111.439 16.9385 111.41 16.8678 111.408C16.7972 111.406 16.7286 111.431 16.6772 111.478C16.6258 111.526 16.5958 111.591 16.5939 111.66C16.5919 111.729 16.618 111.795 16.6666 111.846C18.8269 114.064 21.1517 117.269 21.9745 124.198C22.5003 127.75 22.5056 131.357 21.9904 134.911Z" fill="white"/>
<path d="M22.6007 134.911C21.624 130.423 17.1867 125.087 12.9988 124.167C8.14207 123.133 5.78007 125.63 6.4754 127.786C7.17073 129.942 11.0083 130.945 14.7344 132.636C15.9891 133.202 17.136 133.971 18.1262 134.911H22.6007Z" fill="#FF7622"/>
<path d="M20.8334 134.911H21.4013C19.3472 129.88 14.6762 126.292 10.8546 125.961C10.82 125.957 10.785 125.961 10.7517 125.971C10.7184 125.98 10.6875 125.997 10.6608 126.018C10.6341 126.04 10.6121 126.067 10.5961 126.097C10.5802 126.127 10.5706 126.16 10.568 126.194C10.5635 126.228 10.5663 126.262 10.5761 126.295C10.5859 126.327 10.6026 126.358 10.625 126.384C10.6474 126.41 10.6751 126.432 10.7064 126.447C10.7377 126.462 10.7719 126.471 10.8068 126.473C14.4162 126.788 18.827 130.159 20.8334 134.911Z" fill="white"/>
<path d="M193.944 87.6062L197.919 89.6382L198.254 87.2132C196.285 81.8049 197.903 75.6727 200.032 73.1184C202.16 70.5642 201.752 68.6873 200.982 67.8497C200.212 67.0121 197.293 66.3761 194.406 69.6645C191.518 72.953 190.855 76.9446 191.338 80.9724C191.646 83.4904 193.004 86.0757 193.944 87.6062Z" fill="#FF7622"/>
<path opacity="0.2" d="M193.944 87.6062L197.919 89.6382L198.254 87.2132C196.285 81.8049 197.903 75.6727 200.032 73.1184C202.16 70.5642 201.752 68.6873 200.982 67.8497C200.212 67.0121 197.293 66.3761 194.406 69.6645C191.518 72.953 190.855 76.9446 191.338 80.9724C191.646 83.4904 193.004 86.0757 193.944 87.6062Z" fill="black"/>
<path d="M195.584 88.4438L196.369 88.8471C196.361 88.8326 196.353 88.8188 196.343 88.8058C195.217 87.5028 193.763 81.1224 194.373 77.3841C195.127 72.7669 197.558 69.7525 199.639 68.4754C199.664 68.4601 199.686 68.44 199.704 68.4162C199.721 68.3925 199.733 68.3656 199.74 68.3371C199.746 68.3086 199.747 68.2792 199.741 68.2505C199.736 68.2219 199.724 68.1946 199.708 68.1703C199.674 68.1209 199.622 68.0862 199.563 68.0736C199.503 68.0611 199.441 68.0716 199.389 68.1031C197.266 69.4319 194.697 72.5497 193.917 77.3169C193.354 80.7967 194.48 86.3084 195.584 88.4438Z" fill="white"/>
<path d="M197.999 78.3769C199.162 81.1535 199.156 82.5133 197.261 82.7977C195.552 83.0459 193.477 85.0675 195.404 88.3508L206.678 94.1107C206.706 93.4969 206.862 92.895 207.135 92.3414C207.409 91.7878 207.795 91.2939 208.27 90.8895C210.122 89.085 211.831 87.7252 211.566 85.719C211.301 83.7129 209.512 81.7791 209.215 80.0315C208.917 78.2838 209.83 77.2859 211.778 75.3263C213.726 73.3667 215.494 70.3264 212.893 68.9408C210.292 67.5551 207.314 69.9283 206.072 71.526C204.83 73.1237 203.695 73.8269 201.248 73.6924C198.801 73.558 196.837 75.6004 197.999 78.3769Z" fill="#FF7622"/>
<path d="M201.189 91.3082C201.136 82.7872 207.404 72.8082 210.892 70.7917C210.943 70.7597 210.98 70.7097 210.995 70.652C211.01 70.5943 211.001 70.5333 210.971 70.4815C210.939 70.4317 210.889 70.3959 210.831 70.3814C210.772 70.367 210.711 70.375 210.658 70.4039C207.123 72.4721 200.801 82.4563 200.732 91.0859L201.189 91.3082Z" fill="white"/>
<path d="M202.866 82.4512C202.818 82.4619 202.768 82.4565 202.724 82.4358C202.679 82.4152 202.643 82.3805 202.622 82.3375C201.609 80.4972 200.757 78.5774 200.074 76.5982C200.065 76.5704 200.062 76.5411 200.064 76.512C200.067 76.4829 200.075 76.4545 200.089 76.4286C200.103 76.4027 200.122 76.3797 200.145 76.3609C200.168 76.342 200.194 76.3278 200.223 76.319C200.251 76.3102 200.281 76.3069 200.311 76.3094C200.341 76.3119 200.37 76.3201 200.397 76.3336C200.423 76.347 200.447 76.3654 200.466 76.3878C200.486 76.4101 200.5 76.4359 200.509 76.4638C201.186 78.4155 202.028 80.3092 203.025 82.1255C203.054 82.1784 203.059 82.24 203.042 82.297C203.024 82.3541 202.984 82.402 202.93 82.4305L202.866 82.4512Z" fill="white"/>
<path d="M201.359 87.6734C201.315 87.6812 201.27 87.6771 201.229 87.6616C201.188 87.6461 201.152 87.6197 201.125 87.5855C201.09 87.536 201.077 87.4751 201.088 87.4161C201.099 87.357 201.133 87.3045 201.184 87.2701C203.469 85.7112 206.242 84.9797 209.023 85.2019C209.084 85.2094 209.139 85.2401 209.176 85.2871C209.213 85.3341 209.23 85.3937 209.222 85.4526C209.215 85.5116 209.183 85.5652 209.135 85.6015C209.087 85.6379 209.025 85.6541 208.965 85.6465C206.302 85.4491 203.65 86.1442 201.449 87.6165C201.423 87.6411 201.392 87.6605 201.359 87.6734Z" fill="white"/>
<path d="M134.745 35.6221L121.81 28.3472L108.88 35.6221L121.81 42.8969L134.745 35.6221Z" fill="#F5F5F5"/>
<path d="M121.81 57.4519L134.745 50.177V35.6221L121.81 42.897V57.4519Z" fill="#EBEBEB"/>
<path d="M124.304 52.6226C124.236 52.6238 124.168 52.6078 124.108 52.5761C124.025 52.5173 123.959 52.439 123.917 52.3485C123.874 52.258 123.856 52.1584 123.864 52.059V50.5079V50.3941H123.943L125.185 49.6858V51.4076C125.184 51.6293 125.127 51.8474 125.021 52.0436C124.915 52.2397 124.762 52.4081 124.575 52.5347C124.495 52.5876 124.401 52.618 124.304 52.6226ZM124.065 50.6216V52.0487C124.056 52.1151 124.065 52.1826 124.09 52.245C124.115 52.3073 124.156 52.3625 124.209 52.4055C124.252 52.4242 124.299 52.4312 124.346 52.4257C124.392 52.4203 124.437 52.4025 124.474 52.3744C124.633 52.2664 124.764 52.1236 124.856 51.9575C124.948 51.7914 124.999 51.6066 125.005 51.4179V51.2938H124.543L124.453 50.6889L124.065 50.6216ZM124.702 51.0973H124.989V50.0374L124.246 50.4562L124.612 50.5234L124.702 51.0973Z" fill="white"/>
<path d="M124.527 53.8533C124.5 53.8533 124.475 53.8429 124.456 53.8245C124.437 53.8061 124.426 53.7811 124.426 53.755V52.4624C124.426 52.4493 124.428 52.4362 124.433 52.4239C124.437 52.4117 124.445 52.4005 124.454 52.3913C124.464 52.382 124.475 52.3748 124.487 52.3701C124.5 52.3654 124.513 52.3634 124.527 52.3642C124.553 52.3642 124.579 52.3745 124.598 52.3929C124.617 52.4114 124.627 52.4363 124.627 52.4624V53.7343C124.629 53.7487 124.629 53.7634 124.625 53.7775C124.621 53.7915 124.614 53.8046 124.604 53.8158C124.595 53.827 124.583 53.8362 124.57 53.8426C124.556 53.8491 124.542 53.8527 124.527 53.8533Z" fill="white"/>
<path d="M123.949 54.1789C123.931 54.1788 123.914 54.1739 123.899 54.1648C123.884 54.1556 123.872 54.1426 123.864 54.1272C123.856 54.1166 123.851 54.1046 123.849 54.092C123.847 54.0794 123.848 54.0665 123.851 54.0542C123.855 54.0419 123.861 54.0305 123.87 54.0208C123.878 54.011 123.889 54.0032 123.901 53.9979L125.053 53.3465C125.064 53.34 125.077 53.3358 125.09 53.3341C125.103 53.3324 125.117 53.3333 125.129 53.3366C125.142 53.34 125.154 53.3458 125.165 53.3537C125.175 53.3616 125.184 53.3714 125.191 53.3827C125.203 53.4055 125.206 53.432 125.199 53.4569C125.192 53.4817 125.176 53.5032 125.154 53.5171L123.996 54.1634L123.949 54.1789Z" fill="white"/>
<path d="M128.068 51.9454C128.031 51.9562 127.993 51.9562 127.956 51.9454C127.918 51.92 127.886 51.8852 127.866 51.8443C127.845 51.8035 127.836 51.7581 127.84 51.7127V51.449C127.839 51.4364 127.841 51.4237 127.845 51.4118C127.85 51.3999 127.857 51.389 127.866 51.3798C127.874 51.3706 127.885 51.3633 127.897 51.3583C127.909 51.3533 127.922 51.3507 127.935 51.3508C127.948 51.35 127.962 51.352 127.975 51.3567C127.987 51.3614 127.999 51.3686 128.008 51.3779C128.018 51.3872 128.025 51.3983 128.03 51.4105C128.035 51.4228 128.037 51.4359 128.036 51.449V51.6662C128.036 51.7075 128.036 51.7282 128.036 51.7282C128.036 51.7282 128.068 51.7282 128.1 51.7282C128.161 51.6736 128.21 51.6063 128.242 51.5312C128.274 51.4562 128.289 51.3751 128.285 51.2939V49.598C128.285 49.5853 128.288 49.5728 128.293 49.5611C128.298 49.5495 128.306 49.539 128.315 49.5303C128.325 49.5215 128.336 49.5148 128.348 49.5104C128.36 49.5061 128.373 49.5042 128.386 49.5049C128.412 49.5049 128.436 49.5147 128.454 49.5322C128.472 49.5496 128.482 49.5733 128.482 49.598V51.3249C128.486 51.44 128.462 51.5545 128.414 51.6594C128.365 51.7643 128.292 51.8568 128.2 51.9299C128.158 51.9432 128.113 51.9484 128.068 51.9454Z" fill="white"/>
<path d="M127.017 50.4407V50.2753C127.041 49.8446 127.17 49.4257 127.391 49.0521C127.612 48.6785 127.92 48.3607 128.291 48.1243C128.423 48.0157 128.587 47.9495 128.759 47.9345C128.932 47.9196 129.105 47.9567 129.255 48.0408C129.405 48.1249 129.525 48.252 129.598 48.4047C129.672 48.5575 129.695 48.7286 129.665 48.8947V48.9516L127.017 50.4407ZM128.885 48.145C128.71 48.1504 128.539 48.2022 128.391 48.295C128.076 48.4975 127.809 48.7632 127.608 49.0744C127.406 49.3856 127.275 49.7351 127.224 50.0995L129.464 48.843C129.472 48.721 129.448 48.5989 129.394 48.4884C129.34 48.378 129.258 48.2829 129.156 48.2122C129.073 48.1667 128.98 48.1435 128.885 48.145Z" fill="white"/>
<path d="M131.618 49.9598C131.592 49.9598 131.567 49.9502 131.549 49.9329C131.53 49.9156 131.519 49.8919 131.518 49.8667V46.568C131.518 46.5419 131.528 46.5169 131.547 46.4985C131.566 46.4801 131.591 46.4697 131.618 46.4697C131.645 46.4697 131.67 46.4801 131.689 46.4985C131.708 46.5169 131.718 46.5419 131.718 46.568V49.8667C131.717 49.8919 131.706 49.9156 131.687 49.9329C131.668 49.9502 131.644 49.9598 131.618 49.9598Z" fill="white"/>
<path d="M131.348 47.3177H131.311C131.299 47.3127 131.288 47.3053 131.278 47.296C131.269 47.2868 131.262 47.2759 131.257 47.2638C131.252 47.2518 131.249 47.239 131.25 47.2261C131.25 47.2131 131.252 47.2003 131.258 47.1885L131.613 46.3922L132.006 46.8369C132.015 46.8464 132.021 46.8574 132.025 46.8693C132.029 46.8812 132.03 46.8937 132.029 46.9062C132.028 46.9187 132.025 46.9309 132.019 46.9421C132.013 46.9532 132.005 46.9632 131.996 46.9713C131.986 46.9795 131.974 46.9856 131.962 46.9895C131.95 46.9934 131.937 46.9949 131.924 46.994C131.912 46.993 131.899 46.9896 131.888 46.9839C131.876 46.9783 131.866 46.9705 131.858 46.961L131.666 46.7541L131.438 47.2712C131.429 47.2865 131.416 47.299 131.4 47.3072C131.384 47.3154 131.366 47.3191 131.348 47.3177Z" fill="white"/>
<path d="M132.557 49.4532C132.532 49.4519 132.507 49.4409 132.49 49.4227C132.472 49.4044 132.462 49.3801 132.462 49.3549V46.0562C132.459 46.0418 132.459 46.0268 132.462 46.0123C132.465 45.9979 132.472 45.9843 132.481 45.9727C132.491 45.9611 132.503 45.9518 132.516 45.9453C132.53 45.9389 132.545 45.9355 132.56 45.9355C132.575 45.9355 132.59 45.9389 132.604 45.9453C132.617 45.9518 132.629 45.9611 132.639 45.9727C132.648 45.9843 132.655 45.9979 132.658 46.0123C132.661 46.0268 132.661 46.0418 132.658 46.0562V49.3549C132.658 49.381 132.647 49.406 132.628 49.4244C132.609 49.4428 132.584 49.4532 132.557 49.4532Z" fill="white"/>
<path d="M132.266 46.8059H132.229C132.217 46.8008 132.206 46.7934 132.196 46.7842C132.187 46.775 132.18 46.764 132.175 46.752C132.17 46.74 132.167 46.7272 132.167 46.7142C132.168 46.7013 132.17 46.6885 132.176 46.6766L132.531 45.8804L132.924 46.325C132.942 46.3432 132.951 46.3673 132.951 46.3923C132.951 46.4172 132.942 46.4413 132.924 46.4595C132.905 46.4769 132.879 46.4866 132.852 46.4866C132.826 46.4866 132.8 46.4769 132.781 46.4595L132.595 46.2475L132.367 46.7645C132.356 46.7801 132.341 46.7924 132.323 46.7997C132.305 46.807 132.285 46.8092 132.266 46.8059Z" fill="white"/>
<path d="M121.809 57.4519L108.874 50.177L108.879 35.6221L121.809 42.897V57.4519Z" fill="#E0E0E0"/>
<path d="M116.045 39.655L128.97 32.375L127.51 31.5529L114.58 38.8329L116.045 39.655Z" fill="white"/>
<path d="M110.838 43.9673L115.472 46.5525C115.738 46.7235 115.96 46.9528 116.12 47.2222C116.279 47.4915 116.372 47.7933 116.39 48.1037V50.8854C116.39 51.4593 115.976 51.692 115.472 51.4024L110.838 48.8172C110.571 48.6465 110.349 48.4172 110.19 48.1479C110.03 47.8785 109.938 47.5765 109.92 47.2661V44.4843C109.92 43.9104 110.334 43.6829 110.838 43.9673Z" fill="#FF7622"/>
<path d="M110.482 44.6602L110.657 44.7636V47.8504L110.482 47.7521V44.6602Z" fill="#FF7622"/>
<path d="M111.199 45.0635L111.502 45.2393V48.3261L111.199 48.1554V45.0635Z" fill="#FF7622"/>
<path d="M111.916 45.4667L112.09 45.5649V48.6569L111.916 48.5586V45.4667Z" fill="#FF7622"/>
<path d="M112.452 45.7666L112.807 45.9683V49.0602L112.452 48.8534V45.7666Z" fill="#FF7622"/>
<path d="M113.344 46.2733L113.523 46.3715V49.4635L113.344 49.3601V46.2733Z" fill="#FF7622"/>
<path d="M113.864 46.5576L114.235 46.7748V49.8616L113.858 49.6444L113.864 46.5576Z" fill="#FF7622"/>
<path d="M114.777 47.08L114.951 47.1782V50.265L114.777 50.1667V47.08Z" fill="#FF7622"/>
<path d="M115.185 47.3022L115.275 47.354V50.4407L115.185 50.3942V47.3022Z" fill="#FF7622"/>
<path d="M114.453 46.9093L114.537 46.961V50.0478L114.453 50.0013V46.9093Z" fill="#FF7622"/>
<path d="M113.009 46.0872L113.094 46.1337V49.2256L113.009 49.1739V46.0872Z" fill="#FF7622"/>
<path d="M112.218 45.6425L112.308 45.6942V48.7861L112.218 48.7344V45.6425Z" fill="#FF7622"/>
<path d="M111.65 45.3374L111.74 45.3891V48.4811L111.65 48.4294V45.3374Z" fill="#FF7622"/>
<path d="M110.881 44.8824L110.971 44.9341V48.0261L110.881 47.9744V44.8824Z" fill="#FF7622"/>
<path d="M115.493 47.478L115.668 47.5763V50.6682L115.493 50.57V47.478Z" fill="#FF7622"/>
<path d="M117.5 33.1971L102.404 24.7123L87.314 33.1971L102.404 41.687L117.5 33.1971Z" fill="#F5F5F5"/>
<path d="M95.9338 38.047L111.029 29.5622L109.564 28.7401L94.4741 37.2249L95.9338 38.047Z" fill="white"/>
<path d="M102.404 68.3616L117.499 59.8768V33.197L102.404 41.687V68.3616Z" fill="#EBEBEB"/>
<path d="M104.899 63.5582C104.829 63.5594 104.761 63.5415 104.702 63.5065C104.619 63.4488 104.552 63.3707 104.509 63.2799C104.466 63.1891 104.449 63.0889 104.458 62.9895V61.4383V61.3246H104.543L105.78 60.6162V62.338C105.777 62.5596 105.72 62.7774 105.614 62.9734C105.508 63.1694 105.356 63.338 105.169 63.4652C105.09 63.5198 104.996 63.552 104.899 63.5582ZM104.66 61.5572V62.9843C104.651 63.0507 104.659 63.1182 104.684 63.1806C104.71 63.2429 104.75 63.2981 104.803 63.3411C104.846 63.3598 104.893 63.3668 104.94 63.3613C104.987 63.3558 105.031 63.3381 105.068 63.31C105.227 63.202 105.358 63.0592 105.45 62.8931C105.543 62.727 105.594 62.5422 105.599 62.3535V62.2294H105.137L105.047 61.6245L104.66 61.5572ZM105.297 62.0329H105.61V60.973L104.867 61.397L105.233 61.459L105.297 62.0329Z" fill="white"/>
<path d="M105.121 64.7682C105.094 64.7682 105.069 64.7578 105.05 64.7394C105.031 64.721 105.021 64.696 105.021 64.6699V63.3721C105.02 63.3595 105.023 63.3469 105.028 63.3353C105.033 63.3236 105.041 63.3131 105.05 63.3044C105.06 63.2957 105.071 63.289 105.083 63.2846C105.095 63.2803 105.108 63.2784 105.121 63.2791C105.147 63.279 105.171 63.2887 105.19 63.306C105.209 63.3233 105.22 63.347 105.221 63.3721V64.6699C105.22 64.6956 105.209 64.7199 105.19 64.738C105.172 64.7562 105.147 64.7669 105.121 64.7682Z" fill="white"/>
<path d="M104.548 65.1094C104.531 65.1098 104.514 65.1057 104.499 65.0975C104.484 65.0893 104.472 65.0773 104.463 65.0629C104.451 65.04 104.448 65.0135 104.455 64.9886C104.462 64.9638 104.478 64.9423 104.501 64.9284L105.652 64.2821C105.664 64.2756 105.677 64.2714 105.69 64.2698C105.703 64.2681 105.716 64.2689 105.729 64.2723C105.742 64.2757 105.754 64.2815 105.764 64.2894C105.775 64.2973 105.784 64.3071 105.79 64.3183C105.797 64.3291 105.801 64.3411 105.803 64.3535C105.804 64.366 105.804 64.3786 105.8 64.3907C105.797 64.4027 105.791 64.414 105.783 64.4238C105.775 64.4336 105.765 64.4417 105.753 64.4476L104.596 65.0991C104.582 65.1073 104.565 65.1109 104.548 65.1094Z" fill="white"/>
<path d="M108.662 62.8602C108.623 62.8603 108.585 62.8514 108.551 62.8343C108.512 62.809 108.481 62.7741 108.46 62.7332C108.44 62.6924 108.43 62.647 108.434 62.6016V62.3328C108.434 62.3201 108.436 62.3076 108.441 62.2959C108.447 62.2843 108.454 62.2738 108.464 62.2651C108.473 62.2564 108.484 62.2496 108.496 62.2452C108.509 62.2409 108.522 62.239 108.535 62.2397C108.547 62.2397 108.56 62.2421 108.571 62.2468C108.583 62.2515 108.593 62.2583 108.602 62.267C108.611 62.2756 108.618 62.2859 108.623 62.2972C108.628 62.3084 108.63 62.3206 108.63 62.3328V62.6016C108.63 62.6378 108.63 62.6585 108.63 62.6637C108.63 62.6689 108.662 62.6637 108.694 62.6637C108.756 62.608 108.805 62.5399 108.837 62.4639C108.869 62.388 108.883 62.3062 108.88 62.2242V60.5024C108.88 60.4764 108.89 60.4514 108.909 60.4329C108.928 60.4145 108.954 60.4042 108.98 60.4042C109.007 60.4054 109.032 60.4162 109.05 60.4343C109.069 60.4525 109.08 60.4768 109.081 60.5024V62.2242C109.086 62.34 109.063 62.4552 109.013 62.5604C108.963 62.6656 108.888 62.7577 108.795 62.8291C108.753 62.8492 108.708 62.8598 108.662 62.8602Z" fill="white"/>
<path d="M107.611 61.3556V61.185C107.636 60.7552 107.764 60.3371 107.986 59.9644C108.207 59.5917 108.515 59.2748 108.885 59.0392C109.017 58.9306 109.181 58.8644 109.353 58.8494C109.526 58.8345 109.699 58.8716 109.849 58.9557C109.999 59.0398 110.119 59.1669 110.192 59.3196C110.266 59.4724 110.289 59.6435 110.259 59.8096V59.8665L107.611 61.3556ZM109.479 59.0548C109.304 59.0626 109.134 59.1142 108.986 59.2047C108.67 59.4078 108.402 59.6743 108.201 59.9865C107.999 60.2986 107.869 60.6491 107.818 61.0144L110.058 59.7579C110.066 59.6352 110.042 59.5126 109.988 59.4014C109.934 59.2902 109.852 59.1941 109.75 59.122C109.667 59.078 109.574 59.0549 109.479 59.0548Z" fill="white"/>
<path d="M112.234 60.8748C112.207 60.8748 112.182 60.8644 112.163 60.846C112.144 60.8276 112.133 60.8026 112.133 60.7765V57.4778C112.133 57.4517 112.144 57.4267 112.163 57.4083C112.182 57.3899 112.207 57.3795 112.234 57.3795C112.26 57.3795 112.286 57.3899 112.305 57.4083C112.323 57.4267 112.334 57.4517 112.334 57.4778V60.7765C112.334 60.8026 112.323 60.8276 112.305 60.846C112.286 60.8644 112.26 60.8748 112.234 60.8748Z" fill="white"/>
<path d="M111.942 58.2326H111.905C111.893 58.2281 111.882 58.2212 111.873 58.2125C111.863 58.2037 111.856 58.1932 111.851 58.1816C111.846 58.17 111.844 58.1576 111.844 58.145C111.844 58.1324 111.847 58.12 111.852 58.1085L112.207 57.3123L112.6 57.7569C112.617 57.7761 112.625 57.8011 112.623 57.8263C112.621 57.8515 112.609 57.8749 112.59 57.8913C112.57 57.9078 112.544 57.916 112.518 57.914C112.492 57.9121 112.468 57.9002 112.452 57.881L112.26 57.669L112.032 58.1861C112.023 58.2013 112.01 58.2138 111.994 58.2221C111.978 58.2303 111.96 58.234 111.942 58.2326Z" fill="white"/>
<path d="M113.152 60.3629C113.127 60.3629 113.102 60.3531 113.085 60.3357C113.067 60.3182 113.057 60.2945 113.057 60.2698V56.9711C113.056 56.9584 113.058 56.9458 113.062 56.9339C113.067 56.922 113.074 56.9111 113.083 56.9019C113.092 56.8927 113.102 56.8854 113.114 56.8804C113.126 56.8754 113.139 56.8728 113.152 56.8728C113.165 56.8721 113.179 56.8741 113.191 56.8788C113.204 56.8834 113.215 56.8907 113.225 56.8999C113.234 56.9092 113.241 56.9203 113.246 56.9326C113.251 56.9449 113.253 56.958 113.252 56.9711V60.2698C113.252 60.2825 113.25 60.2951 113.245 60.3067C113.239 60.3183 113.232 60.3288 113.223 60.3376C113.213 60.3463 113.202 60.353 113.19 60.3574C113.178 60.3617 113.165 60.3636 113.152 60.3629Z" fill="white"/>
<path d="M112.866 57.7208H112.823C112.8 57.7096 112.781 57.6901 112.771 57.6662C112.761 57.6423 112.761 57.6157 112.77 57.5915L113.126 56.7953L113.524 57.24C113.541 57.2587 113.55 57.2825 113.55 57.3072C113.55 57.3318 113.541 57.3557 113.524 57.3744C113.515 57.3836 113.504 57.3909 113.491 57.3959C113.479 57.4009 113.466 57.4035 113.452 57.4035C113.439 57.4035 113.426 57.4009 113.414 57.3959C113.401 57.3909 113.39 57.3836 113.381 57.3744L113.195 57.1624L112.967 57.6794C112.956 57.6956 112.941 57.7082 112.923 57.7156C112.905 57.723 112.885 57.7248 112.866 57.7208Z" fill="white"/>
<path d="M102.404 68.3616L87.314 59.8768V33.197L102.404 41.687V68.3616Z" fill="#E0E0E0"/>
<path d="M90.3816 54.329L95.0101 56.9142C95.2779 57.0844 95.5009 57.3134 95.6613 57.5828C95.8217 57.8522 95.915 58.1545 95.9337 58.4654V61.2523C95.9337 61.821 95.5196 62.0537 95.0101 61.7693L90.3816 59.1841C90.114 59.0143 89.8913 58.7852 89.7317 58.5157C89.5721 58.2461 89.4802 57.9437 89.4634 57.6329V54.8512C89.4634 54.2514 89.8774 54.0446 90.3816 54.329Z" fill="#F5F5F5"/>
<path d="M90.0259 55.0217L90.2002 55.1251V58.2119L90.0259 58.1137V55.0217Z" fill="#E0E0E0"/>
<path d="M90.7427 55.4252L91.0452 55.601V58.6929L90.7427 58.5171V55.4252Z" fill="#E0E0E0"/>
<path d="M91.4536 55.8284L91.6332 55.9266L91.628 59.0186L91.4536 58.9203V55.8284Z" fill="#E0E0E0"/>
<path d="M91.9951 56.1283L92.3454 56.3299V59.4219L91.9951 59.2151V56.1283Z" fill="#E0E0E0"/>
<path d="M92.8872 56.6349L93.0615 56.7331V59.8251L92.8872 59.7217V56.6349Z" fill="#E0E0E0"/>
<path d="M93.4019 56.9193L93.7787 57.1365V60.2233L93.4019 60.0061V56.9193Z" fill="#E0E0E0"/>
<path d="M94.3198 57.4364L94.4942 57.5398V60.6266L94.3198 60.5284V57.4364Z" fill="#E0E0E0"/>
<path d="M94.729 57.6639L94.8188 57.7156V60.8076L94.729 60.7559V57.6639Z" fill="#E0E0E0"/>
<path d="M93.9961 57.2709L94.0806 57.3226V60.4094L93.9961 60.3628V57.2709Z" fill="#E0E0E0"/>
<path d="M92.5527 56.4489L92.6373 56.4954V59.5873L92.5527 59.5356V56.4489Z" fill="#E0E0E0"/>
<path d="M91.7617 56.0042L91.8462 56.0559V59.1478L91.7617 59.0961V56.0042Z" fill="#E0E0E0"/>
<path d="M91.1938 55.6991L91.2837 55.7508V58.8428L91.1938 58.7911V55.6991Z" fill="#E0E0E0"/>
<path d="M90.4243 55.2441L90.5141 55.2958V58.3878L90.4243 58.3361V55.2441Z" fill="#E0E0E0"/>
<path d="M95.0366 57.8397L95.211 57.938V61.0299L95.0366 60.9317V57.8397Z" fill="#E0E0E0"/>
<path d="M94.4741 40.6684L95.9338 41.4905V38.047L94.4741 37.2249V40.6684Z" fill="#F0F0F0"/>
<path d="M72.2182 61.0868L61.4379 55.027L46.3477 63.5118L57.1279 69.5768L72.2182 61.0868Z" fill="#F5F5F5"/>
<path d="M57.1279 93.8264L72.2182 85.3416V61.0868L57.1279 69.5767V93.8264Z" fill="#EBEBEB"/>
<path d="M59.6172 89.0022C59.5497 89.0035 59.4832 88.9856 59.4261 88.9505C59.3428 88.8924 59.2764 88.8142 59.2336 88.7235C59.1908 88.6328 59.173 88.5329 59.1819 88.4334V86.8823V86.7685H59.2616L60.5036 86.0602V87.782C60.501 88.0035 60.4443 88.2213 60.3381 88.4173C60.232 88.6133 60.0795 88.7819 59.8932 88.9091C59.8112 88.9633 59.716 88.9954 59.6172 89.0022ZM59.3837 87.0012V88.4283C59.3738 88.4947 59.3818 88.5626 59.4069 88.6251C59.432 88.6876 59.4734 88.7427 59.527 88.785C59.5704 88.8017 59.6173 88.8076 59.6637 88.8022C59.71 88.7968 59.7542 88.7802 59.7923 88.754C59.9513 88.646 60.0821 88.5032 60.1743 88.3371C60.2664 88.171 60.3174 87.9862 60.3231 87.7975V87.6734H59.8614L59.7711 87.0684L59.3837 87.0012ZM60.0206 87.4769H60.3072V86.4118L59.5641 86.8358L59.9304 86.8978L60.0206 87.4769Z" fill="white"/>
<path d="M59.845 90.2329C59.8184 90.2329 59.7929 90.2225 59.774 90.2041C59.7552 90.1857 59.7446 90.1607 59.7446 90.1347V88.8369C59.7446 88.8242 59.7472 88.8117 59.7523 88.8C59.7574 88.7884 59.7649 88.7779 59.7743 88.7692C59.7837 88.7604 59.7948 88.7537 59.807 88.7493C59.8191 88.745 59.8321 88.7431 59.845 88.7438C59.8702 88.7438 59.8944 88.7536 59.9122 88.7711C59.9301 88.7885 59.9401 88.8122 59.9401 88.8369V90.1347C59.9401 90.1598 59.9303 90.1841 59.9126 90.2024C59.8949 90.2206 59.8707 90.2316 59.845 90.2329Z" fill="white"/>
<path d="M59.2671 90.5534C59.2498 90.5544 59.2327 90.5505 59.2176 90.5422C59.2026 90.534 59.1903 90.5217 59.1822 90.5068C59.1745 90.4962 59.1693 90.4841 59.1668 90.4713C59.1642 90.4585 59.1645 90.4454 59.1675 90.4327C59.1705 90.4201 59.1762 90.4082 59.1842 90.3978C59.1922 90.3874 59.2024 90.3787 59.214 90.3724L60.3711 89.7261C60.3826 89.7196 60.3953 89.7154 60.4085 89.7137C60.4216 89.712 60.435 89.7129 60.4478 89.7163C60.4607 89.7196 60.4727 89.7254 60.4832 89.7333C60.4937 89.7412 60.5025 89.7511 60.5091 89.7623C60.5157 89.7731 60.5199 89.7851 60.5216 89.7975C60.5232 89.8099 60.5223 89.8226 60.5188 89.8346C60.5153 89.8467 60.5094 89.858 60.5014 89.8677C60.4933 89.8775 60.4833 89.8856 60.472 89.8915L59.3149 90.543C59.3004 90.5513 59.2837 90.5549 59.2671 90.5534Z" fill="white"/>
<path d="M63.3861 88.3249C63.3474 88.325 63.3092 88.3162 63.2746 88.2991C63.2359 88.2737 63.2047 88.2389 63.1842 88.198C63.1637 88.1572 63.1546 88.1118 63.1579 88.0664V87.7975C63.1579 87.7729 63.1679 87.7492 63.1859 87.7317C63.2038 87.7143 63.2281 87.7045 63.2534 87.7045C63.2664 87.7038 63.2794 87.7057 63.2916 87.71C63.3038 87.7144 63.315 87.7211 63.3244 87.7298C63.3339 87.7385 63.3414 87.749 63.3465 87.7607C63.3517 87.7723 63.3543 87.7849 63.3543 87.7975V88.0664C63.3543 88.1026 63.3543 88.1233 63.3543 88.1285C63.3543 88.1336 63.3861 88.1285 63.418 88.1285C63.4788 88.072 63.5268 88.0037 63.5588 87.9279C63.5908 87.8522 63.6061 87.7708 63.6037 87.689V85.9672C63.6003 85.9528 63.6002 85.9378 63.6035 85.9233C63.6068 85.9089 63.6135 85.8954 63.6229 85.8838C63.6323 85.8722 63.6444 85.8628 63.658 85.8563C63.6717 85.8499 63.6867 85.8466 63.7019 85.8466C63.7171 85.8466 63.7321 85.8499 63.7458 85.8563C63.7595 85.8628 63.7715 85.8722 63.781 85.8838C63.7904 85.8954 63.797 85.9089 63.8003 85.9233C63.8037 85.9378 63.8036 85.9528 63.8001 85.9672V87.689C63.8045 87.8041 63.7814 87.9187 63.7325 88.0237C63.6837 88.1287 63.6106 88.2212 63.5188 88.2939C63.4776 88.314 63.4322 88.3246 63.3861 88.3249Z" fill="white"/>
<path d="M62.335 86.8256V86.655C62.3601 86.2251 62.4885 85.8071 62.7097 85.4344C62.931 85.0617 63.2389 84.7448 63.6088 84.5092C63.7407 84.3994 63.9042 84.3322 64.0769 84.3167C64.2496 84.3012 64.423 84.3382 64.5732 84.4227C64.7234 84.5072 64.843 84.635 64.9155 84.7885C64.9881 84.9419 65.01 85.1135 64.9783 85.2796V85.3365L62.335 86.8256ZM64.2033 84.5247C64.0283 84.5325 63.8583 84.5842 63.7097 84.6747C63.3938 84.8777 63.1262 85.1443 62.9248 85.4564C62.7234 85.7686 62.5929 86.119 62.542 86.4843L64.7819 85.2227C64.7894 85.1008 64.7651 84.9791 64.7112 84.8688C64.6574 84.7585 64.5758 84.6632 64.474 84.5919C64.393 84.5469 64.3019 84.5221 64.2086 84.5195L64.2033 84.5247Z" fill="white"/>
<path d="M66.9578 86.3395C66.9312 86.3395 66.9056 86.3291 66.8868 86.3107C66.868 86.2923 66.8574 86.2673 66.8574 86.2413V82.9425C66.8574 82.9164 66.868 82.8914 66.8868 82.873C66.9056 82.8546 66.9312 82.8442 66.9578 82.8442C66.9844 82.8442 67.0099 82.8546 67.0288 82.873C67.0476 82.8914 67.0582 82.9164 67.0582 82.9425V86.2413C67.0582 86.2673 67.0476 86.2923 67.0288 86.3107C67.0099 86.3291 66.9844 86.3395 66.9578 86.3395Z" fill="white"/>
<path d="M66.6661 83.7232H66.629C66.6169 83.7187 66.606 83.7118 66.5967 83.7031C66.5875 83.6943 66.5802 83.6838 66.5752 83.6722C66.5703 83.6606 66.5678 83.6482 66.5679 83.6356C66.568 83.623 66.5707 83.6106 66.5759 83.5991L66.9315 82.8029L67.3243 83.2475C67.3412 83.2667 67.3495 83.2917 67.3476 83.3169C67.3456 83.3421 67.3334 83.3655 67.3137 83.3819C67.3039 83.3901 67.2926 83.3963 67.2804 83.4002C67.2682 83.4041 67.2553 83.4056 67.2425 83.4046C67.2166 83.4027 67.1926 83.3908 67.1757 83.3716L66.9846 83.1596L66.7563 83.6767C66.7474 83.6919 66.7341 83.7044 66.7181 83.7127C66.7022 83.7209 66.6841 83.7246 66.6661 83.7232Z" fill="white"/>
<path d="M67.8758 85.8276C67.85 85.8277 67.8253 85.818 67.8066 85.8007C67.7879 85.7834 67.7767 85.7597 67.7754 85.7346V82.4358C67.7754 82.4097 67.786 82.3848 67.8048 82.3663C67.8236 82.3479 67.8491 82.3376 67.8758 82.3376C67.8892 82.3368 67.9025 82.3388 67.9151 82.3435C67.9276 82.3482 67.939 82.3554 67.9485 82.3647C67.9579 82.3739 67.9653 82.3851 67.9701 82.3973C67.9748 82.4096 67.9769 82.4227 67.9761 82.4358V85.7346C67.9762 85.7472 67.9735 85.7598 67.9684 85.7714C67.9633 85.7831 67.9558 85.7936 67.9465 85.8023C67.9371 85.811 67.9259 85.8177 67.9138 85.8221C67.9016 85.8265 67.8887 85.8283 67.8758 85.8276Z" fill="white"/>
<path d="M67.5846 83.2062C67.5726 83.2106 67.5594 83.2106 67.5474 83.2062C67.5354 83.2017 67.5244 83.1949 67.5152 83.1861C67.506 83.1773 67.4986 83.1668 67.4937 83.1552C67.4887 83.1436 67.4862 83.1312 67.4863 83.1186C67.4864 83.1061 67.4892 83.0937 67.4943 83.0821L67.85 82.2859L68.2427 82.7306C68.2603 82.7488 68.27 82.7728 68.27 82.7978C68.27 82.8227 68.2603 82.8468 68.2427 82.865C68.2334 82.8742 68.2222 82.8815 68.2099 82.8865C68.1976 82.8915 68.1844 82.8941 68.1711 82.8941C68.1578 82.8941 68.1446 82.8915 68.1323 82.8865C68.12 82.8815 68.1088 82.8742 68.0994 82.865L67.9137 82.653L67.6854 83.17C67.6738 83.1847 67.6582 83.1959 67.6404 83.2023C67.6225 83.2087 67.6032 83.2101 67.5846 83.2062Z" fill="white"/>
<path d="M57.1279 93.8263L46.3477 87.7665V63.5117L57.1279 69.5767V93.8263Z" fill="#E0E0E0"/>
<path d="M51.353 69.7731L52.8127 70.5953V67.1517L51.353 66.3296V69.7731Z" fill="#F5F5F5"/>
<path d="M52.8127 67.1518L67.9082 58.6618L66.4433 57.8397L51.353 66.3297L52.8127 67.1518Z" fill="white"/>
<path d="M52.8126 81.7015L33.4124 70.7917L14.0068 81.7015L33.4124 92.6164L52.8126 81.7015Z" fill="#F5F5F5"/>
<path d="M33.4126 107.166L52.8128 96.2565V81.7015L33.4126 92.6165V107.166Z" fill="#EBEBEB"/>
<path d="M35.9016 102.337C35.8345 102.336 35.7687 102.318 35.7105 102.285C35.6276 102.227 35.5615 102.149 35.5188 102.058C35.476 101.967 35.4579 101.868 35.4664 101.768V100.217V100.103H35.546L36.788 99.3898V101.117C36.7846 101.337 36.7275 101.554 36.6214 101.749C36.5153 101.944 36.3632 102.112 36.1776 102.239C36.096 102.294 36.0008 102.328 35.9016 102.337ZM35.6628 100.336V101.763C35.6533 101.829 35.6616 101.896 35.6867 101.957C35.7118 102.019 35.753 102.073 35.8061 102.115C35.8495 102.134 35.8975 102.142 35.945 102.137C35.9926 102.133 36.038 102.116 36.0768 102.089C36.2351 101.98 36.3655 101.837 36.4576 101.671C36.5497 101.505 36.601 101.321 36.6076 101.132V101.003H36.1299L36.0396 100.398L35.6628 100.336ZM36.2997 100.812H36.6076V99.7517L35.8698 100.176L36.236 100.238L36.2997 100.812Z" fill="white"/>
<path d="M36.1241 103.568C36.1116 103.568 36.0992 103.565 36.0877 103.561C36.0762 103.556 36.0657 103.549 36.0569 103.54C36.048 103.532 36.041 103.521 36.0362 103.51C36.0315 103.499 36.029 103.487 36.029 103.475V102.177C36.0256 102.162 36.0255 102.147 36.0288 102.133C36.0321 102.118 36.0387 102.105 36.0481 102.093C36.0575 102.082 36.0694 102.072 36.0831 102.066C36.0967 102.059 36.1116 102.056 36.1267 102.056C36.1419 102.056 36.1568 102.059 36.1704 102.066C36.184 102.072 36.196 102.082 36.2054 102.093C36.2148 102.105 36.2214 102.118 36.2247 102.133C36.228 102.147 36.2279 102.162 36.2245 102.177V103.475C36.2245 103.487 36.2219 103.5 36.2168 103.511C36.2117 103.523 36.2042 103.534 36.1948 103.542C36.1854 103.551 36.1743 103.558 36.1621 103.562C36.15 103.566 36.137 103.568 36.1241 103.568Z" fill="white"/>
<path d="M35.5462 103.888C35.5249 103.887 35.5047 103.879 35.4882 103.866C35.4718 103.853 35.4601 103.835 35.4548 103.815C35.4495 103.795 35.4509 103.773 35.4587 103.754C35.4666 103.735 35.4805 103.718 35.4984 103.707L36.6555 103.061C36.6661 103.054 36.6781 103.048 36.6908 103.046C36.7035 103.044 36.7166 103.044 36.7292 103.047C36.7418 103.05 36.7535 103.055 36.7637 103.063C36.7739 103.071 36.7823 103.081 36.7882 103.092C36.7959 103.103 36.8011 103.115 36.8036 103.127C36.8062 103.14 36.8059 103.153 36.8029 103.166C36.7999 103.179 36.7942 103.191 36.7862 103.201C36.7782 103.211 36.768 103.22 36.7564 103.226L35.5993 103.888H35.5462Z" fill="white"/>
<path d="M39.6651 101.665C39.6301 101.672 39.5938 101.672 39.5589 101.665C39.5183 101.64 39.4856 101.604 39.4641 101.562C39.4426 101.521 39.4331 101.474 39.4368 101.427V101.163C39.4368 101.137 39.4474 101.112 39.4663 101.094C39.4853 101.075 39.5109 101.065 39.5377 101.065C39.5644 101.065 39.5901 101.075 39.609 101.094C39.6279 101.112 39.6385 101.137 39.6385 101.163V101.427C39.6312 101.449 39.6312 101.472 39.6385 101.494C39.6385 101.494 39.6704 101.494 39.7075 101.494C39.7674 101.437 39.8144 101.369 39.8455 101.293C39.8766 101.217 39.891 101.136 39.888 101.055V99.333C39.8893 99.3073 39.9003 99.2831 39.9189 99.2649C39.9376 99.2467 39.9625 99.236 39.9888 99.2347C40.0156 99.2347 40.0412 99.2451 40.0601 99.2635C40.0791 99.2819 40.0897 99.3069 40.0897 99.333V101.055C40.094 101.17 40.0709 101.285 40.0221 101.389C39.9733 101.494 39.9001 101.587 39.8084 101.66C39.7617 101.672 39.7126 101.674 39.6651 101.665Z" fill="white"/>
<path d="M38.6196 100.16V99.9897C38.6427 99.5594 38.7702 99.1405 38.9916 98.7675C39.213 98.3945 39.5221 98.078 39.8935 97.8439C40.0253 97.7341 40.1889 97.6669 40.3616 97.6514C40.5343 97.6359 40.7077 97.673 40.8579 97.7575C41.0081 97.8419 41.1277 97.9697 41.2002 98.1232C41.2727 98.2766 41.2947 98.4482 41.2629 98.6143V98.6712L38.6196 100.16ZM40.488 97.8594C40.3115 97.8682 40.14 97.9197 39.9891 98.0094C39.6742 98.213 39.4076 98.4798 39.2071 98.7919C39.0067 99.104 38.8769 99.4542 38.8266 99.8191L41.0612 98.5574C41.0698 98.4359 41.0465 98.3143 40.9936 98.204C40.9407 98.0936 40.8599 97.9982 40.7587 97.9266C40.6762 97.8811 40.5828 97.8579 40.488 97.8594Z" fill="white"/>
<path d="M43.2422 99.6794C43.2288 99.6801 43.2154 99.6781 43.2029 99.6734C43.1904 99.6688 43.179 99.6616 43.1695 99.6523C43.16 99.643 43.1527 99.6319 43.1479 99.6196C43.1431 99.6073 43.141 99.5942 43.1418 99.5811V96.2824C43.1384 96.268 43.1383 96.253 43.1416 96.2385C43.1449 96.2241 43.1515 96.2105 43.1609 96.1989C43.1703 96.1873 43.1822 96.178 43.1959 96.1715C43.2095 96.1651 43.2244 96.1617 43.2395 96.1617C43.2547 96.1617 43.2696 96.1651 43.2832 96.1715C43.2968 96.178 43.3088 96.1873 43.3182 96.1989C43.3276 96.2105 43.3342 96.2241 43.3375 96.2385C43.3408 96.253 43.3407 96.268 43.3373 96.2824V99.5811C43.338 99.5938 43.3361 99.6065 43.3316 99.6184C43.3272 99.6302 43.3203 99.6411 43.3114 99.6503C43.3025 99.6595 43.2917 99.6668 43.2798 99.6718C43.2679 99.6768 43.2551 99.6794 43.2422 99.6794Z" fill="white"/>
<path d="M42.9772 97.0373H42.9347C42.9225 97.0324 42.9115 97.025 42.9023 97.0156C42.8932 97.0062 42.8861 96.9951 42.8816 96.983C42.8771 96.9708 42.8753 96.9579 42.8762 96.945C42.8771 96.9321 42.8808 96.9195 42.887 96.9081L43.2373 96.1118L43.6354 96.5565C43.653 96.5764 43.6618 96.6022 43.6598 96.6284C43.6578 96.6546 43.6452 96.6789 43.6248 96.6961C43.6044 96.7132 43.5778 96.7218 43.5509 96.7198C43.524 96.7179 43.4991 96.7056 43.4815 96.6857L43.2957 96.4737L43.0674 96.9908C43.058 97.0057 43.0447 97.0178 43.0288 97.026C43.013 97.0342 42.9951 97.0381 42.9772 97.0373Z" fill="white"/>
<path d="M44.1604 99.1675C44.1338 99.1675 44.1083 99.1571 44.0895 99.1387C44.0706 99.1203 44.0601 99.0953 44.0601 99.0693V95.7705C44.0601 95.7444 44.0706 95.7194 44.0895 95.701C44.1083 95.6826 44.1338 95.6722 44.1604 95.6722C44.1871 95.6722 44.2126 95.6826 44.2314 95.701C44.2502 95.7194 44.2608 95.7444 44.2608 95.7705V99.0693C44.2608 99.0953 44.2502 99.1203 44.2314 99.1387C44.2126 99.1571 44.1871 99.1675 44.1604 99.1675Z" fill="white"/>
<path d="M43.8692 96.5254H43.8321C43.8201 96.5208 43.8091 96.514 43.7999 96.5052C43.7906 96.4965 43.7833 96.486 43.7783 96.4744C43.7734 96.4628 43.7709 96.4503 43.771 96.4378C43.7711 96.4252 43.7738 96.4128 43.779 96.4013L44.1346 95.5999L44.5274 96.0445C44.5369 96.0537 44.5444 96.0645 44.5495 96.0765C44.5547 96.0885 44.5573 96.1013 44.5573 96.1143C44.5573 96.1273 44.5547 96.1401 44.5495 96.1521C44.5444 96.1641 44.5369 96.175 44.5274 96.1841C44.5185 96.1932 44.5078 96.2004 44.4959 96.2053C44.4841 96.2103 44.4713 96.2128 44.4584 96.2128C44.4455 96.2128 44.4328 96.2103 44.4209 96.2053C44.409 96.2004 44.3983 96.1932 44.3894 96.1841L44.1983 95.9721L43.9701 96.4892C43.9589 96.5044 43.9434 96.5159 43.9254 96.5224C43.9074 96.5288 43.8878 96.5299 43.8692 96.5254Z" fill="white"/>
<path d="M33.4124 107.166L14.0068 96.2565V81.7015L33.4124 92.6165V107.166Z" fill="#E0E0E0"/>
<path d="M22.9771 90.1915L24.4367 91.0136V87.57L22.9771 86.7479V90.1915Z" fill="#F5F5F5"/>
<path d="M24.4367 87.5702L43.8422 76.6604L42.3826 75.8331L22.9771 86.7481L24.4367 87.5702Z" fill="white"/>
<path d="M17.0804 90.7086L21.7088 93.2938C21.9766 93.464 22.1997 93.6929 22.3601 93.9623C22.5205 94.2317 22.6137 94.5341 22.6324 94.845V97.6319C22.6324 98.2006 22.2184 98.4333 21.7088 98.1489L17.0804 95.5637C16.8127 95.3938 16.59 95.1648 16.4304 94.8953C16.2709 94.6257 16.1789 94.3232 16.1621 94.0125V91.2308C16.1621 90.6517 16.5761 90.4449 17.0804 90.7086Z" fill="#F5F5F5"/>
<path d="M16.7246 91.4015L16.8989 91.4997V94.5917L16.7246 94.4934V91.4015Z" fill="#E0E0E0"/>
<path d="M17.4355 91.8047L17.7434 91.9805V95.0673L17.4355 94.8966V91.8047Z" fill="#E0E0E0"/>
<path d="M18.1523 92.208L18.332 92.3062L18.3267 95.3982L18.1523 95.3V92.208Z" fill="#E0E0E0"/>
<path d="M18.6938 92.5078L19.0495 92.7095L19.0442 95.8014L18.6938 95.5946V92.5078Z" fill="#E0E0E0"/>
<path d="M19.5854 93.0146L19.7598 93.1129V96.2048L19.5854 96.1014V93.0146Z" fill="#E0E0E0"/>
<path d="M20.1006 93.299L20.4774 93.5161V96.6029L20.1006 96.3857V93.299Z" fill="#E0E0E0"/>
<path d="M21.0186 93.8212L21.1929 93.9194V97.0062L21.0186 96.908V93.8212Z" fill="#E0E0E0"/>
<path d="M21.4272 94.0436L21.5171 94.0953V97.1821L21.4272 97.1355V94.0436Z" fill="#E0E0E0"/>
<path d="M20.6948 93.6505L20.7794 93.697V96.789L20.6948 96.7425V93.6505Z" fill="#E0E0E0"/>
<path d="M19.251 92.8284L19.3355 92.8749V95.9669L19.251 95.9152V92.8284Z" fill="#E0E0E0"/>
<path d="M18.4604 92.3838L18.5503 92.4355V95.5223L18.4604 95.4757V92.3838Z" fill="#E0E0E0"/>
<path d="M17.8921 92.0787L17.9819 92.1304V95.2224L17.8921 95.1707V92.0787Z" fill="#E0E0E0"/>
<path d="M17.1226 91.6237L17.2124 91.6754V94.7622L17.1226 94.7156V91.6237Z" fill="#E0E0E0"/>
<path d="M21.7354 94.2194L21.9097 94.3228V97.4096L21.7354 97.3113V94.2194Z" fill="#E0E0E0"/>
<path d="M48.5027 52.602L33.4124 44.1121L18.3169 52.602L33.4124 61.0868L48.5027 52.602Z" fill="#F5F5F5"/>
<path d="M33.4126 90.1914L48.5028 81.7015V52.6019L33.4126 61.0867V90.1914Z" fill="#EBEBEB"/>
<path d="M35.9016 85.3623C35.8349 85.3628 35.7691 85.3468 35.7105 85.3157C35.6276 85.2573 35.5615 85.179 35.5188 85.0884C35.476 84.9978 35.4579 84.898 35.4664 84.7987V83.2475V83.1338H35.546L36.788 82.4254V84.1472C36.785 84.3687 36.7281 84.5863 36.622 84.7823C36.5159 84.9782 36.3636 85.1469 36.1776 85.2744C36.0951 85.3267 35.9999 85.357 35.9016 85.3623ZM35.6628 83.3613V84.7935C35.6544 84.8591 35.6631 84.9257 35.6881 84.9872C35.7132 85.0487 35.7538 85.103 35.8061 85.1451C35.8495 85.1644 35.8975 85.1722 35.945 85.1677C35.9926 85.1631 36.038 85.1464 36.0768 85.1192C36.2353 85.0095 36.3656 84.8657 36.4577 84.6989C36.5497 84.5321 36.601 84.3468 36.6076 84.1575V84.0334H36.1299L36.0396 83.4285L35.6628 83.3613ZM36.2997 83.837H36.6076V82.777L35.8698 83.201L36.236 83.263L36.2997 83.837Z" fill="white"/>
<path d="M36.1245 86.5929C36.1116 86.5929 36.0988 86.5903 36.0869 86.5853C36.075 86.5803 36.0643 86.573 36.0554 86.5638C36.0465 86.5546 36.0396 86.5438 36.0351 86.5319C36.0307 86.52 36.0287 86.5073 36.0294 86.4947V85.202C36.0287 85.1894 36.0307 85.1767 36.0351 85.1648C36.0396 85.1529 36.0465 85.1421 36.0554 85.1329C36.0643 85.1237 36.075 85.1163 36.0869 85.1113C36.0988 85.1063 36.1116 85.1038 36.1245 85.1038C36.1379 85.103 36.1513 85.1051 36.1638 85.1097C36.1764 85.1144 36.1877 85.1216 36.1972 85.1309C36.2067 85.1402 36.2141 85.1513 36.2188 85.1636C36.2236 85.1758 36.2257 85.1889 36.2249 85.202V86.4947C36.2257 86.5078 36.2236 86.5209 36.2188 86.5331C36.2141 86.5454 36.2067 86.5565 36.1972 86.5658C36.1877 86.5751 36.1764 86.5823 36.1638 86.5869C36.1513 86.5916 36.1379 86.5936 36.1245 86.5929Z" fill="white"/>
<path d="M35.5462 86.9186C35.5249 86.9173 35.5047 86.9095 35.4882 86.8962C35.4718 86.883 35.4601 86.8651 35.4548 86.845C35.4495 86.8249 35.4509 86.8037 35.4587 86.7844C35.4666 86.7651 35.4805 86.7487 35.4984 86.7376L36.6555 86.0861C36.6788 86.0731 36.7064 86.0696 36.7322 86.0764C36.7581 86.0832 36.7802 86.0997 36.7935 86.1223C36.8069 86.1449 36.8105 86.1718 36.8036 86.197C36.7966 86.2222 36.7796 86.2437 36.7564 86.2568L35.5993 86.9031C35.5837 86.9135 35.5651 86.919 35.5462 86.9186Z" fill="white"/>
<path d="M39.6651 84.6901C39.6274 84.6902 39.5904 84.6794 39.559 84.6591C39.5184 84.6352 39.4855 84.6008 39.4639 84.5597C39.4424 84.5186 39.433 84.4724 39.4369 84.4264V84.1627C39.4369 84.1367 39.4475 84.1117 39.4664 84.0932C39.4853 84.0748 39.511 84.0645 39.5377 84.0645C39.5645 84.0645 39.5901 84.0748 39.609 84.0932C39.628 84.1117 39.6386 84.1367 39.6386 84.1627V84.4264C39.6313 84.4482 39.6313 84.4718 39.6386 84.4936C39.6611 84.4998 39.685 84.4998 39.7076 84.4936C39.7682 84.4383 39.8157 84.3708 39.8468 84.2958C39.878 84.2208 39.8921 84.1401 39.8881 84.0593V82.3375C39.8881 82.3115 39.8987 82.2865 39.9176 82.2681C39.9365 82.2496 39.9622 82.2393 39.9889 82.2393C40.0024 82.2385 40.0158 82.2406 40.0284 82.2452C40.041 82.2499 40.0524 82.2571 40.0619 82.2664C40.0715 82.2757 40.0789 82.2868 40.0836 82.2991C40.0884 82.3113 40.0905 82.3244 40.0898 82.3375V84.0593C40.0941 84.1745 40.071 84.289 40.0222 84.394C39.9734 84.499 39.9002 84.5915 39.8084 84.6643C39.7635 84.6839 39.7143 84.6928 39.6651 84.6901Z" fill="white"/>
<path d="M38.6196 83.2062V83.0407C38.6435 82.6099 38.7713 82.1907 38.9927 81.817C39.214 81.4433 39.5226 81.1256 39.8935 80.8898C40.0265 80.7825 40.1901 80.7176 40.3622 80.7037C40.5343 80.6899 40.7066 80.7278 40.8559 80.8123C41.0052 80.8969 41.1243 81.024 41.1971 81.1765C41.2698 81.3291 41.2928 81.4997 41.2629 81.6654V81.7171L38.6196 83.2062ZM40.488 80.9105C40.3115 80.9192 40.14 80.9708 39.9891 81.0604C39.6748 81.2635 39.4086 81.5295 39.2082 81.8406C39.0077 82.1518 38.8777 82.501 38.8266 82.8649L41.0612 81.6085C41.0708 81.4869 41.048 81.3649 40.995 81.2544C40.942 81.1439 40.8606 81.0486 40.7587 80.9777C40.6789 80.9231 40.5853 80.8909 40.488 80.8846V80.9105Z" fill="white"/>
<path d="M43.2422 82.6892C43.2156 82.6892 43.19 82.6788 43.1712 82.6604C43.1524 82.642 43.1418 82.617 43.1418 82.5909V79.2921C43.1384 79.2777 43.1383 79.2627 43.1416 79.2483C43.1449 79.2338 43.1515 79.2203 43.1609 79.2087C43.1703 79.1971 43.1822 79.1877 43.1959 79.1813C43.2095 79.1749 43.2244 79.1715 43.2395 79.1715C43.2547 79.1715 43.2696 79.1749 43.2832 79.1813C43.2968 79.1877 43.3088 79.1971 43.3182 79.2087C43.3276 79.2203 43.3342 79.2338 43.3375 79.2483C43.3408 79.2627 43.3407 79.2777 43.3373 79.2921V82.5909C43.3373 82.6161 43.3275 82.6403 43.3098 82.6586C43.2921 82.6769 43.2679 82.6878 43.2422 82.6892Z" fill="white"/>
<path d="M42.9772 80.0574H42.9347C42.9225 80.0524 42.9115 80.045 42.9023 80.0356C42.8932 80.0263 42.8861 80.0151 42.8816 80.003C42.8771 79.9908 42.8753 79.9779 42.8762 79.965C42.8771 79.9521 42.8808 79.9395 42.887 79.9281L43.2373 79.1318L43.6354 79.5765C43.6529 79.5947 43.6627 79.6187 43.6627 79.6437C43.6627 79.6687 43.6529 79.6927 43.6354 79.7109C43.6158 79.7284 43.5903 79.738 43.5637 79.738C43.5372 79.738 43.5116 79.7284 43.4921 79.7109L43.3063 79.4989L43.0781 80.016C43.0676 80.0321 43.0524 80.0447 43.0343 80.0521C43.0163 80.0595 42.9963 80.0614 42.9772 80.0574Z" fill="white"/>
<path d="M44.1604 82.172C44.1342 82.1708 44.1094 82.16 44.0909 82.1418C44.0723 82.1237 44.0613 82.0994 44.0601 82.0738V78.775C44.0601 78.7489 44.0706 78.724 44.0895 78.7055C44.1083 78.6871 44.1338 78.6768 44.1604 78.6768C44.1871 78.6768 44.2126 78.6871 44.2314 78.7055C44.2502 78.724 44.2608 78.7489 44.2608 78.775V82.0738C44.2595 82.0994 44.2485 82.1237 44.23 82.1418C44.2114 82.16 44.1866 82.1708 44.1604 82.172Z" fill="white"/>
<path d="M43.869 79.5506H43.8318C43.8196 79.5456 43.8085 79.5382 43.7993 79.5289C43.79 79.5197 43.7827 79.5088 43.7777 79.4968C43.7728 79.4847 43.7703 79.4719 43.7705 79.459C43.7707 79.446 43.7735 79.4333 43.7787 79.4214L44.1344 78.6251L44.5272 79.0698C44.5366 79.0789 44.5441 79.0898 44.5493 79.1018C44.5544 79.1138 44.557 79.1266 44.557 79.1396C44.557 79.1526 44.5544 79.1654 44.5493 79.1774C44.5441 79.1894 44.5366 79.2003 44.5272 79.2094C44.5079 79.2254 44.4835 79.2342 44.4582 79.2342C44.4328 79.2342 44.4084 79.2254 44.3891 79.2094L44.1981 78.9974L43.9698 79.5144C43.9582 79.5291 43.9426 79.5403 43.9248 79.5467C43.9069 79.5531 43.8876 79.5545 43.869 79.5506Z" fill="white"/>
<path d="M33.4124 90.1914L18.3169 81.7015V52.6019L33.4124 61.0867V90.1914Z" fill="#E0E0E0"/>
<path d="M25.4775 60.0682L26.9425 60.8903V57.4519L25.4775 56.6246V60.0682Z" fill="#F5F5F5"/>
<path d="M26.9425 57.452L42.0328 48.962L40.5731 48.1399L25.4775 56.6247L26.9425 57.452Z" fill="white"/>
<path d="M21.3904 76.1536L26.0188 78.7388C26.2868 78.9084 26.5097 79.1373 26.6693 79.4069C26.8289 79.6765 26.9207 79.9792 26.9371 80.29V83.0717C26.9371 83.6405 26.5284 83.8732 26.0188 83.5888L21.3904 81.0035C21.1217 80.8343 20.898 80.6055 20.7375 80.3359C20.5769 80.0663 20.4842 79.7636 20.4668 79.4524V76.6706C20.4721 76.1019 20.8808 75.8692 21.3904 76.1536Z" fill="#F5F5F5"/>
<path d="M21.0293 76.8516L21.2036 76.9498V80.0418L21.0293 79.9383V76.8516Z" fill="#E0E0E0"/>
<path d="M21.7456 77.2549L22.0482 77.4255V80.5175L21.7456 80.3417V77.2549Z" fill="#E0E0E0"/>
<path d="M22.4624 77.6531L22.6367 77.7565V80.8433L22.4624 80.745V77.6531Z" fill="#E0E0E0"/>
<path d="M23.0039 77.953L23.3542 78.1598V81.2466L23.0039 81.045V77.953Z" fill="#E0E0E0"/>
<path d="M23.8955 78.4596L24.0698 78.5578V81.6498L23.8955 81.5515V78.4596Z" fill="#E0E0E0"/>
<path d="M24.4102 78.744L24.787 78.9612V82.0531L24.4102 81.836V78.744Z" fill="#E0E0E0"/>
<path d="M25.3286 79.2664L25.503 79.3646V82.4566L25.3286 82.3531V79.2664Z" fill="#E0E0E0"/>
<path d="M25.7373 79.4938L25.8218 79.5403V82.6323L25.7373 82.5806V79.4938Z" fill="#E0E0E0"/>
<path d="M24.9995 79.0956L25.0893 79.1473V82.2392L24.9995 82.1875V79.0956Z" fill="#E0E0E0"/>
<path d="M23.5557 78.2736L23.6455 78.3253V81.412L23.5557 81.3655V78.2736Z" fill="#E0E0E0"/>
<path d="M22.7646 77.8341L22.8545 77.8806V80.9726L22.7646 80.9209V77.8341Z" fill="#E0E0E0"/>
<path d="M22.2021 77.5289L22.2867 77.5755V80.6674L22.2021 80.6157V77.5289Z" fill="#E0E0E0"/>
<path d="M21.4326 77.074L21.5171 77.1205V80.2125L21.4326 80.1608V77.074Z" fill="#E0E0E0"/>
<path d="M26.04 79.6696L26.2197 79.7678V82.8546L26.04 82.7563V79.6696Z" fill="#E0E0E0"/>
<path d="M18.4602 132.714L76.3902 165.288C77.1024 165.64 77.8898 165.823 78.6885 165.823C79.4872 165.823 80.2746 165.64 80.9868 165.288L207.914 93.935C209.182 93.2214 209.182 92.0632 207.914 91.3497L149.984 58.7756C149.272 58.4211 148.484 58.2363 147.685 58.2363C146.886 58.2363 146.099 58.4211 145.387 58.7756L18.4602 130.128C17.1916 130.842 17.1916 132 18.4602 132.714Z" fill="#455A64"/>
<path d="M49.7714 147.837C50.7591 148.323 51.8499 148.576 52.9562 148.576C54.0624 148.576 55.1532 148.323 56.1409 147.837C57.9084 146.845 57.9084 145.252 56.1409 144.244C55.1539 143.756 54.0628 143.502 52.9562 143.502C51.8495 143.502 50.7584 143.756 49.7714 144.244C48.0039 145.252 48.0039 146.855 49.7714 147.837Z" fill="#263238"/>
<path d="M77.4783 165.288L19.5483 132.714C18.4124 132.072 18.2957 131.08 19.1927 130.366C18.6261 130.803 18.1603 131.351 17.8256 131.974C17.4908 132.598 17.2947 133.283 17.25 133.986V136.09C17.2936 136.867 17.5244 137.623 17.9236 138.296C18.3229 138.97 18.8795 139.543 19.5483 139.968L77.4783 172.542C78.1866 172.902 78.9778 173.08 79.7766 173.059V165.825C78.9759 165.84 78.1846 165.655 77.4783 165.288Z" fill="#37474F"/>
<path d="M207.908 101.184C208.579 100.76 209.137 100.188 209.537 99.5138C209.937 98.8399 210.169 98.0834 210.212 97.306V95.2016C210.169 94.4984 209.973 93.812 209.637 93.1881C209.301 92.5641 208.833 92.0168 208.264 91.5823C209.166 92.2958 209.049 93.2885 207.914 93.9245L80.9868 165.288C80.278 165.647 79.4872 165.825 78.6885 165.805V173.08C79.4872 173.1 80.278 172.922 80.9868 172.563L207.908 101.184Z" fill="#263238"/>
<path d="M85.9337 158.54L30.4878 127.342C29.7235 126.912 29.7235 126.214 30.4878 125.79L137.664 65.4972C138.092 65.2856 138.565 65.1753 139.044 65.1753C139.524 65.1753 139.997 65.2856 140.424 65.4972L195.891 96.6908C196.65 97.12 196.65 97.8128 195.891 98.242L88.6725 158.54C88.2477 158.749 87.7787 158.857 87.3031 158.857C86.8275 158.857 86.3585 158.749 85.9337 158.54Z" fill="white"/>
<path d="M63.593 141.121L70.0633 137.481L67.9083 136.271L61.438 139.906L63.593 141.121Z" fill="#FF7622"/>
<path d="M141.215 97.4664L147.685 93.8263L145.525 92.6165L139.06 96.2565L141.215 97.4664Z" fill="#FF7622"/>
<path d="M154.15 90.1915L160.62 86.5514L158.465 85.3416L151.995 88.9764L154.15 90.1915Z" fill="#FF7622"/>
<path d="M174.915 77.4462C175.166 77.5686 175.443 77.6323 175.724 77.6323C176.005 77.6323 176.282 77.5686 176.533 77.4462C176.631 77.4138 176.715 77.3525 176.775 77.2709C176.835 77.1893 176.867 77.0915 176.867 76.9912C176.867 76.8909 176.835 76.7931 176.775 76.7115C176.715 76.6299 176.631 76.5686 176.533 76.5362C176.283 76.4114 176.005 76.3463 175.724 76.3463C175.443 76.3463 175.165 76.4114 174.915 76.5362C174.817 76.5686 174.733 76.6299 174.673 76.7115C174.613 76.7931 174.581 76.8909 174.581 76.9912C174.581 77.0915 174.613 77.1893 174.673 77.2709C174.733 77.3525 174.817 77.4138 174.915 77.4462Z" fill="#263238"/>
<path d="M177.5 84.5867C178.001 84.8338 178.555 84.9626 179.116 84.9626C179.678 84.9626 180.231 84.8338 180.732 84.5867C181.624 84.0696 181.624 83.2682 180.732 82.7667C180.231 82.5195 179.678 82.3907 179.116 82.3907C178.555 82.3907 178.001 82.5195 177.5 82.7667C176.608 83.2682 176.608 84.0851 177.5 84.5867Z" fill="#263238"/>
<path d="M175.217 81.4224C175.812 81.0863 175.78 80.5279 175.148 80.1711L164.532 74.1888C164.191 74.0104 163.81 73.9136 163.423 73.9064C163.035 73.8992 162.651 73.9819 162.303 74.1475C161.709 74.4836 161.74 75.042 162.372 75.3987L173.02 81.381C173.357 81.554 173.732 81.6478 174.113 81.6549C174.495 81.6621 174.873 81.5825 175.217 81.4224Z" fill="#263238"/>
<path d="M157.096 57.1623L157.457 56.9555C157.208 57.8378 157.086 58.7498 157.096 59.6648V60.9264C157.096 65.4558 162.675 77.0274 164.729 81.1224C164.941 81.5516 162.123 84.4729 162.123 84.4729L165.472 82.5908C165.472 82.5908 173.843 75.8692 173.843 70.3471V69.0855C173.843 63.5375 170.095 56.9348 165.472 54.3341C163.137 53.0259 161.029 52.9794 159.511 53.9721L156.327 55.7508L157.096 57.1623ZM161.284 61.397C161.284 58.8117 163.158 57.7414 165.472 59.0444C165.281 60.7145 168.413 65.916 169.655 66.1073C169.655 68.6925 167.781 69.7628 165.472 68.4599C164.257 67.6843 163.246 66.6406 162.522 65.4135C161.798 64.1864 161.381 62.8103 161.305 61.397H161.284Z" fill="#FF7622"/>
<path d="M153.652 62.9481C153.747 68.4909 162.388 84.4729 162.388 84.4729C162.388 84.4729 170.647 77.6375 170.557 72.0947V70.8331C170.462 65.2904 166.603 58.7445 161.932 56.2213C157.261 53.6981 153.556 56.1386 153.652 61.6865V62.9481ZM157.845 63.3514C157.802 60.7662 159.66 59.6648 161.99 60.9265C163.222 61.6807 164.254 62.7073 165.002 63.9228C165.75 65.1383 166.193 66.5085 166.295 67.9221C166.343 70.5074 164.485 71.6087 162.15 70.3471C160.919 69.5913 159.889 68.5644 159.141 67.3492C158.393 66.134 157.949 64.7645 157.845 63.3514Z" fill="#FF7622"/>
<path opacity="0.1" d="M153.652 62.9481C153.747 68.4909 162.388 84.4729 162.388 84.4729C162.388 84.4729 170.647 77.6375 170.557 72.0947V70.8331C170.462 65.2904 166.603 58.7445 161.932 56.2213C157.261 53.6981 153.556 56.1386 153.652 61.6865V62.9481ZM157.845 63.3514C157.802 60.7662 159.66 59.6648 161.99 60.9265C163.222 61.6807 164.254 62.7073 165.002 63.9228C165.75 65.1383 166.193 66.5085 166.295 67.9221C166.343 70.5074 164.485 71.6087 162.15 70.3471C160.919 69.5913 159.889 68.5644 159.141 67.3492C158.393 66.134 157.949 64.7645 157.845 63.3514Z" fill="black"/>
<path d="M72.7015 136.871C78.0677 139.88 90.6474 137.693 100.801 131.98L128.694 116.297C138.848 110.584 142.723 103.521 137.346 100.517C131.969 97.513 119.379 99.7105 109.214 105.419L81.3745 121.08C71.2259 126.788 67.3405 133.877 72.7015 136.871Z" fill="#F0F0F0"/>
<path d="M153.912 5.40051H153.938L158.529 2.81526H158.567C161.459 1.38821 165.323 1.78117 169.485 4.41812C177.85 9.66101 184.235 21.76 183.752 31.434C183.508 36.258 181.629 39.5672 178.726 41.0252H178.699L174.103 43.6105H174.071C171.178 45.0427 167.309 44.6446 163.142 42.0128C154.782 36.7648 148.397 24.671 148.88 14.997C149.134 10.1677 151.04 6.85859 153.912 5.40051Z" fill="#37474F"/>
<path d="M174.336 43.4761L178.715 40.9943H178.747C181.624 39.531 183.524 36.2219 183.768 31.403C183.981 27.0908 182.829 22.2977 180.748 17.8459L176.152 20.4312C178.238 24.883 179.389 29.676 179.172 33.9934C178.944 38.6986 177.118 41.9715 174.336 43.4761Z" fill="#263238"/>
<path d="M163.163 42.0076C154.804 36.7596 148.418 24.6658 148.901 14.9918C149.384 5.31779 156.566 1.72429 164.91 6.96718C173.254 12.2101 179.66 24.309 179.177 33.983C178.694 43.657 171.523 47.2505 163.163 42.0076Z" fill="#455A64"/>
<path d="M170.17 41.3252C175.101 41.5578 175.902 36.1547 176.008 33.8279C176.433 25.2966 170.562 14.18 163.19 9.55245C161.619 8.48054 159.791 7.82161 157.882 7.63936C152.956 7.40669 152.155 12.8099 152.043 15.1366C151.619 23.6679 157.484 34.7845 164.862 39.4379C166.433 40.5098 168.261 41.1688 170.17 41.351V41.3252Z" fill="#FAFAFA"/>
<path d="M163.073 26.0877C163.131 26.0879 163.188 26.0774 163.243 26.0567C163.353 26.0216 163.449 25.952 163.516 25.8586C163.582 25.7651 163.614 25.653 163.609 25.5396V13.2183C163.609 13.0812 163.553 12.9497 163.453 12.8527C163.354 12.7558 163.219 12.7013 163.078 12.7013C162.937 12.7013 162.802 12.7558 162.703 12.8527C162.603 12.9497 162.547 13.0812 162.547 13.2183V24.0402L156.64 16.6464C156.552 16.5367 156.424 16.4652 156.283 16.4478C156.141 16.4303 155.998 16.4683 155.886 16.5533C155.773 16.6383 155.7 16.7635 155.682 16.9011C155.664 17.0388 155.703 17.1778 155.79 17.2875L162.664 25.8861C162.712 25.9473 162.774 25.9972 162.845 26.0321C162.916 26.067 162.993 26.086 163.073 26.0877Z" fill="#37474F"/>
<path d="M166.12 35.2033C166.144 35.208 166.17 35.208 166.194 35.2033C166.25 35.1865 166.298 35.1491 166.327 35.099C166.355 35.0489 166.363 34.9899 166.348 34.9344L163.37 25.1673C163.353 25.1118 163.315 25.0651 163.262 25.0374C163.21 25.0098 163.149 25.0035 163.092 25.02C163.035 25.0364 162.987 25.0743 162.958 25.1252C162.93 25.1761 162.924 25.2359 162.94 25.2914L165.913 35.0585C165.928 35.1004 165.956 35.1367 165.993 35.1625C166.03 35.1884 166.074 35.2026 166.12 35.2033Z" fill="#FF7622"/>
<path d="M163.243 23.094C162.255 22.4787 161.411 22.9026 161.358 24.0402C161.362 24.6606 161.515 25.2715 161.807 25.8232C162.098 26.3749 162.519 26.8517 163.036 27.2148C164.018 27.8353 164.862 27.4113 164.92 26.2738C164.915 25.6529 164.761 25.0416 164.47 24.4893C164.179 23.937 163.758 23.4591 163.243 23.094Z" fill="#FF7622"/>
<path d="M76.5339 133.846L82.9989 130.206L80.8439 128.996L74.3789 132.631L76.5339 133.846Z" fill="#FF7622"/>
<path d="M89.469 126.571L95.9392 122.931L93.7789 121.721L87.314 125.356L89.469 126.571Z" fill="#FF7622"/>
<path d="M86.8097 125.087C86.8097 128.127 84.6229 131.809 81.9212 133.36C80.4828 134.172 79.1877 134.198 78.2959 133.587C77.9364 133.312 77.6412 132.966 77.4298 132.571C77.2183 132.176 77.0956 131.742 77.0698 131.297C77.2514 131.214 77.4285 131.123 77.6006 131.023C80.3023 129.508 82.4892 125.811 82.4892 122.75C82.4917 122.524 82.4775 122.297 82.4467 122.073C82.8516 121.864 83.2966 121.74 83.7536 121.708C84.2105 121.676 84.6692 121.737 85.1006 121.887C86.1622 122.321 86.8097 123.443 86.8097 125.087Z" fill="#263238"/>
<path d="M87.2504 118.841L87.1602 118.789C85.8014 118.086 83.9755 118.216 81.9213 119.363C77.7546 121.706 74.3735 127.403 74.3735 132.093C74.3735 134.451 75.2281 136.1 76.6081 136.865C77.9882 137.631 79.8512 137.501 81.916 136.348C86.0827 134.006 89.4585 128.303 89.4585 123.614C89.4638 121.256 88.6251 119.606 87.2504 118.841ZM81.9425 133.35C80.4988 134.161 79.2037 134.187 78.312 133.572C77.5264 133.055 77.0487 132.021 77.0487 130.599C77.0487 127.564 79.2408 123.877 81.9425 122.326C83.174 121.633 84.2939 121.514 85.1273 121.871C86.157 122.3 86.8045 123.422 86.8045 125.077C86.8099 128.138 84.623 131.835 81.9213 133.36L81.9425 133.35Z" fill="#37474F"/>
<path d="M85.3766 122.011L85.3182 121.98C84.4371 121.52 83.2428 121.607 81.9212 122.347C79.2195 123.867 77.0273 127.564 77.0273 130.62C77.0273 132.171 77.5581 133.205 78.4764 133.722C79.3947 134.239 80.5995 134.136 81.9212 133.381C84.6229 131.861 86.8097 128.164 86.8097 125.108C86.8097 123.577 86.263 122.502 85.3766 122.011ZM81.9212 132.274C80.7641 132.926 79.7237 132.946 79.0019 132.45C78.3755 132.021 77.9881 131.199 77.9881 130.061C78.0624 128.732 78.4573 127.439 79.1407 126.286C79.824 125.134 80.7766 124.154 81.9212 123.427C82.293 123.175 82.7203 123.01 83.1691 122.946C83.6178 122.882 84.0756 122.921 84.5061 123.06C85.3341 123.407 85.8543 124.306 85.8543 125.646C85.7804 126.974 85.3857 128.267 84.7022 129.418C84.0188 130.57 83.066 131.549 81.9212 132.274Z" fill="#FF7622"/>
<path d="M102.404 119.291L108.874 115.656L106.719 114.441L100.249 118.081L102.404 119.291Z" fill="#FF7622"/>
<path d="M115.345 112.016L121.81 108.381L119.655 107.166L113.185 110.806L115.345 112.016Z" fill="#FF7622"/>
<path d="M128.28 104.741L134.745 101.106L132.59 99.8912L126.12 103.531L128.28 104.741Z" fill="#FF7622"/>
<path d="M96.0879 70.9106C96.1555 70.8227 96.2501 70.758 96.3581 70.7259C96.466 70.6939 96.5816 70.6962 96.6881 70.7325C96.7946 70.7688 96.8864 70.8372 96.9503 70.9278C97.0142 71.0185 97.0467 71.1265 97.0433 71.2364C97.0848 71.5307 97.054 71.8304 96.9534 72.1108C96.8528 72.3913 96.6853 72.6445 96.4647 72.8496C96.0401 73.2063 95.6102 73.0616 95.5093 72.5238C95.4682 72.2295 95.4992 71.93 95.5998 71.6496C95.7004 71.3692 95.8676 71.116 96.0879 70.9106Z" fill="#FF7622"/>
<path d="M101.067 73.1961L96.7406 70.7607L95.7905 72.9892L100.132 75.4297L101.067 73.1961Z" fill="#FF7622"/>
<path d="M100.403 73.3356C100.828 72.984 101.252 73.1288 101.358 73.6665C101.397 73.9603 101.365 74.2591 101.263 74.5384C101.162 74.8178 100.995 75.0699 100.774 75.2745C100.35 75.6313 99.9199 75.4865 99.819 74.9488C99.7803 74.6541 99.813 74.3548 99.9144 74.0747C100.016 73.7945 100.183 73.5414 100.403 73.3356Z" fill="#FF7622"/>
<path d="M133.652 93.7281C133.652 93.8315 133.652 93.9245 133.652 94.0279C133.652 94.2348 133.652 94.4467 133.652 94.6587C132.792 94.302 131.672 94.4209 130.44 95.1137C127.739 96.6339 125.546 100.331 125.546 103.387C125.546 104.803 126.024 105.827 126.81 106.36C126.589 106.512 126.361 106.654 126.125 106.784L125.876 106.908L125.127 109.653L120.796 107.301C119.426 106.53 118.583 104.886 118.583 102.539C118.583 97.8489 121.958 92.151 126.125 89.8036C128.184 88.6454 130.047 88.5265 131.433 89.2866L135.679 91.603L135.769 91.6547L133.652 93.7281Z" fill="#455A64"/>
<path d="M135.764 91.6081L135.674 91.5564C134.315 90.8532 132.489 90.9825 130.435 92.1303C126.268 94.4726 122.887 100.17 122.887 104.86C122.887 107.218 123.742 108.867 125.122 109.632C126.502 110.398 128.365 110.268 130.43 109.115C134.596 106.773 137.972 101.07 137.972 96.3805C137.988 94.0227 137.134 92.3733 135.764 91.6081ZM130.456 106.117C129.012 106.928 127.717 106.954 126.826 106.339C126.04 105.822 125.562 104.788 125.562 103.366C125.562 100.331 127.755 96.6442 130.456 95.093C131.688 94.4002 132.808 94.2813 133.667 94.638C134.697 95.0672 135.345 96.1892 135.345 97.8437C135.334 100.905 133.137 104.602 130.435 106.117H130.456Z" fill="#37474F"/>
<path d="M135.334 97.8644C135.334 100.905 133.147 104.586 130.446 106.137C129.007 106.949 127.712 106.975 126.82 106.365C126.461 106.09 126.166 105.743 125.954 105.348C125.743 104.953 125.62 104.519 125.594 104.074C125.776 103.992 125.953 103.9 126.125 103.8C128.827 102.285 131.014 98.5883 131.014 95.5274C131.016 95.3009 131.002 95.0745 130.971 94.85C131.376 94.6413 131.821 94.517 132.278 94.485C132.735 94.4529 133.194 94.5139 133.625 94.6639C134.676 95.0982 135.334 96.2099 135.334 97.8644Z" fill="#263238"/>
<path d="M133.89 94.7776L133.832 94.7414C132.951 94.2864 131.751 94.3691 130.435 95.1137C127.733 96.6338 125.541 100.326 125.541 103.386C125.541 104.938 126.072 105.972 126.99 106.489C127.908 107.006 129.113 106.897 130.435 106.142C133.137 104.627 135.323 100.93 135.323 97.8696C135.334 96.3443 134.803 95.274 133.89 94.7776ZM130.435 105.036C129.272 105.693 128.232 105.713 127.516 105.217C126.884 104.788 126.502 103.966 126.502 102.828C126.576 101.499 126.971 100.206 127.654 99.0532C128.338 97.9007 129.29 96.9212 130.435 96.1943C131.422 95.6359 132.324 95.5377 133.014 95.8272C133.843 96.1736 134.363 97.0733 134.363 98.4125C134.289 99.7396 133.895 101.031 133.212 102.182C132.53 103.333 131.578 104.311 130.435 105.036Z" fill="#FF7622"/>
<path d="M126.12 99.4104L138.328 92.544C139.745 91.7425 135.143 87.0632 131.719 86.7478C129.835 86.526 127.923 86.7024 126.114 87.2649C126.114 87.2649 128.72 90.5171 128.275 92.363C127.829 94.2089 126.12 99.4104 126.12 99.4104Z" fill="#FF7622"/>
<path d="M108.874 80.0055C108.874 80.0055 126.571 88.7023 127.335 89.2245C128.099 89.7467 127.335 95.8117 126.12 99.4104C124.904 103.009 123.036 108.541 122.287 110.093C121.539 111.644 120.562 112.223 118.768 113.231L106.029 120.403L88.7842 122.45L81.937 118.831L83.7205 107.916C83.7205 107.916 102.048 98.4176 104.559 97.0061C107.07 95.5945 114.495 88.9711 108.874 80.0055Z" fill="#FF7622"/>
<path opacity="0.2" d="M108.874 80.0055C108.874 80.0055 126.571 88.7023 127.335 89.2245C128.099 89.7467 127.335 95.8117 126.12 99.4104C124.904 103.009 123.036 108.541 122.287 110.093C121.539 111.644 120.562 112.223 118.768 113.231L106.029 120.403L88.7842 122.45L81.937 118.831L83.7205 107.916C83.7205 107.916 102.048 98.4176 104.559 97.0061C107.07 95.5945 114.495 88.9711 108.874 80.0055Z" fill="black"/>
<path d="M127.675 97.3371C129.267 93.1696 130.456 89.7157 130.255 87.3838C130.01 84.6176 128.949 82.3581 124.267 81.2206C119.586 80.0831 113.041 80.1038 113.041 80.1038L111.051 81.2258C111.051 81.2258 124.512 88.8264 126.04 89.6537C126.974 90.1707 127.972 92.4509 126.141 99.4156L126.454 99.5914C126.608 99.6845 127.165 98.6762 127.675 97.3371Z" fill="#FF7622"/>
<path opacity="0.3" d="M127.675 97.3371C129.267 93.1696 130.456 89.7157 130.255 87.3838C130.01 84.6176 128.949 82.3581 124.267 81.2206C119.586 80.0831 113.041 80.1038 113.041 80.1038L111.051 81.2258C111.051 81.2258 124.512 88.8264 126.04 89.6537C126.974 90.1707 127.972 92.4509 126.141 99.4156L126.454 99.5914C126.608 99.6845 127.165 98.6762 127.675 97.3371Z" fill="white"/>
<path d="M117.478 84.8555L119.655 83.6456C119.655 83.6456 119.527 76.2983 116.353 74.5145C113.179 72.7307 102.404 73.9457 102.404 73.9457L100.249 75.1556L117.478 84.8555Z" fill="#FF7622"/>
<path d="M110.419 76.1949C109.384 76.7792 109.384 77.7202 110.419 78.2993C110.999 78.5871 111.641 78.7372 112.293 78.7372C112.944 78.7372 113.586 78.5871 114.166 78.2993C115.196 77.7202 115.196 76.774 114.166 76.1949C113.585 75.9094 112.943 75.7607 112.293 75.7607C111.642 75.7607 111 75.9094 110.419 76.1949Z" fill="#F0F0F0"/>
<path d="M113.731 79.7056C113.004 80.1192 113.004 80.7862 113.731 81.1947C114.142 81.3993 114.597 81.5061 115.058 81.5061C115.519 81.5061 115.974 81.3993 116.385 81.1947C117.117 80.7862 117.117 80.1192 116.385 79.7056C115.973 79.5033 115.519 79.3979 115.058 79.3979C114.597 79.3979 114.142 79.5033 113.731 79.7056Z" fill="#F0F0F0"/>
<path d="M105.392 75.259C104.66 75.6675 104.66 76.3345 105.392 76.7481C105.804 76.9504 106.258 77.0557 106.719 77.0557C107.18 77.0557 107.635 76.9504 108.046 76.7481C108.779 76.3345 108.779 75.6675 108.046 75.259C107.635 75.0544 107.18 74.9476 106.719 74.9476C106.258 74.9476 105.803 75.0544 105.392 75.259Z" fill="#F0F0F0"/>
<path d="M117.818 82.7252C118.243 82.3684 118.667 82.5132 118.773 83.0509C118.813 83.3456 118.78 83.6451 118.679 83.9252C118.577 84.2054 118.41 84.4585 118.19 84.6641C118.122 84.7521 118.027 84.8168 117.919 84.8488C117.811 84.8809 117.696 84.8786 117.589 84.8422C117.483 84.8059 117.391 84.7375 117.327 84.6469C117.263 84.5563 117.231 84.4482 117.234 84.3384C117.193 84.0437 117.225 83.7437 117.326 83.4632C117.428 83.1828 117.596 82.9298 117.818 82.7252Z" fill="#FF7622"/>
<path d="M122.77 85.0106L118.439 82.5753L117.494 84.8038L121.831 87.2391L122.77 85.0106Z" fill="#FF7622"/>
<path d="M122.102 85.1501C122.169 85.0622 122.264 84.9975 122.372 84.9654C122.48 84.9334 122.595 84.9357 122.702 84.972C122.808 85.0083 122.9 85.0767 122.964 85.1674C123.028 85.258 123.061 85.366 123.057 85.4759C123.098 85.7706 123.066 86.0704 122.964 86.3508C122.863 86.6312 122.694 86.8842 122.473 87.0891C122.049 87.4458 121.624 87.2959 121.518 86.7633C121.478 86.4687 121.511 86.1691 121.612 85.8888C121.713 85.6085 121.881 85.3555 122.102 85.1501Z" fill="#FF7622"/>
<path d="M122.102 85.1501C122.169 85.0622 122.264 84.9975 122.372 84.9654C122.48 84.9334 122.595 84.9357 122.702 84.972C122.808 85.0083 122.9 85.0767 122.964 85.1674C123.028 85.258 123.061 85.366 123.057 85.4759C123.098 85.7706 123.066 86.0704 122.964 86.3508C122.863 86.6312 122.694 86.8842 122.473 87.0891C122.049 87.4458 121.624 87.2959 121.518 86.7633C121.478 86.4687 121.511 86.1691 121.612 85.8888C121.713 85.6085 121.881 85.3555 122.102 85.1501Z" fill="black"/>
<path d="M85.1377 120.951C85.1377 121.054 85.1377 121.147 85.1377 121.25C85.1377 121.457 85.1377 121.669 85.1377 121.881C84.2778 121.524 83.1579 121.643 81.953 122.336C79.2513 123.856 77.0591 127.553 77.0591 130.609C77.0591 132.026 77.5368 133.05 78.3224 133.582C78.1018 133.735 77.8733 133.876 77.6377 134.006L77.3882 134.13L76.6398 136.876L72.3086 134.523C70.9392 133.753 70.0952 132.109 70.0952 129.761C70.0952 125.071 73.471 119.374 77.6377 117.026C79.6971 115.868 81.5602 115.749 82.9455 116.509L87.1918 118.826L87.2821 118.877L85.1377 120.951Z" fill="#455A64"/>
<path d="M72.2183 112.745L68.9858 123.66L75.4561 127.3L78.8054 116.452L72.2183 112.745Z" fill="#FF7622"/>
<path opacity="0.2" d="M72.2183 112.745L68.9858 123.66L75.4561 127.3L78.8054 116.452L72.2183 112.745Z" fill="black"/>
<path d="M72.2183 112.745C72.2183 112.745 75.886 115.78 78.8053 116.452C82.6376 117.357 88.731 117.455 90.8913 117.6C94.1928 117.823 96.6875 117.817 97.8552 117.409C99.368 116.892 103.434 114.591 104.559 113.96C106.714 112.75 107.632 107.988 101.693 106.685C97.6768 105.875 93.586 105.468 89.4847 105.47L72.2183 112.745Z" fill="#FF7622"/>
<path d="M108.795 111.349C108.61 111.799 108.486 112.27 108.423 112.75C108.252 113.25 108.212 113.783 108.307 114.301C108.711 114.953 109.348 115.437 110.095 115.661C110.634 115.778 111.191 115.785 111.733 115.683C112.274 115.581 112.788 115.371 113.243 115.067C114.342 114.425 115.17 113.65 116.73 113.216C117.846 112.986 118.896 112.522 119.809 111.856C120.674 111.178 121.831 109.307 120.175 108.872C118.519 108.438 114.92 109.969 111.64 110.108L108.795 111.349Z" fill="#37474F"/>
<path d="M108.795 109.353V111.742C108.895 112.01 109.07 112.247 109.299 112.425C109.529 112.602 109.804 112.715 110.095 112.75C110.362 112.788 110.634 112.76 110.886 112.668C111.284 112.52 111.628 112.262 111.877 111.925C112.126 111.589 112.269 111.189 112.287 110.775L112.383 109.353H108.795Z" fill="#FFA8A7"/>
<path d="M113.466 94.5812C113.466 97.5542 112.606 110.408 112.606 110.408C112.606 110.408 111.359 111.959 108.646 110.408L107.733 96.0444L113.466 94.5812Z" fill="#37474F"/>
<path d="M99.2405 107.249L107.733 102.482C108.081 102.304 108.373 102.036 108.576 101.709C108.779 101.381 108.887 101.006 108.887 100.623C108.887 100.24 108.779 99.8644 108.576 99.5368C108.373 99.2092 108.081 98.942 107.733 98.764L101.406 95.2067C101.05 95.0309 100.656 94.9393 100.257 94.9393C99.8577 94.9393 99.464 95.0309 99.1079 95.2067L90.6153 99.9739C90.2688 100.153 89.9789 100.421 89.7767 100.748C89.5746 101.076 89.4678 101.451 89.4678 101.833C89.4678 102.215 89.5746 102.59 89.7767 102.917C89.9789 103.245 90.2688 103.512 90.6153 103.692L96.9422 107.249C97.2984 107.425 97.6921 107.516 98.0914 107.516C98.4907 107.516 98.8844 107.425 99.2405 107.249Z" fill="#FF7622"/>
<path d="M99.2405 107.249L107.733 102.482C108.081 102.304 108.373 102.036 108.576 101.709C108.779 101.381 108.887 101.006 108.887 100.623C108.887 100.24 108.779 99.8644 108.576 99.5368C108.373 99.2092 108.081 98.942 107.733 98.764L101.406 95.2067C101.05 95.0309 100.656 94.9393 100.257 94.9393C99.8577 94.9393 99.464 95.0309 99.1079 95.2067L90.6153 99.9739C90.2688 100.153 89.9789 100.421 89.7767 100.748C89.5746 101.076 89.4678 101.451 89.4678 101.833C89.4678 102.215 89.5746 102.59 89.7767 102.917C89.9789 103.245 90.2688 103.512 90.6153 103.692L96.9422 107.249C97.2984 107.425 97.6921 107.516 98.0914 107.516C98.4907 107.516 98.8844 107.425 99.2405 107.249Z" fill="white"/>
<path d="M90.6152 101.267L96.9421 104.824C97.2983 105 97.692 105.091 98.0913 105.091C98.4906 105.091 98.8842 105 99.2404 104.824L107.733 100.057C107.872 100.011 107.992 99.9239 108.077 99.8079C108.163 99.692 108.209 99.553 108.209 99.4104C108.209 99.2677 108.163 99.1287 108.077 99.0128C107.992 98.8969 107.872 98.8099 107.733 98.764L101.406 95.2067C101.05 95.0309 100.656 94.9393 100.257 94.9393C99.8576 94.9393 99.4639 95.0309 99.1077 95.2067L90.6152 99.9739C90.4765 100.02 90.3561 100.107 90.2708 100.223C90.1855 100.339 90.1396 100.478 90.1396 100.62C90.1396 100.763 90.1855 100.902 90.2708 101.018C90.3561 101.134 90.4765 101.221 90.6152 101.267Z" fill="#FF7622"/>
<path d="M95.7904 69.6232L94.7129 73.9509L90.0845 74.225L91.0824 68.2272L95.7904 69.6232Z" fill="#FFA8A7"/>
<path d="M100.302 66.3657C100.302 66.3657 100.833 68.1961 100.615 68.2995C100.281 68.3492 99.9412 68.3492 99.6069 68.2995L100.302 66.3657Z" fill="#F28F8F"/>
<path d="M99.4158 60.5232C100.159 61.3763 100.838 62.7775 100.313 66.2107C99.7396 69.9645 99.0284 70.3988 98.4551 70.7607C97.7067 71.2364 94.7131 70.9831 93.8691 70.3833C92.8553 69.6646 91.2895 67.3844 90.9179 65.1352C90.4827 62.4931 91.3903 59.5614 93.3861 59.0599C96.194 58.3516 98.7842 59.7993 99.4158 60.5232Z" fill="#FFA8A7"/>
<path d="M90.6156 69.4422C91.3321 70.1661 92.8024 70.3626 93.726 70.528C94.6495 70.6935 97.4893 70.8745 98.3279 68.9045C99.1665 66.9345 98.5933 65.5178 99.623 65.0421C100.653 64.5665 101.682 64.2562 101.953 64.008C102.224 63.7599 102.229 60.518 99.4638 58.8375C96.6984 57.1571 92.4627 56.7694 89.6761 60.1767C87.5636 62.8085 88.4287 67.2189 90.6156 69.4422Z" fill="#455A64"/>
<path d="M93.4019 70.5539C94.1184 70.616 96.3849 70.2695 97.0696 69.3595C97.7543 68.4495 98.0303 66.8208 98.1312 65.9677C98.1404 65.6317 98.2669 65.3088 98.4898 65.0522C98.7127 64.7956 99.0186 64.6207 99.3573 64.5561C100.042 64.3441 101.555 63.6203 101.555 63.6203V63.217C102.043 63.1871 102.532 63.1871 103.02 63.217C103.338 63.2739 103.163 63.734 102.356 64.1322C101.549 64.5303 99.336 65.3007 98.9963 65.5644C98.6566 65.8281 98.4974 66.9397 98.2267 68.1238C97.956 69.3078 97.1174 71.0761 93.4019 70.5539Z" fill="#37474F"/>
<path d="M99.7712 75.4503L102.425 73.9664C102.68 73.2166 102.271 72.8392 101.549 72.8857C100.827 72.9323 101.05 72.2498 100.61 72.0584C100.031 71.7999 99.7022 71.9447 99.4421 71.8258C99.182 71.7069 99.0705 71.407 98.7308 71.3708C97.2128 71.2312 96.1777 73.3407 96.1777 73.3407L99.7712 75.4503Z" fill="#F28F8F"/>
<path d="M81.7563 94.4363C81.7563 94.4363 93.4814 88.7747 95.5249 87.8595C97.5685 86.9443 100.774 85.6155 102.478 85.6155C103.144 85.6691 103.768 85.9548 104.235 86.4202C104.702 86.8855 104.981 87.4994 105.021 88.149C105.043 89.1464 104.984 90.144 104.846 91.1324C101.624 92.1618 98.3321 92.9687 94.9941 93.547C90.1162 94.3743 81.7563 94.4363 81.7563 94.4363Z" fill="#37474F"/>
<path d="M83.0306 91.1635C83.0306 93.5109 82.8024 95.9514 83.8056 97.668C84.8088 99.3846 90.244 103.356 95.3608 102.523C98.7047 101.975 108.63 97.5232 108.63 97.5232C108.63 97.5232 113.445 95.8015 113.466 94.5761C113.498 92.7716 113.37 90.2277 109.172 90.3362C105.345 90.4345 94.055 92.7302 94.055 92.7302L83.0306 91.1635Z" fill="#455A64"/>
<path d="M86.3055 72.5652C88.1208 70.7194 89.3469 70.5642 90.2174 70.7917C92.218 71.3495 94.1548 72.1048 95.9977 73.0461C95.9977 73.0461 95.2971 79.654 98.6145 81.5567V91.8563C98.6145 91.8563 98.5136 92.9732 97.0699 94.0848C95.796 95.0621 92.9138 96.0496 89.4743 95.7704C85.3873 95.4395 83.0306 91.1635 83.0306 91.1635C83.0306 91.1635 82.9244 82.7408 83.503 79.3955C84.1824 75.4917 85.6792 73.2064 86.3055 72.5652Z" fill="#455A64"/>
<path d="M98.6143 82.0582C98.6143 82.0582 96.608 80.5071 95.9976 78.4906C95.9976 78.4906 96.2364 81.6549 98.6143 83.2578V82.0582Z" fill="#37474F"/>
<path d="M117.187 86.9185C118.14 86.9567 119.077 86.6736 119.841 86.1171C119.841 86.1171 120.764 84.3694 121.9 84.5194C121.9 84.5194 122.102 83.7748 121.635 83.5318C121.168 83.2888 120.966 83.356 120.775 83.0975C120.584 82.839 120.562 82.3581 119.713 82.3581C119.363 82.3581 119.411 82.1151 118.561 82.0169C117.712 81.9186 116.873 83.8265 116.252 83.8265L117.187 86.9185Z" fill="#FFA8A7"/>
<path d="M95.9972 73.046C98.9112 73.4855 99.9675 74.3283 101.029 75.2848C102.091 76.2414 108.587 82.5908 108.587 82.5908L116.454 83.6921C116.867 84.0181 117.17 84.4577 117.324 84.9537C117.643 85.8533 117.356 86.8357 117.053 87.0684C117.053 87.0684 109.251 87.5234 107.717 87.239C106.183 86.9547 98.5874 82.0427 98.5874 82.0427C97.8615 81.5094 97.2526 80.8397 96.7967 80.0733C96.3409 79.3069 96.0474 78.4593 95.9335 77.5805C95.4399 74.4627 95.9972 73.046 95.9972 73.046Z" fill="#455A64"/>
<path d="M89.0017 100.357L76.9475 114.689C76.8137 114.706 76.679 114.714 76.5441 114.715C76.0662 114.722 75.5938 114.614 75.1694 114.4L64.9889 108.671L64.2989 108.283C63.9221 108.071 63.6089 107.202 63.6089 106.344V103.929C63.6085 101.449 64.2783 99.0123 65.551 96.8639C66.8238 94.7156 68.6546 92.9315 70.8594 91.6909L83.0144 84.8555L95.9497 92.1304L89.0017 100.357Z" fill="#FF7622"/>
<g opacity="0.1">
<path opacity="0.1" d="M89.0017 100.357L76.9475 114.689C76.8137 114.706 76.679 114.714 76.5441 114.715C76.0662 114.722 75.5938 114.614 75.1694 114.4L64.9889 108.671L64.2989 108.283C63.9221 108.071 63.6089 107.202 63.6089 106.344V103.929C63.6085 101.449 64.2783 99.0123 65.551 96.8639C66.8238 94.7156 68.6546 92.9315 70.8594 91.6909L83.0144 84.8555L95.9497 92.1304L89.0017 100.357Z" fill="black"/>
</g>
<path d="M84.8456 105.3L95.9337 92.1355L82.9985 84.8606L70.8488 91.6908C69.2771 92.5772 67.8907 93.7436 66.7617 95.1292L84.8456 105.3Z" fill="#FF7622"/>
<path d="M95.9338 102.704C95.9338 103.562 95.626 104.431 95.2438 104.643L94.5538 105.031L77.9084 114.395C77.6055 114.554 77.2738 114.654 76.9317 114.689C76.7979 114.706 76.6632 114.714 76.5283 114.715V111.204C76.5279 108.723 77.1983 106.286 78.472 104.138C79.7458 101.989 81.5779 100.205 83.7842 98.9658L85.1589 98.1954L95.9338 92.1304V102.704Z" fill="#FF7622"/>
<g opacity="0.2">
<path opacity="0.2" d="M95.9338 102.704C95.9338 103.562 95.626 104.431 95.2438 104.643L94.5538 105.031L77.9084 114.395C77.6055 114.554 77.2738 114.654 76.9317 114.689C76.7979 114.706 76.6632 114.714 76.5283 114.715V111.204C76.5279 108.723 77.1983 106.286 78.472 104.138C79.7458 101.989 81.5779 100.205 83.7842 98.9658L85.1589 98.1954L95.9338 92.1304V102.704Z" fill="black"/>
</g>
<path d="M99.5058 120.439L106.019 120.418L115.339 115.175L106.21 121.602L99.3359 121.695L99.5058 120.439Z" fill="#E0E0E0"/>
<path d="M83.6938 129.467C83.6938 129.467 95.4347 125.154 96.4326 124.648C97.6038 123.949 98.715 123.158 99.7553 122.285C99.9676 122.011 100.067 121.67 100.035 121.329C100.003 120.987 99.8404 120.67 99.5802 120.439C99.5802 120.439 94.8031 120.227 93.577 120.594C92.8923 120.796 81.8413 124.249 81.8413 124.249L83.6938 129.467Z" fill="#E0E0E0"/>
<path d="M83.1683 124.648C82.197 123.836 81.2203 124.172 80.9815 125.392C80.8902 126.065 80.9633 126.75 81.1948 127.391C81.4263 128.031 81.8097 128.61 82.3137 129.079C83.2851 129.89 84.2617 129.56 84.5006 128.334C84.5914 127.661 84.5181 126.976 84.2866 126.336C84.0551 125.695 83.672 125.117 83.1683 124.648Z" fill="#455A64"/>
</g>
<defs>
<filter id="filter0_d_551_2602" x="0" y="0" width="239" height="194.726" filterUnits="userSpaceOnUse" color-interpolation-filters="sRGB">
<feFlood flood-opacity="0" result="BackgroundImageFix"/>
<feColorMatrix in="SourceAlpha" type="matrix" values="0 0 0 0 0 0 0 0 0 0 0 0 0 0 0 0 0 0 127 0" result="hardAlpha"/>
<feOffset dx="2" dy="2"/>
<feGaussianBlur stdDeviation="2"/>
<feComposite in2="hardAlpha" operator="out"/>
<feColorMatrix type="matrix" values="0 0 0 0 0 0 0 0 0 0 0 0 0 0 0 0 0 0 0.25 0"/>
<feBlend mode="normal" in2="BackgroundImageFix" result="effect1_dropShadow_551_2602"/>
<feBlend mode="normal" in="SourceGraphic" in2="effect1_dropShadow_551_2602" result="shape"/>
</filter>
</defs>
</svg>
