<svg width="83" height="93" viewBox="0 0 83 93" fill="none" xmlns="http://www.w3.org/2000/svg">
<path d="M47.5257 90.3751C43.8132 90.3751 40.1682 89.0551 36.6732 86.4451C33.7557 84.2701 3.80067 57.0601 3.49317 56.7901C1.75317 55.1701 0.118168 52.7476 2.24067 50.4676C3.08817 49.5526 4.15317 49.0726 5.30817 49.0726C6.61317 49.0726 7.97817 49.6651 9.14067 50.7526L21.5232 61.8301C21.7632 62.0401 22.0557 62.1451 22.3482 62.1451C22.6782 62.1451 23.0157 62.0101 23.2557 61.7476C23.7132 61.2526 23.6907 60.4801 23.2032 60.0151L3.39567 40.9726C2.29317 39.9451 1.60317 38.7076 1.46067 37.4701C1.31067 36.2326 1.70817 35.0626 2.61567 34.0951C3.46317 33.1801 4.52817 32.7001 5.68317 32.7001C6.98817 32.7001 8.35317 33.2926 9.51567 34.3801L29.7432 52.7476C29.9832 52.9651 30.2757 53.0701 30.5757 53.0701C30.9057 53.0701 31.2357 52.9351 31.4832 52.6726C31.9482 52.1776 31.9257 51.3976 31.4307 50.9326L7.09317 27.7051C5.99067 26.6776 5.30817 25.4401 5.15817 24.2101C5.00817 22.9726 5.40567 21.8026 6.31317 20.8351C7.16067 19.9201 8.22567 19.4401 9.38067 19.4401C10.6857 19.4401 12.0507 20.0326 13.2132 21.1201L37.9857 43.6201C38.2257 43.8376 38.5182 43.9426 38.8182 43.9426C39.1482 43.9426 39.4782 43.8076 39.7257 43.5526C40.1907 43.0576 40.1682 42.2776 39.6732 41.8126L21.6507 24.5476C19.7307 22.7551 18.7482 19.9426 20.8632 17.6701C21.7107 16.7551 22.7757 16.2751 23.9307 16.2751C25.2357 16.2751 26.6007 16.8676 27.7632 17.9551C34.3482 23.9851 51.5532 39.7501 52.1682 40.3576C52.6482 40.8976 53.1882 41.0176 53.5482 41.0176C54.9432 41.0176 55.6182 39.4426 55.6782 37.8826C55.7457 36.0301 55.2507 33.7351 54.7782 31.5151C54.2607 29.0926 53.7207 26.5876 53.9607 24.8926C54.4332 21.4876 57.5082 19.3126 59.4132 19.3126C59.6382 19.3126 59.8332 19.3426 59.9757 19.4101C62.9007 20.6626 62.8557 22.4176 62.4432 26.6401L62.3607 27.4651C61.9632 31.6726 63.8382 35.5201 65.6532 39.2401C66.4557 40.8901 67.2882 42.6001 67.9182 44.3251C68.2182 45.1501 68.6382 46.0876 69.1332 47.1751C72.4107 54.4351 77.9007 66.5926 64.2357 81.3751C58.7307 87.3526 53.1057 90.3751 47.5257 90.3751Z" fill="url(#paint0_radial_532_70)"/>
<path d="M23.9306 17.52C24.9206 17.52 25.9856 18 26.9306 18.8775C36.2531 27.4125 50.3306 40.3125 51.2681 41.2125C52.1156 42.12 53.0531 42.255 53.5406 42.255C55.4606 42.255 56.8106 40.515 56.9081 37.9275C56.9831 35.9175 56.4731 33.5475 55.9856 31.26C55.4906 28.9425 54.9731 26.5425 55.1831 25.0725C55.5731 22.275 58.1381 20.5575 59.4131 20.5575H59.5031H59.5106C61.5431 21.4275 61.6331 22.26 61.2131 26.5275L61.1306 27.36C60.7031 31.9125 62.6531 35.9175 64.5431 39.795C65.3381 41.4225 66.1556 43.1025 66.7556 44.76C67.0706 45.63 67.5056 46.59 68.0006 47.6925C71.1506 54.675 76.4306 66.3601 63.3206 80.5425C58.0556 86.2351 52.7381 89.1301 47.5181 89.1301C44.0831 89.1301 40.6781 87.8926 37.4081 85.4475C35.0231 83.6701 12.7181 63.495 4.34813 55.89C3.35063 54.96 2.70563 54 2.52563 53.19C2.42063 52.7025 2.40563 52.1026 3.14813 51.3076C3.76313 50.6476 4.49063 50.3101 5.31563 50.3101C6.30563 50.3101 7.37063 50.7901 8.30063 51.6525C8.31563 51.6675 8.32313 51.6751 8.33813 51.6826L20.6981 62.7451C21.1706 63.1651 21.7631 63.375 22.3481 63.375C23.0156 63.375 23.6756 63.1051 24.1631 62.5801C25.0856 61.59 25.0406 60.045 24.0656 59.1075L4.25813 40.08C4.25063 40.0725 4.24313 40.065 4.22813 40.05C3.35063 39.2325 2.80313 38.265 2.69063 37.32C2.58563 36.4425 2.86313 35.64 3.52313 34.935C4.13813 34.275 4.86563 33.9375 5.69063 33.9375C6.68063 33.9375 7.74563 34.4175 8.69813 35.3025L28.9106 53.655C29.3831 54.0826 29.9831 54.3 30.5756 54.3C31.2431 54.3 31.9031 54.0375 32.3906 53.5125C33.3131 52.5225 33.2681 50.97 32.2856 50.0325L7.93313 26.7825C6.58313 25.5225 5.58563 23.43 7.22063 21.6675C7.83563 21.0075 8.56313 20.67 9.38813 20.67C10.3781 20.67 11.4431 21.15 12.3956 22.035L37.1606 44.5275C37.6331 44.955 38.2331 45.1725 38.8256 45.1725C39.4856 45.1725 40.1531 44.91 40.6406 44.385C41.5631 43.395 41.5181 41.8425 40.5431 40.905L22.4831 23.6325C21.6056 22.815 21.0581 21.8475 20.9456 20.9025C20.8406 20.025 21.1181 19.2225 21.7781 18.5175C22.3856 17.8575 23.1131 17.52 23.9306 17.52ZM23.9306 15.045C22.4981 15.045 21.0956 15.6075 19.9556 16.83C17.5256 19.44 18.1706 23.0025 20.7881 25.44L38.8181 42.6975L14.0531 20.205C12.6656 18.915 11.0006 18.195 9.38063 18.195C7.94813 18.195 6.54563 18.7575 5.40563 19.98C2.97563 22.59 3.62063 26.1525 6.23813 28.59L30.5681 51.8175L10.3556 33.4725C8.96813 32.1825 7.30313 31.4625 5.68313 31.4625C4.25063 31.4625 2.84813 32.025 1.70813 33.2475C-0.721866 35.8575 -0.0768664 39.42 2.54063 41.8575L22.3481 60.9L9.98813 49.845C8.60063 48.555 6.93563 47.835 5.31563 47.835C3.88313 47.835 2.48063 48.3976 1.34063 49.6201C-1.08937 52.2301 0.0431337 55.2676 2.66813 57.7051C2.66813 57.7051 32.9381 85.2001 35.9381 87.4351C38.4281 89.2876 42.4481 91.605 47.5331 91.605C52.5356 91.605 58.5581 89.3625 65.1581 82.2225C81.4856 64.5525 71.3006 49.98 69.0956 43.905C67.0406 38.2575 63.0806 33.225 63.6056 27.585C64.0256 23.0925 64.6106 20.0325 60.4706 18.27C60.1631 18.135 59.8031 18.075 59.4206 18.075C56.9756 18.075 53.3081 20.61 52.7381 24.72C52.2431 28.2675 54.5756 34.1475 54.4481 37.83C54.4181 38.745 54.0731 39.7725 53.5556 39.7725C53.4056 39.7725 53.2406 39.69 53.0681 39.495C52.7381 39.1275 28.6181 17.0475 28.6181 17.0475C27.2156 15.7575 25.5506 15.045 23.9306 15.045Z" fill="#EDA600"/>
<path d="M46.5957 91.7626C35.3457 91.7626 29.6307 84.1876 27.2307 79.6726C25.5207 76.4551 10.6707 41.3251 10.5207 40.9726C9.92815 39.4801 9.74065 38.1076 9.98815 37.0426C10.2357 35.9551 10.9332 35.2051 12.1107 34.7326C12.6657 34.5151 13.2207 34.4026 13.7682 34.4026C15.6432 34.4026 17.3532 35.7601 18.2232 37.9501L24.6507 53.2726C24.8532 53.7451 25.3107 54.0301 25.7907 54.0301C25.9407 54.0301 26.0982 54.0001 26.2482 53.9401C26.8782 53.6926 27.1857 52.9801 26.9457 52.3501L17.2257 26.6551C16.2582 24.2101 16.5807 21.2476 19.4682 20.1076C20.0232 19.8901 20.5782 19.7776 21.1257 19.7776C23.0082 19.7776 24.7107 21.1351 25.5807 23.3251L35.9682 48.5926C36.1632 49.0726 36.6282 49.3576 37.1157 49.3576C37.2657 49.3576 37.4232 49.3276 37.5732 49.2676C38.2032 49.0201 38.5182 48.3076 38.2707 47.6776L26.2632 16.2526C25.2957 13.8151 25.6182 10.8526 28.5057 9.70506C29.0607 9.48756 29.6157 9.37506 30.1632 9.37506C32.0457 9.37506 33.7482 10.7326 34.6182 12.9226L47.3382 43.8751C47.5332 44.3551 47.9982 44.6401 48.4857 44.6401C48.6357 44.6401 48.7932 44.6101 48.9432 44.5501C49.5732 44.3026 49.8882 43.5901 49.6482 42.9601L40.7532 19.6501C39.7857 17.2051 40.1082 14.2501 42.9957 13.1026C43.5507 12.8851 44.1057 12.7726 44.6532 12.7726C46.5357 12.7726 48.2382 14.1301 49.1082 16.3201C52.4682 24.5926 61.2507 46.2076 61.5357 47.0251C61.8207 48.0076 62.5932 48.3676 63.2082 48.3676C64.5807 48.3676 65.5107 46.7776 65.7657 46.2901C66.5232 44.8351 66.7332 43.1701 66.9507 41.4151C67.2657 38.8726 67.5957 36.2401 69.6657 33.9751C71.3832 32.0926 73.5882 31.0126 75.6957 31.0126C76.7007 31.0126 77.6082 31.2601 78.3057 31.7251C80.0457 32.8876 80.1357 34.0126 79.9932 34.9576C79.7382 36.6526 78.4032 38.8351 77.1357 40.7401C74.5257 44.6551 74.2182 50.5876 73.9482 55.8226C73.8657 57.3676 73.7907 58.8226 73.6632 60.1726C73.5582 61.2901 73.5957 62.6326 73.6482 64.1776C73.8882 72.0226 74.2557 83.8726 57.1182 89.8051C53.3982 91.1101 49.8582 91.7626 46.5957 91.7626Z" fill="url(#paint1_radial_532_70)"/>
<path d="M30.1556 10.6201C31.5131 10.6201 32.7806 11.6776 33.4706 13.4176L46.1831 44.3551C46.5731 45.3151 47.5031 45.8926 48.4781 45.8926C48.7781 45.8926 49.0931 45.8401 49.3856 45.7201C50.6456 45.2176 51.2681 43.8001 50.7881 42.5326L41.9006 19.1776C41.4581 18.0601 41.3831 16.9501 41.6831 16.0501C41.9606 15.2101 42.5606 14.6101 43.4531 14.2576C43.8656 14.0926 44.2706 14.0101 44.6531 14.0101C46.0106 14.0101 47.2781 15.0676 47.9606 16.8001C52.7231 28.5151 59.9006 46.2076 60.3581 47.4226C60.7856 48.7576 61.8956 49.6126 63.2006 49.6126C65.2706 49.6126 66.5231 47.5126 66.8606 46.8676C67.7231 45.2101 67.9556 43.3651 68.1731 41.5801C68.4806 39.1201 68.7731 36.7951 70.5731 34.8226C72.0581 33.1951 73.9256 32.2576 75.6881 32.2576C76.4381 32.2576 77.1206 32.4376 77.6081 32.7601C78.8306 33.5776 78.8531 34.1551 78.7631 34.7776C78.5456 36.2401 77.2256 38.3701 76.0931 40.0576C73.2956 44.2576 72.9806 50.3701 72.6956 55.7626C72.6131 57.2926 72.5381 58.7401 72.4181 60.0601C72.3056 61.2526 72.3431 62.6326 72.3956 64.2226C72.5156 68.0026 72.6581 72.7126 70.7531 77.1676C68.5181 82.3876 63.9206 86.1376 56.6981 88.6426C53.1131 89.8876 49.7081 90.5176 46.5806 90.5176C35.9756 90.5176 30.5831 83.3551 28.3106 79.0876C26.9081 76.4626 15.8231 50.3776 11.6606 40.5151C10.2056 36.8176 11.9681 36.1126 12.5531 35.8801C12.9656 35.7151 13.3706 35.6326 13.7531 35.6326C15.1106 35.6326 16.3781 36.6901 17.0531 38.4001L17.0756 38.4451L23.4956 53.7376C23.8931 54.6826 24.8081 55.2601 25.7831 55.2601C26.0906 55.2601 26.3981 55.2001 26.6981 55.0801C27.9506 54.5776 28.5731 53.1676 28.1006 51.9001L18.3806 26.2126C18.3731 26.1976 18.3731 26.1901 18.3656 26.1751C17.9231 25.0576 17.8481 23.9476 18.1481 23.0476C18.4256 22.2076 19.0256 21.6076 19.9181 21.2551C20.3306 21.0901 20.7356 21.0076 21.1181 21.0076C22.4756 21.0076 23.7431 22.0651 24.4331 23.8051L34.8131 49.0576C35.2031 50.0176 36.1331 50.5951 37.1081 50.5951C37.4156 50.5951 37.7231 50.5351 38.0231 50.4226C39.2831 49.9201 39.9056 48.5026 39.4256 47.2351L27.4031 15.7801C26.7206 14.0626 26.7206 11.7451 28.9556 10.8601C29.3606 10.7026 29.7656 10.6201 30.1556 10.6201ZM30.1556 8.13763C29.4731 8.13763 28.7606 8.27263 28.0406 8.55763C24.7256 9.87013 23.7806 13.3651 25.1006 16.6951L37.1081 48.1201L26.7281 22.8676C25.6931 20.2651 23.5781 18.5326 21.1256 18.5326C20.4431 18.5326 19.7306 18.6676 19.0106 18.9526C15.6956 20.2651 14.7506 23.7601 16.0706 27.0901L25.7906 52.7926L19.3706 37.5001C18.3356 34.8976 16.2206 33.1651 13.7681 33.1651C13.0856 33.1651 12.3731 33.3001 11.6531 33.5851C8.3381 34.8976 8.0606 38.1301 9.3806 41.4601C9.3806 41.4601 24.3806 76.9576 26.1431 80.2651C28.9406 85.5226 35.2031 93.0001 46.5956 93.0001C49.8131 93.0001 53.4431 92.4076 57.5231 90.9901C78.9956 83.5576 74.2931 66.7276 74.9006 60.3001C75.4706 54.3151 75.0281 46.1551 78.1706 41.4376C81.4706 36.4801 82.7381 33.1951 78.9956 30.6976C78.1031 30.1051 76.9556 29.7751 75.6956 29.7751C73.4681 29.7751 70.8881 30.7951 68.7506 33.1426C64.9556 37.3051 66.3656 42.4501 64.6631 45.7201C64.2881 46.4401 63.6656 47.1301 63.2006 47.1301C62.9906 47.1301 62.8106 46.9876 62.7056 46.6276C62.5631 46.1551 50.2481 15.8551 50.2481 15.8551C49.2131 13.2526 47.0981 11.5201 44.6456 11.5201C43.9631 11.5201 43.2506 11.6551 42.5306 11.9401C39.2156 13.2526 38.2706 16.7476 39.5906 20.0776L48.4706 43.4026L35.7581 12.4726C34.7306 9.87013 32.6156 8.13763 30.1556 8.13763Z" fill="#EDA600"/>
<path d="M67.6931 22.8224L80.3606 17.8649" stroke="#B0BEC5" stroke-width="4.98457" stroke-miterlimit="10" stroke-linecap="round" stroke-linejoin="round"/>
<path d="M55.8581 15.1125L54.7556 3" stroke="#B0BEC5" stroke-width="4.98457" stroke-miterlimit="10" stroke-linecap="round" stroke-linejoin="round"/>
<path d="M63.9656 16.575L72.3731 4.10254" stroke="#B0BEC5" stroke-width="4.98457" stroke-miterlimit="10" stroke-linecap="round" stroke-linejoin="round"/>
<defs>
<radialGradient id="paint0_radial_532_70" cx="0" cy="0" r="1" gradientUnits="userSpaceOnUse" gradientTransform="translate(20.5435 34.5225) rotate(-47.026) scale(64.4437 64.4437)">
<stop offset="0.6" stop-color="#FFB300"/>
<stop offset="0.8984" stop-color="#FFCA28"/>
</radialGradient>
<radialGradient id="paint1_radial_532_70" cx="0" cy="0" r="1" gradientUnits="userSpaceOnUse" gradientTransform="translate(36.0294 28.3521) rotate(-21.6163) scale(65.4994 65.4994)">
<stop offset="0.3533" stop-color="#FFCA28"/>
<stop offset="0.8723" stop-color="#FFB300"/>
</radialGradient>
</defs>
</svg>
