<svg width="129" height="90" viewBox="0 0 129 90" fill="none" xmlns="http://www.w3.org/2000/svg">
<path d="M49.3823 19.3526C53.4464 15.8262 63.7354 7.47232 72.3258 5.25753C74.5299 4.68771 76.5189 4.41892 78.3896 4.41892C81.7225 4.41892 84.1309 5.31129 86.4532 6.16065C88.5282 6.924 90.6785 7.7196 93.2373 7.7196C94.3662 7.7196 95.4843 7.56908 96.6562 7.26804C98.1507 6.88099 99.6559 5.89186 101.247 4.84898C103.569 3.33303 106.203 1.60205 109.063 1.60205C111.407 1.60205 113.729 2.7417 116.17 5.09626L123.707 12.1707C127.438 15.9229 127.685 21.0513 127.233 24.6746C126.126 33.5767 119.428 44.0916 111.805 49.0587L49.3823 19.3526Z" fill="url(#paint0_radial_532_50)"/>
<path d="M109.063 3.22542C110.966 3.22542 112.923 4.2253 115.073 6.30032L122.546 13.321C125.18 15.9981 126.212 19.7503 125.621 24.4917C124.599 32.6843 118.6 42.3175 111.654 47.2202L52.3067 18.9655C57.0266 15.052 65.5202 8.66563 72.7129 6.81639C74.7879 6.28957 76.6372 6.02079 78.3789 6.02079C81.4215 6.02079 83.5933 6.81639 85.8834 7.66575C88.0982 8.48286 90.3775 9.32147 93.2266 9.32147C94.4952 9.32147 95.7424 9.1602 97.0541 8.81615C98.8066 8.36459 100.419 7.31095 102.129 6.19281C104.376 4.74137 106.687 3.22542 109.063 3.22542ZM109.063 0C103.688 0 99.5269 4.85964 96.2477 5.709C95.1618 5.98853 94.162 6.1068 93.2373 6.1068C88.3239 6.1068 85.12 2.79537 78.3897 2.79537C76.5404 2.79537 74.4224 3.04265 71.9173 3.68773C60.4456 6.63362 46.4902 19.7503 46.4902 19.7503L111.913 50.8971C124.33 43.4464 135.297 21.5673 124.803 10.9987L117.288 3.93501C114.267 1.03213 111.536 0 109.063 0Z" fill="#EDA600"/>
<path d="M67.1867 87.624C65.5202 87.624 63.886 87.0219 62.6174 85.9253L11.3117 40.5866C5.43066 35.3829 1.80743 28.8783 1.62466 23.1693C1.49564 19.1053 3.06535 15.3961 6.29077 12.1492L13.7737 5.12849C16.2251 2.76318 18.5474 1.62354 20.8912 1.62354C23.751 1.62354 26.3851 3.34376 28.7074 4.87046C30.2987 5.91335 31.8039 6.90247 33.2983 7.28953C34.4702 7.59056 35.5883 7.74108 36.7172 7.74108C39.2761 7.74108 41.4156 6.94548 43.4906 6.18213C45.8129 5.32202 48.2212 4.4404 51.5542 4.4404C53.4357 4.4404 55.4139 4.71994 57.618 5.27901C68.5521 8.08513 82.2064 20.8255 82.3462 20.9546L112.665 47.9406C115.676 50.5209 116.041 55.0473 113.515 58.0577L113.299 58.3157C111.956 59.9176 109.988 60.8315 107.902 60.8315C106.784 60.8315 105.666 60.5627 104.677 60.0467C104.44 59.9284 104.193 59.8639 103.935 59.8639C103.58 59.8639 103.225 59.9822 102.935 60.2187C102.441 60.6165 102.215 61.2616 102.376 61.8744C102.946 64.1322 102.398 66.5298 100.914 68.2822L100.699 68.5403C99.3549 70.1422 97.3874 71.0561 95.3124 71.0561C93.7319 71.0561 92.2375 70.54 90.9903 69.5724C90.7 69.3466 90.356 69.2284 90.0012 69.2284C89.7217 69.2284 89.4314 69.3036 89.1841 69.4541C88.6143 69.7874 88.3025 70.4433 88.41 71.0991C88.7325 73.1741 88.152 75.2706 86.8188 76.8619L86.6038 77.1199C85.2598 78.7219 83.2923 79.6357 81.2065 79.6357C79.6906 79.6357 78.2392 79.1519 77.0242 78.2488C76.7447 78.0338 76.4007 77.937 76.0674 77.937C75.7986 77.937 75.5298 78.0015 75.2825 78.1413C74.7342 78.4423 74.4009 79.0444 74.4547 79.6787C74.6052 81.5817 74.0139 83.4202 72.7882 84.8717L72.5732 85.1297C71.24 86.7101 69.2725 87.624 67.1867 87.624Z" fill="url(#paint1_radial_532_50)"/>
<path d="M20.8804 3.22542C23.2672 3.22542 25.5788 4.74137 27.815 6.20356C29.5245 7.32171 31.1372 8.37534 32.8897 8.8269C34.2014 9.17095 35.4485 9.33222 36.7172 9.33222C39.5556 9.33222 41.8456 8.48286 44.0497 7.6765C46.3397 6.82714 48.5115 6.03154 51.5541 6.03154C53.2959 6.03154 55.1451 6.28957 57.2201 6.82714C67.7458 9.52574 81.1205 21.9866 81.2495 22.1156C81.271 22.1371 81.2925 22.1586 81.314 22.1694L111.601 49.1232L111.644 49.1662C113.955 51.1444 114.246 54.6601 112.278 57.0039L112.063 57.262C111.02 58.4984 109.515 59.208 107.902 59.208C107.042 59.208 106.182 59.0037 105.419 58.6059C104.956 58.3694 104.44 58.2511 103.935 58.2511C103.225 58.2511 102.516 58.4876 101.924 58.9499C100.935 59.7348 100.495 61.0357 100.806 62.2614C101.247 64.0139 100.828 65.8738 99.6774 67.2393L99.4624 67.4973C98.4195 68.7337 96.9143 69.4433 95.3124 69.4433C94.0975 69.4433 92.9471 69.0455 91.9794 68.2929C91.3989 67.8414 90.7 67.6156 90.0012 67.6156C89.4421 67.6156 88.8723 67.7661 88.367 68.0671C87.2273 68.7445 86.6145 70.0454 86.8188 71.3463C87.0768 72.959 86.6252 74.5932 85.5823 75.8189L85.3673 76.0769C84.3244 77.3133 82.8192 78.0229 81.2065 78.0229C80.0346 78.0229 78.9272 77.6574 77.9811 76.9585C77.4113 76.5392 76.7339 76.3242 76.0566 76.3242C75.519 76.3242 74.9815 76.4532 74.4977 76.722C73.3903 77.3348 72.7452 78.539 72.8419 79.7969C72.9602 81.2699 72.4979 82.6998 71.5518 83.8287L71.3367 84.0867C70.2938 85.3231 68.7779 86.0327 67.1652 86.0327C65.875 86.0327 64.6279 85.5704 63.6817 84.7641L12.3545 39.3931C6.8068 34.4798 3.38786 28.4052 3.21583 23.137C3.09757 19.503 4.463 16.2991 7.37663 13.3425L14.8919 6.28957C17.0206 4.2253 18.9774 3.22542 20.8804 3.22542ZM20.8804 0C18.4076 0 15.6767 1.03213 12.6556 3.94577L5.14033 11.0094C-5.35304 21.5781 2.19445 34.684 10.2365 41.7907L61.5637 87.1616C63.1979 88.5593 65.1977 89.2474 67.1867 89.2474C69.6488 89.2474 72.1001 88.1938 73.8203 86.151L74.0353 85.893C75.5835 84.0545 76.2501 81.7644 76.0674 79.5389C77.6048 80.6785 79.411 81.2376 81.2173 81.2376C83.6794 81.2376 86.1199 80.184 87.8401 78.1412L88.0552 77.8832C89.7646 75.8512 90.3882 73.2708 90.0012 70.8302C91.5816 72.0559 93.4524 72.658 95.3124 72.658C97.7744 72.658 100.215 71.6043 101.935 69.5723L102.15 69.3143C104.043 67.0673 104.612 64.1321 103.935 61.4658C105.182 62.1109 106.537 62.4226 107.892 62.4226C110.354 62.4226 112.794 61.3798 114.514 59.337L114.729 59.079C117.837 55.3805 117.385 49.8543 113.719 46.7148L83.4536 19.7611C83.4536 19.7611 69.4875 6.63362 58.0265 3.69848C55.5322 3.0534 53.4141 2.80612 51.5541 2.80612C44.8345 2.80612 41.6306 6.11755 36.7065 6.11755C35.7711 6.11755 34.782 5.99928 33.6961 5.71975C30.4169 4.85963 26.2561 0 20.8804 0Z" fill="#EDA600"/>
<path d="M28.3097 69.5721C26.0412 69.5721 23.9339 68.4432 22.6545 66.5617C20.5149 63.4116 21.3105 59.0787 24.4392 56.9177L36.2442 48.7574C37.3946 47.9618 38.7278 47.5425 40.104 47.5425C42.3725 47.5425 44.4798 48.6714 45.7592 50.5529C47.8988 53.703 47.1032 58.0358 43.9745 60.1969L32.1695 68.3572C31.0298 69.1528 29.6966 69.5721 28.3097 69.5721Z" fill="url(#paint2_radial_532_50)"/>
<path d="M40.1039 49.1659C41.8348 49.1659 43.4476 50.026 44.4259 51.4667C46.0709 53.8965 45.4581 57.2187 43.0605 58.8744L31.2555 67.0347C30.3846 67.6368 29.3632 67.9593 28.3096 67.9593C26.5786 67.9593 24.9659 67.0992 23.9875 65.6585C22.3426 63.2287 22.9554 59.9065 25.3529 58.2508L37.158 50.0905C38.0289 49.4884 39.0502 49.1659 40.1039 49.1659ZM40.1039 45.9404C38.4589 45.9404 36.7924 46.4242 35.3195 47.4349L23.5145 55.5952C19.6547 58.2615 18.6656 63.5727 21.3104 67.4647C22.9554 69.8838 25.6002 71.174 28.3096 71.174C29.9545 71.174 31.621 70.6902 33.094 69.6795L44.899 61.5192C48.7588 58.8529 49.7479 53.5417 47.103 49.6497C45.4581 47.2413 42.8025 45.9404 40.1039 45.9404Z" fill="#EDA600"/>
<path d="M52.7475 88.398C51.0703 88.398 49.4576 87.7744 48.1996 86.6455C45.372 84.1081 45.114 79.7108 47.6298 76.851L54.5 69.0669C55.8009 67.594 57.6716 66.7446 59.6176 66.7446C61.2949 66.7446 62.9076 67.3682 64.1655 68.4971C66.9931 71.0344 67.2511 75.4318 64.7353 78.2916L57.8652 86.0756C56.5642 87.5486 54.7042 88.398 52.7475 88.398Z" fill="url(#paint3_radial_532_50)"/>
<path d="M59.6285 68.368C60.9079 68.368 62.1443 68.8411 63.1012 69.7012C65.2729 71.6579 65.4665 75.0339 63.5312 77.2272L56.6611 85.0112C55.6719 86.1401 54.242 86.7852 52.7476 86.7852C51.4681 86.7852 50.2317 86.3121 49.2749 85.452C47.1031 83.4952 46.9096 80.1193 48.8448 77.926L55.715 70.142C56.7041 69.0131 58.134 68.368 59.6285 68.368ZM59.6285 65.1426C57.2954 65.1426 54.9731 66.1102 53.2959 68.0024L46.4257 75.7865C43.3186 79.3129 43.6304 84.7101 47.1246 87.8388C48.7373 89.2902 50.7478 89.9998 52.7476 89.9998C55.0806 89.9998 57.4029 89.0322 59.0801 87.1399L65.9503 79.3559C69.0574 75.8295 68.7457 70.4323 65.2514 67.3036C63.6387 65.8522 61.6282 65.1426 59.6285 65.1426Z" fill="#EDA600"/>
<path d="M19.6869 58.1543C17.3109 58.1543 15.1499 56.9394 13.9027 54.9074C11.9244 51.682 12.9136 47.4352 16.1067 45.4354L23.2994 40.9413C24.3746 40.2747 25.611 39.9092 26.8689 39.9092C29.2449 39.9092 31.406 41.1241 32.6531 43.1561C34.6314 46.3815 33.6423 50.6283 30.4491 52.6173L23.2564 57.1114C22.1813 57.7995 20.9449 58.1543 19.6869 58.1543Z" fill="url(#paint4_radial_532_50)"/>
<path d="M26.8689 41.5326C28.6752 41.5326 30.3309 42.4572 31.277 44.0161C32.793 46.4889 32.0404 49.7466 29.589 51.2733L22.4071 55.7567C21.59 56.2727 20.6546 56.5415 19.6977 56.5415C17.8915 56.5415 16.2358 55.6169 15.2897 54.0579C13.7737 51.5851 14.5263 48.3274 16.9776 46.8007L24.1703 42.3067C24.9767 41.8013 25.9121 41.5326 26.8689 41.5326ZM26.8689 38.3071C25.353 38.3071 23.8263 38.7157 22.4501 39.5758L15.2574 44.0699C11.3117 46.532 10.086 51.7679 12.5373 55.7459C14.1285 58.337 16.8809 59.7669 19.6977 59.7669C21.2137 59.7669 22.7404 59.3584 24.1166 58.4983L31.3093 54.0042C35.255 51.5421 36.4807 46.3062 34.0294 42.3282C32.4382 39.7263 29.6858 38.3071 26.8689 38.3071Z" fill="#EDA600"/>
<path d="M38.3514 82.0654C36.5774 82.0654 34.9002 81.3666 33.6423 80.0979C31.0405 77.4746 31.0405 73.1955 33.6423 70.5614L46.2644 57.8318C47.5224 56.5631 49.1996 55.8643 50.9736 55.8643C52.7475 55.8643 54.4248 56.5631 55.6827 57.8318C58.2953 60.4659 58.2953 64.7342 55.6827 67.3683L43.0605 80.0979C41.8026 81.3666 40.1254 82.0654 38.3514 82.0654Z" fill="url(#paint5_radial_532_50)"/>
<path d="M50.9735 57.4769C52.3174 57.4769 53.5861 58.0037 54.543 58.9713C56.532 60.9711 56.532 64.2288 54.543 66.2393L41.9101 78.9582C40.9532 79.9151 39.6953 80.4526 38.3406 80.4526C36.9859 80.4526 35.728 79.9258 34.7711 78.9582C32.7821 76.9584 32.7821 73.7008 34.7711 71.6902L47.3933 58.9606C48.3609 58.0037 49.6188 57.4769 50.9735 57.4769ZM50.9735 54.2515C48.8555 54.2515 46.7374 55.0686 45.114 56.692L32.4918 69.4217C29.2557 72.6794 29.2557 77.9691 32.4918 81.2267C34.1045 82.861 36.2226 83.6673 38.3513 83.6673C40.4694 83.6673 42.5874 82.8502 44.2109 81.2267L56.833 68.4971C60.0692 65.2394 60.0692 59.9497 56.833 56.692C55.2095 55.0686 53.0915 54.2515 50.9735 54.2515Z" fill="#EDA600"/>
<path d="M51.2746 29.3836C48.4577 29.3836 46.888 28.4052 45.286 25.6314C43.297 22.1909 44.4367 18.3419 48.1029 16.0089L72.9709 4.94568C73.9923 4.59088 75.6157 4.37585 77.4542 4.37585C82.8729 4.37585 88.0336 6.04232 88.7432 8.00983C88.7755 8.10659 88.8185 8.1926 88.8722 8.27862L96.796 21.7179C96.8175 21.8039 96.8175 21.8469 96.8175 21.8684C96.7638 21.8684 96.1617 22.2769 94.0436 22.2769C90.9902 22.2769 86.2489 21.4061 81.6903 20.0084C80.7442 19.7181 79.7013 19.5676 78.6046 19.5676C73.4977 19.5676 67.6812 22.6963 62.5528 25.4486C59.4564 27.1151 56.5213 28.6848 54.6613 29.0181C53.3388 29.2654 52.2314 29.3836 51.2746 29.3836Z" fill="url(#paint6_linear_532_50)"/>
<path d="M77.4649 5.9886C82.8084 5.9886 86.8294 7.65507 87.238 8.55819C87.3025 8.75172 87.3885 8.93449 87.496 9.10651L94.3231 20.675H94.0651C91.1622 20.675 86.6036 19.8364 82.1848 18.471C81.0774 18.1377 79.884 17.9657 78.6261 17.9657C73.1106 17.9657 67.1006 21.1911 61.8109 24.0402C58.9618 25.5777 56.0051 27.1581 54.4032 27.4484C53.1668 27.6634 52.1454 27.771 51.2853 27.771C49.2855 27.771 48.1566 27.3409 46.6944 24.8251C45.1677 22.1802 46.0278 19.2988 48.8877 17.4389L73.5837 6.45092C74.4223 6.16063 75.863 5.9886 77.4649 5.9886ZM77.4649 2.76318C75.4437 2.76318 73.6159 2.98896 72.3795 3.44052L47.3503 14.579C42.8562 17.3636 41.4692 22.2447 43.8883 26.427C45.7375 29.6202 47.7911 30.9856 51.2745 30.9856C52.3497 30.9856 53.5646 30.8566 54.9515 30.6093C60.2197 29.6739 70.7561 21.1803 78.6153 21.1803C79.5292 21.1803 80.4001 21.2986 81.2279 21.5459C85.4855 22.8576 90.5386 23.8897 94.0544 23.8897C97.1077 23.8897 99.0215 23.1048 98.2797 21.0513L90.2591 7.46155C89.1302 4.26838 82.6471 2.76318 77.4649 2.76318Z" fill="#EDA600"/>
<defs>
<radialGradient id="paint0_radial_532_50" cx="0" cy="0" r="1" gradientUnits="userSpaceOnUse" gradientTransform="translate(88.4877 11.9278) rotate(83.2169) scale(41.2769 31.8766)">
<stop offset="0.5993" stop-color="#FFCA28"/>
<stop offset="1" stop-color="#FFB300"/>
</radialGradient>
<radialGradient id="paint1_radial_532_50" cx="0" cy="0" r="1" gradientUnits="userSpaceOnUse" gradientTransform="translate(58.9582 20.0275) rotate(96.7831) scale(65.3447 50.4632)">
<stop offset="0.5993" stop-color="#FFCA28"/>
<stop offset="1" stop-color="#FFB300"/>
</radialGradient>
<radialGradient id="paint2_radial_532_50" cx="0" cy="0" r="1" gradientUnits="userSpaceOnUse" gradientTransform="translate(41.4381 53.115) rotate(144.745) scale(17.8484 11.7745)">
<stop offset="0.5993" stop-color="#FFCA28"/>
<stop offset="1" stop-color="#FFB300"/>
</radialGradient>
<radialGradient id="paint3_radial_532_50" cx="0" cy="0" r="1" gradientUnits="userSpaceOnUse" gradientTransform="translate(61.0084 71.6061) rotate(130.726) scale(15.3818 11.5783)">
<stop offset="0.5993" stop-color="#FFCA28"/>
<stop offset="1" stop-color="#FFB300"/>
</radialGradient>
<radialGradient id="paint4_radial_532_50" cx="0" cy="0" r="1" gradientUnits="userSpaceOnUse" gradientTransform="translate(28.5234 45.6083) rotate(148.133) scale(13.6099 10.0425)">
<stop offset="0.5993" stop-color="#FFCA28"/>
<stop offset="1" stop-color="#FFB300"/>
</radialGradient>
<radialGradient id="paint5_radial_532_50" cx="0" cy="0" r="1" gradientUnits="userSpaceOnUse" gradientTransform="translate(52.9011 60.816) rotate(45.2391) scale(15.3666 18.4418)">
<stop offset="0.5993" stop-color="#FFCA28"/>
<stop offset="1" stop-color="#FFB300"/>
</radialGradient>
<linearGradient id="paint6_linear_532_50" x1="61.7894" y1="11.4809" x2="74.1995" y2="33.9823" gradientUnits="userSpaceOnUse">
<stop offset="0.5993" stop-color="#FFCA28"/>
<stop offset="1" stop-color="#FFB300"/>
</linearGradient>
</defs>
</svg>
