<svg width="88" height="88" viewBox="0 0 88 88" fill="none" xmlns="http://www.w3.org/2000/svg">
<circle cx="44" cy="44" r="44" fill="#54B435"/>
<path d="M56.21 33.5C56.851 33.5 57.4139 33.7039 57.8525 34.1367C58.2915 34.5701 58.5 35.1286 58.5 35.7666C58.5 36.4055 58.2919 36.9649 57.8525 37.3984L41.167 53.8633C40.9402 54.0871 40.682 54.2578 40.3916 54.3594L40.3906 54.3584C40.1221 54.4534 39.8394 54.5 39.5459 54.5C39.2515 54.5 38.9675 54.4541 38.6982 54.3584V54.3574C38.409 54.2557 38.1518 54.0864 37.9258 53.8633L30.127 46.168C29.6836 45.7305 29.4832 45.1652 29.501 44.5225V44.5205C29.5202 43.8872 29.7372 43.3353 30.1719 42.9062C30.6077 42.4761 31.1621 42.2695 31.793 42.2695C32.4238 42.2696 32.9773 42.4762 33.4131 42.9062L39.5459 48.957L54.5654 34.1367C55.0043 33.7037 55.568 33.5 56.21 33.5Z" fill="white" stroke="white"/>
</svg>
