<svg width="24" height="24" viewBox="0 0 24 24" fill="none" xmlns="http://www.w3.org/2000/svg">
<path d="M7.616 22C7.168 22 6.78667 21.8427 6.472 21.528C6.15733 21.2133 6 20.8323 6 20.385V3.615C6 3.155 6.15433 2.771 6.463 2.463C6.77167 2.155 7.156 2.00067 7.616 2H16.462C16.9087 2 17.2897 2.15733 17.605 2.472C17.9197 2.78667 18.077 3.168 18.077 3.616V6.83C18.3257 6.85667 18.5417 6.96 18.725 7.14C18.9083 7.31933 19 7.53533 19 7.788V9.557C19 9.80967 18.9083 10.0257 18.725 10.205C18.5417 10.3843 18.3257 10.4877 18.077 10.515V20.384C18.077 20.8307 17.9197 21.2117 17.605 21.527C17.2903 21.8417 16.9093 21.999 16.462 21.999L7.616 22ZM7.616 21H16.462C16.6413 21 16.7887 20.9423 16.904 20.827C17.0193 20.7117 17.077 20.5643 17.077 20.385V3.615C17.077 3.43567 17.0193 3.28833 16.904 3.173C16.7887 3.05767 16.6413 3 16.462 3H7.616C7.436 3 7.28833 3.05767 7.173 3.173C7.05767 3.28833 7 3.436 7 3.616V20.385C7 20.5643 7.05767 20.7117 7.173 20.827C7.28833 20.9423 7.436 21 7.616 21ZM8.885 11.596H15.192C15.3347 11.596 15.4537 11.5483 15.549 11.453C15.6443 11.357 15.692 11.238 15.692 11.096C15.692 10.954 15.6443 10.835 15.549 10.739C15.4537 10.643 15.3347 10.5953 15.192 10.596H8.885C8.74233 10.596 8.62333 10.644 8.528 10.74C8.432 10.8353 8.384 10.954 8.384 11.096C8.384 11.2387 8.432 11.3577 8.528 11.453C8.62333 11.5483 8.74233 11.596 8.885 11.596Z" fill="black"/>
<path d="M7 21V3M7.616 22C7.168 22 6.78667 21.8427 6.472 21.528C6.15733 21.2133 6 20.8323 6 20.385V3.615C6 3.155 6.15433 2.771 6.463 2.463C6.77167 2.155 7.156 2.00067 7.616 2H16.462C16.9087 2 17.2897 2.15733 17.605 2.472C17.9197 2.78667 18.077 3.168 18.077 3.616V6.83C18.3257 6.85667 18.5417 6.96 18.725 7.14C18.9083 7.31933 19 7.53533 19 7.788V9.557C19 9.80967 18.9083 10.0257 18.725 10.205C18.5417 10.3843 18.3257 10.4877 18.077 10.515V20.384C18.077 20.8307 17.9197 21.2117 17.605 21.527C17.2903 21.8417 16.9093 21.999 16.462 21.999L7.616 22ZM7.616 21H16.462C16.6413 21 16.7887 20.9423 16.904 20.827C17.0193 20.7117 17.077 20.5643 17.077 20.385V3.615C17.077 3.43567 17.0193 3.28833 16.904 3.173C16.7887 3.05767 16.6413 3 16.462 3H7.616C7.436 3 7.28833 3.05767 7.173 3.173C7.05767 3.28833 7 3.436 7 3.616V20.385C7 20.5643 7.05767 20.7117 7.173 20.827C7.28833 20.9423 7.436 21 7.616 21ZM8.885 11.596H15.192C15.3347 11.596 15.4537 11.5483 15.549 11.453C15.6443 11.357 15.692 11.238 15.692 11.096C15.692 10.954 15.6443 10.835 15.549 10.739C15.4537 10.643 15.3347 10.5953 15.192 10.596H8.885C8.74233 10.596 8.62333 10.644 8.528 10.74C8.432 10.8353 8.384 10.954 8.384 11.096C8.384 11.2387 8.432 11.3577 8.528 11.453C8.62333 11.5483 8.74233 11.596 8.885 11.596Z" stroke="black" stroke-width="0.5"/>
</svg>
