<svg width="24" height="24" viewBox="0 0 24 24" fill="none" xmlns="http://www.w3.org/2000/svg">
<path d="M7.74885 16.2857L16.3203 7.7143M0.857422 18.8572C0.857421 19.3112 1.03756 19.7467 1.35831 20.0681C1.67906 20.3895 2.11422 20.5705 2.56828 20.5714H21.4323C21.8863 20.5705 22.3215 20.3895 22.6422 20.0681C22.963 19.7467 23.1431 19.3112 23.1431 18.8572V15.3703C22.403 15.1696 21.7494 14.7308 21.2835 14.1217C20.8175 13.5125 20.5651 12.7669 20.5651 12C20.5651 11.2331 20.8175 10.4875 21.2835 9.87838C21.7494 9.26925 22.403 8.83045 23.1431 8.62973V5.14287C23.1431 4.68881 22.963 4.25329 22.6422 3.9319C22.3215 3.61051 21.8863 3.4295 21.4323 3.42859H2.56828C2.11422 3.4295 1.67906 3.61051 1.35831 3.9319C1.03756 4.25329 0.857421 4.68881 0.857422 5.14287V8.62287C1.60351 8.81911 2.26362 9.25688 2.73467 9.86784C3.20571 10.4788 3.46118 11.2286 3.46118 12C3.46118 12.7715 3.20571 13.5212 2.73467 14.1322C2.26362 14.7432 1.60351 15.1809 0.857422 15.3772V18.8572Z" stroke="#FF7622" stroke-width="1.5" stroke-linecap="round" stroke-linejoin="round"/>
<path d="M8.60617 9.42858C8.83349 9.42858 9.05151 9.33827 9.21226 9.17753C9.373 9.01678 9.46331 8.79877 9.46331 8.57144C9.46331 8.34411 9.373 8.12609 9.21226 7.96535C9.05151 7.8046 8.83349 7.71429 8.60617 7.71429C8.37884 7.71429 8.16082 7.8046 8.00007 7.96535C7.83933 8.12609 7.74902 8.34411 7.74902 8.57144C7.74902 8.79877 7.83933 9.01678 8.00007 9.17753C8.16082 9.33827 8.37884 9.42858 8.60617 9.42858ZM15.4633 16.2857C15.6906 16.2857 15.9087 16.1954 16.0694 16.0347C16.2301 15.8739 16.3205 15.6559 16.3205 15.4286C16.3205 15.2013 16.2301 14.9832 16.0694 14.8225C15.9087 14.6617 15.6906 14.5714 15.4633 14.5714C15.236 14.5714 15.018 14.6617 14.8572 14.8225C14.6965 14.9832 14.6062 15.2013 14.6062 15.4286C14.6062 15.6559 14.6965 15.8739 14.8572 16.0347C15.018 16.1954 15.236 16.2857 15.4633 16.2857Z" stroke="#FF7622" stroke-width="1.5" stroke-linecap="round" stroke-linejoin="round"/>
</svg>
