<svg width="22" height="21" viewBox="0 0 22 21" fill="none" xmlns="http://www.w3.org/2000/svg">
<mask id="path-1-inside-1_553_4285" fill="white">
<path d="M10.7883 0.143188L14.0811 6.81414L21.4448 7.89044L16.1165 13.0801L17.374 20.4118L10.7883 16.9484L4.20261 20.4118L5.46007 13.0801L0.131836 7.89044L7.49545 6.81414L10.7883 0.143188Z"/>
</mask>
<path d="M10.7883 0.143188L23.6885 -6.2245C21.2649 -11.1346 16.264 -14.243 10.7883 -14.243C5.31263 -14.243 0.311729 -11.1346 -2.11193 -6.2245L10.7883 0.143188ZM14.0811 6.81414L1.18091 13.1818C3.27468 17.4236 7.31988 20.365 12.0005 21.0491L14.0811 6.81414ZM21.4448 7.89044L31.4825 18.1961C35.4045 14.3762 36.8182 8.66117 35.1296 3.45325C33.441 -1.75467 28.9427 -5.55272 23.5254 -6.34453L21.4448 7.89044ZM16.1165 13.0801L6.07879 2.77445C2.68546 6.07955 1.1366 10.8433 1.93735 15.512L16.1165 13.0801ZM17.374 20.4118L10.6779 33.1447C15.5249 35.6936 21.3986 35.2696 25.8293 32.051C30.2599 28.8324 32.4789 23.3774 31.5532 17.9799L17.374 20.4118ZM10.7883 16.9484L17.4844 4.21556C13.2925 2.01109 8.28411 2.01109 4.09221 4.21556L10.7883 16.9484ZM4.20261 20.4118L-9.97658 17.9799C-10.9023 23.3774 -8.68331 28.8324 -4.25267 32.051C0.177971 35.2696 6.05174 35.6936 10.8987 33.1447L4.20261 20.4118ZM5.46007 13.0801L19.6393 15.512C20.44 10.8433 18.8911 6.07955 15.4978 2.77445L5.46007 13.0801ZM0.131836 7.89044L-1.94882 -6.34453C-7.3661 -5.55272 -11.8644 -1.75467 -13.553 3.45325C-15.2416 8.66117 -13.8279 14.3762 -9.90591 18.1961L0.131836 7.89044ZM7.49545 6.81414L9.57611 21.0491C14.2567 20.365 18.3019 17.4236 20.3957 13.1818L7.49545 6.81414ZM10.7883 0.143188L-2.11193 6.51088L1.18091 13.1818L14.0811 6.81414L26.9814 0.446447L23.6885 -6.2245L10.7883 0.143188ZM14.0811 6.81414L12.0005 21.0491L19.3641 22.1254L21.4448 7.89044L23.5254 -6.34453L16.1618 -7.42084L14.0811 6.81414ZM21.4448 7.89044L11.407 -2.41525L6.07879 2.77445L16.1165 13.0801L26.1543 23.3858L31.4825 18.1961L21.4448 7.89044ZM16.1165 13.0801L1.93735 15.512L3.19481 22.8437L17.374 20.4118L31.5532 17.9799L30.2957 10.6482L16.1165 13.0801ZM17.374 20.4118L24.0701 7.67892L17.4844 4.21556L10.7883 16.9484L4.09221 29.6813L10.6779 33.1447L17.374 20.4118ZM10.7883 16.9484L4.09221 4.21556L-2.49348 7.67892L4.20261 20.4118L10.8987 33.1447L17.4844 29.6813L10.7883 16.9484ZM4.20261 20.4118L18.3818 22.8437L19.6393 15.512L5.46007 13.0801L-8.71912 10.6482L-9.97658 17.9799L4.20261 20.4118ZM5.46007 13.0801L15.4978 2.77445L10.1696 -2.41525L0.131836 7.89044L-9.90591 18.1961L-4.57767 23.3858L5.46007 13.0801ZM0.131836 7.89044L2.21249 22.1254L9.57611 21.0491L7.49545 6.81414L5.4148 -7.42084L-1.94882 -6.34453L0.131836 7.89044ZM7.49545 6.81414L20.3957 13.1818L23.6885 6.51088L10.7883 0.143188L-2.11193 -6.2245L-5.40478 0.446447L7.49545 6.81414Z" fill="#FB6D3A" mask="url(#path-1-inside-1_553_4285)"/>
</svg>
